<svg id="Layer_1" data-name="Layer 1" xmlns="http://www.w3.org/2000/svg" viewBox="0 0 841.89 595.28"><defs><style>.cls-1{fill:#3f3b3c;}</style></defs><path class="cls-1" d="M550.53,235.27a.56.56,0,0,0,.06-.37C550.46,235.13,550.46,235.24,550.53,235.27Z"/><path class="cls-1" d="M456,306.9l1-.94A4.92,4.92,0,0,0,456,306.9Z"/><path class="cls-1" d="M607,192.11c-.07.08,0,.09-.09.16l4-3Z"/><path class="cls-1" d="M317,475.93l-1.08-1.16C316.42,475.3,316.72,475.66,317,475.93Z"/><path class="cls-1" d="M374.28,369.82a12.92,12.92,0,0,1-1.47,1.38A4.91,4.91,0,0,0,374.28,369.82Z"/><path class="cls-1" d="M640.11,173.47l-1.83.94C638.41,174.52,639.08,174.21,640.11,173.47Z"/><path class="cls-1" d="M605.36,124.82a1.64,1.64,0,0,0,.08.19C605.55,125.06,605.48,125,605.36,124.82Z"/><path class="cls-1" d="M625.72,144.26c.5.35,1.09.73,1.69,1.12C626.73,144.86,625.88,144.18,625.72,144.26Z"/><path class="cls-1" d="M628.22,145.9l-.81-.52C627.84,145.71,628.19,146,628.22,145.9Z"/><path class="cls-1" d="M574,123.17a41.48,41.48,0,0,0,4.16-3.94Z"/><path class="cls-1" d="M177.79,532l.42-.23C177.8,531.91,177.73,532,177.79,532Z"/><path class="cls-1" d="M574,119l1.2-.85A10.92,10.92,0,0,0,574,119Z"/><path class="cls-1" d="M610.62,197.76c-1.41,1.57-5.06,3.85-4.81,4.12C607.52,200.47,610.16,198.77,610.62,197.76Z"/><path class="cls-1" d="M159.93,506.08l.11-1.4C160,505.34,159.93,505.76,159.93,506.08Z"/><path class="cls-1" d="M574,119l-1.39,1a4.47,4.47,0,0,0,.52-.17A8.49,8.49,0,0,1,574,119Z"/><path class="cls-1" d="M231.11,385.62l-.07,0-.43-.2Z"/><path class="cls-1" d="M241.2,393l-2.28-1.39A13,13,0,0,0,241.2,393Z"/><path class="cls-1" d="M578.16,119.23l2.38-2.25A32.75,32.75,0,0,0,578.16,119.23Z"/><path class="cls-1" d="M348.82,323.78l-.86.91A10.41,10.41,0,0,0,348.82,323.78Z"/><path class="cls-1" d="M382,364.07c.27-.16.62-.41.93-.61C383,363.32,382.87,363.31,382,364.07Z"/><path class="cls-1" d="M313.79,429.88l0,0h0S313.79,429.88,313.79,429.88Z"/><path class="cls-1" d="M317.47,426.43a21.63,21.63,0,0,0-3.68,3.45A24.52,24.52,0,0,0,317.47,426.43Z"/><path class="cls-1" d="M305.15,436.38l.5-.33A4.81,4.81,0,0,0,305.15,436.38Z"/><path class="cls-1" d="M385.46,374.68s0,0,0,0,0,0,0,.06Z"/><path class="cls-1" d="M369.68,387.06a13,13,0,0,0-1.19.72A8.51,8.51,0,0,0,369.68,387.06Z"/><path class="cls-1" d="M322.93,464.22s0,0,0,0l.08.07Z"/><path class="cls-1" d="M224.44,539.35c18.66-3.48,42.74-8.46,61.31-11.48,3.9-1.47,9.77-2.52,15.65-3.72l.8.9,4.87-1.19c2.05,0-3.76.85-.15.61l1.75-1c.45.3,12.7-2,4.56.2l19.14-3.35c4.23-.7,2.33-1.27,7.05-1.84,1,.13-1.65.5-1.2.79,1.17-.14,2.25-.29,3.26-.45l2.42-.41,2.74-.49c3.54-.65,6.56-1.28,9.25-1.89,5.38-1.22,9.36-2.33,13.84-3.42-4.21-4.09-8.38-8.28-13.71-14.28l1.55,1.48c-1.56-1.49-3.62-3.63-5.32-5.41l-2.16-2.25c-.34-.32-.53-.5-.57-.49a3.11,3.11,0,0,0,.2.63s0,.08.08.13l.14.2.31.36a17.12,17.12,0,0,0,1.54,1.41,31.65,31.65,0,0,1,5,5.26c-1.46-.31-6.41-6.25-6.66-5.55l-1.09-1.3-.67-.76c-.45-.48-.88-.9-1.32-1.3-.87-.81-1.74-1.55-2.68-2.53-2.74-3.77-7.53-8.38-9.4-11.4-1.74-1.48-4.08-2.76-7.42-6.31-1.87-3,1,.16-2-3.5l-.89-.22c-2.59-2.91-2.07-2.56-1.8-2.61-2.81-3.08-2.86-2.08-6.17-6.13l2.34,1.8c-2.77-2.7-3.77-3.92-7.39-7.9.29-.11,1.74,1.49,2.76,2.71-1.44-2.65-3.64-3.46-4.65-4.67.14.48,2.6,3.28,1,2.28-1.74-2-4.36-3.71-5.22-5.52l2.34,1.82c-2-1.92-2.66-2.36-3.3-2.92-.31-.28-.64-.6-1.14-1.14l-.89-1-.55-.68c.14.09.2,0,.33,0a8.13,8.13,0,0,1-2.37-2.18c1-.66,2-1.27,2.89-1.95l-.25.37a4.21,4.21,0,0,0,.38-.51,2.33,2.33,0,0,1,.19-.28l.43-.46a10.75,10.75,0,0,1,1.52-1.46c-2.86,1.87-2.22,1.18-2.76,1,4.06-2.11,4.83-5,10.94-9.12.08.3-1.1,1.67-2.89,2.67-1.46,2.22-1.26,3-4.55,6,2.08-1.87,4.59-4,4.27-3.27l.2-1.16c1.32-1.06,2.4-1.84,3.4-2.62.27-.84-3.19,1.45-.31-1.22,3.32-2.92,2.35-.8,2.67-1.51,4.6-4,1.46-2.21,6.23-5.6a12.39,12.39,0,0,1-1.67,1.47c3.5-2.32,8-6.44,9.58-6.45a3.83,3.83,0,0,1-1.58,1.77l0-.16c-3.21,3.38,2.92-2.51,2.31-.95-.57-.21,4.15-3.74,6.3-5.29l-1,0c5.9-6.81.34,1.21,7.09-4.34,4.13-3.73-1.75,1.16.68-1.26,3-2.23,4.44-2.67,8.61-6.25,1.34-.75,4-2.42,4.6-2.07,2.47-2.26,8.16-6,9.27-7.66-4.83,3.07-4.06,4-9.83,7.46l1.08-1.65c3.65-2.81,8.11-6.7,10.76-8.47-.58.3-.91.34-.67,0,5-4.23,6.13-5.9,11.28-9.67,1-.06-2,2.16-4.1,3.88,3.53-2.17,3.42-2.62,8.57-6.4.58.19-3.41,2.62-3.68,3.47l5.48-4.48s0,.05.06.08c.29-1.31,4.3-3.26,7.56-6.13,8.09-6.3,8.62-8.17,12.68-12.2,1.35-.75,1.83-.86,1.46-.29-2.22,1.25-1.68,1.21-2.24,1.92,2.68-2.2,6.49-4,5.18-2.53,4.18-3.58-1.84.86.64-1.42l6-4.58c-1,.2-3.12,1.75-.25-.91,2.52-2.12,3.82-3,7.23-5.64-.36.55,1.47-.31-1.09,1.65a23,23,0,0,0,5-4.23c-3.95,2.58,5.85-5,2.67-3.42l3.95-2.57a23.61,23.61,0,0,1-2.07,1.86c1.46-.3,2.92-2.52,4.17-3.58,1.39-.91,4.81-3.51,5.25-3.53a19.93,19.93,0,0,1,4.76-3.32c1.66-1.47-.13-.46.25-1l6-4.58c.54.05,1.66.46.85,1.27,2-2,.14-1.48,3.55-4.1-1.51,2.08,4.82-3.06,2.52-.19,2.26-1.1,7.79-5.44,10.72-8,1.55-1.92-3.49,2.32-3.65,1.71,8.44-6.85,8-8.52,14.44-13.2l-1.73,1.14a45.82,45.82,0,0,0,5.32-5.08c-.65,1.41,5.64-2,12-7.1.32-.71-4,2.27-3.33,1l4.22-3.43c.34-.19,0,.27-.55.77,3.68-3.19,7.72-4.83,8.31-6.36l4.54-2.21-1.82.85c.32-.7,4.56-4.13,5.36-4.94a39,39,0,0,1,8.63-6.25c-.95.36-3.27,1.31.12-1.47.68.95,7.51-5.31,7.78-4.75,1.39-1.11,4.09-2.75,3.95-3.26l.21.76c-.29-1.06,4.83-5,8.61-8.17,0,1.77,4.22-3.42,6.71-3.78.16-1.31,6.7-5.68,6.9-6.85,3-2.37,3.2-1.45,4.15-1.81l1.18-1.37c1.78-.83,7.46-5.17,11-7.55l2.61-3.08,1.39-.6c.37-.56,2.88-2.67,1.09-1.66l1.71-1.27c-.41-.82,2.21-2,5.36-5,.87-.49.79-.16.13.5,1.69-1.3,1.25-.38,2.35-.86-1.33.75,5.07-6,.29-2.77-.54-.05,1.94-2.32,3.69-3.48l1.5-.15,1.46-2.22c2.52-2.11,3.94-2.57,6.1-4.13-2.11,1.71-3.82,5,1.71.61-2.85,2.35-4,3.82-5.41,5.13,1.17-.87,1.79-1.25.22.41,4.17-3.57,1.14-1.52,5.36-4.94.2.76,1.54,0,5.44-2.72l-3.13,1.77a2.18,2.18,0,0,1,.42-.57c-1.11.76-1.48.91-1.88.86.85-.65,4.42-4.58,5.4-4.79-5,2.48,7-6.55,3.82-4.94.36-.54,3.33-2.91,3.86-2.87-3.25,3.23,3.2-1.45,2.93-.6,1.2-1.2-3.15,1.77-1.51.15a32.31,32.31,0,0,1,5.27-3.32l-.81.8,3.5-2.31c.32-.71-3.57,2-.65-.51.9-.51,3.82-3,3.91-2.72-1.14,1.51.31,1.21-2.2,3.33,2.12-1.71,8.9-7.11,5.72-5.49l2.58-2c-1.8,1-6.64,4.09-1.55,0l0,.15,3.24-3.22,1.79-.92c-.16-.11.3-.68,1.63-1.7.48-.1,1.78-1,1.86-.7l1.45-1.17,1.23-1a16,16,0,0,0,1.34-1.25,4,4,0,0,0,.65-1c2.72-2.18,4-3,3.2-1.83,1.39-1,3.19-2.4,4.93-3.8-3.54-2.51-7.29-5.21-9-6.76-3-1.94-2.7-1.68-2.17-1.23s1.33,1.12-.45.15c-.23-.26-.52-.57-.84-.88s-.48-.5-.76-.77c-.55-.53-1.19-1.09-1.91-1.69-1.43-1.2-3.15-2.51-5-3.88-3.66-2.73-7.75-5.7-10.93-8.2,1,2.25-1.79-1.3-3.57-1.49,1.55.86-5.34-5.61.29-1.28-1.14-.88-2.25-1.8-3.38-2.7-1.85-2.37,5.74,4.27,2.87.75-3.7-3.1-6.9-4.26-10.87-8.38,1.93.71-3.43-2.76-1.79-2.44a29.58,29.58,0,0,1,3.41,2.75l-.64-.78c-7.67-7.31-2.9-1.37-7.34-4.77-4.77-4.37-3.26-4-3.29-4.48a37.79,37.79,0,0,0-4.38-4c3.13,2.44,4.88,5.44,3.23,4.54-1.45-2.6-6.79-6.79-8.28-7.81a63.29,63.29,0,0,0,5.14,5.84,73.67,73.67,0,0,1,4.91,5.51c1.07.61,1.46-.09,5.06,3.7-2.68-1.93-.13.48.46,1.2-.43-1,2.8,2.31,4.13,3.21.84,1.25-3-1.3.78,2.38l1.47-.15c1.46,1.48-1.18,0,2.31,2.72-2.16-1.14,0,1.14-4.65-2.68,4.75,5.43,8.62,6.81,13.14,10-.48-.31-.62-.23-1.1-.53a33.58,33.58,0,0,1,4.07,2.88c2.7,2.49-2.56-1.44-2-.62,1.54,1.25,3.1,2.47,4.65,3.69.08.1.09.14.07.15a10.15,10.15,0,0,1,2.82,2.24c-1.61-.81-2.38-.95-3.49-1.48,1.78,1.11,3.6,2.17,5.39,3.25-.76-.13,3.74,3.59,0,1.12l3.74,2.73,3.74,2.66c0,.33,0,.65.06,1,1.61,1,1.85,1,0-.45.68.55,2,1.38,3.57,2.34s3.33,2,4.55,2.84c.09,0,0,.06,0,.09l-.12.1-.23.18-.45.32a6.6,6.6,0,0,1-.77.48c-.45.23-.77.27-.94.06-2.08,2-3.85,3.5-5.73,5-2,1.66-4.28,3.45-7.62,6.29,4.91-4.68-6.63,4.08-1.18-.56-3.5,2.32-3.7,3.48-6.22,5.6-2.63,1.66-2,.25.49-2l-2.9,2.68,0-.16-2.44,2.42c-3.09,1.92-1-.1-4.06,2.12l-.24,1L613.9,187c.93-.36-.74,1.11-2.84,2.82l0-.15-2.52,2.12c2.33-2.31-2.46,1.74-1.56.46-2.25,1.7-2.29,1.75-6.24,5l1-.2c-5,4.39-.62-.35-4.89,2.93l.58.2c-6.63,4.08-10.07,8.46-14.92,11.54,2.52-2.11,1.5-2.06,1.54-1.91-3.78,3.18-10.2,8-13.84,11.64-1.92.56-2.41.66-6.75,3.62-3,2.38-3.38,2.78-4.1,3.89-3.08,2-8.29,6.63-8.76,6.32-.41.86-2.67,2-4,3.51l-.47.09.56.21c-5.86,3.12-8.33,7.3-14.15,10.58l.82-.8-2.07,1.86c-.49.1.32-.7.24-1l-10.24,7.87,2.24-1.26c-2.11,1.71-3.26,3.22-5.9,4.89,3.61-3.78-3.4,2.61-4.42,2.66l2.06-1.86c-3,2.37-3,2.37-2.4,2.58-3.76,3.16-3.25,1.3-6.49,4.52l2.56-2c.93-.35-.64,1.4-2.35,2.72-.45.25-1.79,1-.54-.05-2.93,2.53-7.67,5.9-8.89,7.1-1.75,1.17-1.43.46-.62-.34-6.25,5.44-3,2.22-9.27,7.67l-.07-.32-2,2-3.58,2,1.38-.6c-2.11,1.71-3.33,2.92-5.93,4.73l.74-1.12c-5.9,4.9-7.44,4.89-12.81,9.85-.44.24.37-.56.78-1-4.92,4.69-4.49,2.54-9.35,7.37.24-.37-.45-.06-.32-.32L453.69,309l-.17-.61-1.46,2.23-1.87.7-.78,1c-3.28,1.15-6.46,4.69-10.53,6.81l1.06.1c-8.07,8.21-21.09,15.37-31.52,24.39l-.16-.61-4.07,4c-2.68,1.52,1.14-1.51.21-1.16-4.6,4-1.47,2.23-6.95,6.71-3.09,1.92.73-1.11,1.95-2.32-5,4.29-12.57,10.56-16.47,13.2,0,.12-.21.38,0,.26-3.33,2.92-8.09,6.3-11.91,9.33-.07-.29.86-1.06,1.78-1.85a34.63,34.63,0,0,0-4.42,3.51l1.14-1.52c-3,2.22-8.41,7-9.43,7.06.5-.11.62.35-2,2.32-1.95.4-6.71,5.7-11.08,8.51.36-.55,3.33-2.92,2.48-2.27a32.67,32.67,0,0,0-5.42,4.8l.34-.72-9.23,7.82c-1.95.4-8.9,7.11-8.65,6.09-3.42,2.63,3.1-1.91-1.14,1.52-1.38.6-3.78,3.17-3.95,2.58l.41-.41-3,2.37,1.55-1.92c-2.52,2.12-4.07,4-3.94,4.49-2.64,1.66-6,4.58-7.4,5l.83-.82a94.29,94.29,0,0,1-9.32,6.54c-1.42.92-2.79,1.83-4.1,2.81l-1.39,1.09-1.71,1.39c-1.13.93-2.24,1.9-3.3,2.88-.79.51-.86.39.65-.78l-7.42,5.74.16.17-.23-.18,1.11-1.34-1.55,1.31L293,449.34h-.39l4.11,4.51,3.92,4.2,8.24,8.71L308,466c5.95,5.77,5.22,6.05,9.57,10.29a2.9,2.9,0,0,1-.53-.39l3.71,4-1-.69c3.2,2.54,7.23,9,5.93,6.84,1.75,1.49,4.67,4.15,5.39,4.41,4.05,4.34.71,1.32,3,4.18,1.45,1.59,2.39,2.44,3.44,3.45.53.5,1.08,1.05,1.74,1.74l1.07,1.18c.14.15.1.11.13.15l.06.08.11.18-.27.14a13.6,13.6,0,0,1,1.39,1.06l-.35-.18c.83.47.85.77.78.88a1.54,1.54,0,0,0-.63,0c-.1.06,0,.2.1.51-.86-.09-1.77.26-2-.3l-.2.1a.48.48,0,0,1-.17.07l-.68.15-2.63.57-5.08,1.09-10.44,2.17c-1.38-.73-1.61.34-6.28.61l.43.44c-10.66,1.93-23.12,2.83-34.85,5.09l-.41-.45-2.26,1c-12.71,2-29.13,4.65-39.22,6.41a115.5,115.5,0,0,1-13.47,3.06l.54-.17c-9.09,1.89-18.72,3.79-28.75,5.24.59-.32-.43-.29.66-.62-2.27,1-5.84,1.05-8,1.41l2.57-.06a26.25,26.25,0,0,1-8.41,1.11l-4.4,1.32a2.65,2.65,0,0,1-.85-.07l-.75.41-2.5-.25a3.43,3.43,0,0,0-.41.13l-.12.08-.42.25a10.8,10.8,0,0,0-1.32.9c0-.09-.07-.16-.13-.22.12-.42.21-.69.27-.32l.05,0h0l.16-2.23.37-5.62-.37,2.55c-.53.3-.59-4.65-.23-7.19.24,3.37.71.32,1.16-1.08-.16-2.25-.55,1.9-.77.71a58.86,58.86,0,0,1,.44-10.22l.08,1.69a22.9,22.9,0,0,1,.62-4.65,27.86,27.86,0,0,0,.83-4.58c-.08-3.39.54-5.83-.4-5.23.34-4.87.8-1.8,1.06-3.36-.14-2.32.94-9.06,1.5-9.86-.89-2.81,2.3-12.91,1.47-14.05l1.26-3.84c-.26-.17-.77-1.06-.35-4.29.87-3,1.24-2.14,1.7-3l-.67-2.22c2.09-8.56,4.53-18.48,7-28.6.67-2.52,1.36-5.05,2-7.57.34-1.26.69-2.52,1-3.77s.75-2.49,1.12-3.73c.75-2.47,1.5-4.91,2.27-7.31s1.64-4.71,2.47-7c1.12-4.16,2.58-8.8,4-13.63.75-2.41,1.6-4.83,2.43-7.26l1.29-3.62.32-.9.14-.35.23-.51v.38c.42-.83.82-1.6,1.17-2.21a11.44,11.44,0,0,0-1,1.33,11.39,11.39,0,0,1,.49-2.13l.15-.27c0-.07.06,0,.09,0l.1.08.4.33.71.6.16.14.08.07.05,0,.23.15,2.06,1.3,4.21,2.66c5.7,3.59,11.68,7.34,17.51,10.8,8,3.77,4.28,4.09,11.74,8-.66-.31-1-.32-1.58-.58l9.78,6.07,2.24,1.39.57.36c.22.14.3.18.72.46.7.45,1.4.92,2.11,1.39l4.38,2.9,2.29,1.5,1.18.77.29.19.08.05s0,0,.06-.06l.13-.14.51-.59c-.56,1.48,1.32-.51,3.21-2.59s3.71-4.23,3.39-3.43l.64-1.39,1.1-1,.79-.68,1.62-1.46c1-.91,1.81-1.57,1.7-1.2l2.33-3.34.61.1c1.86-1.92,4.68-5,7.41-7.81s5.33-5.22,6.68-5.87c8.64-10,23.47-24.77,35.39-36.32a92.13,92.13,0,0,1,7.45-8.08l3.31-2.41c2.59-2.85,5-6.24,7.85-8.46,0,.06,0,.2-.2.4,2.72-2.81,5.62-5.18,7.85-8.13,3.1-3,6.32-5.64,5.77-4.32-.41-1,6.67-6.17,6.67-6.17l7-6.54c4.45-4.21,10.93-10.18,18.83-17.46s17.3-15.78,27.52-25.12l16.05-14.39c5.51-5,11.25-10,17-15.1,23.14-20.45,47.82-41.71,69.22-60.09l15.36-13.2,13.66-11.81c8.39-7.39,15.38-13.58,20.24-18.28,1.11-1.51,4.84-4.87,3-4.15,2.92-2.54,4.85-2.94,5.13-3.8-4.33,3,.48-2-3.93.67l2.51-2.14c.31-.7-3.27,3.09-3,2.08l-.16,1.31a21,21,0,0,1-4.39,2.64c-1.75,1.84-2.22,3.83-7.27,7.11l1.27-1.07c-3.81,3.05-2.73,1.38-3.62,1.89l.85-.66-3.52,2.18c2.64-1.69,6.21-5.47,4.13-3.76-4.74,3.41,1.33-.75-2,2-2.1,1.72-1.81.86-1.9.56l-3.79,3.06c-.14-.44,2.53-2,.71-1.12l-4.49,4.21c-1.58-.14-4.88,4.6-7.71,5.55,3.28-3-.54,0-.22-.75l-8.39,6.83c-.89.53,2-2,.76-1-1.78,1-2.42,2.33-3.28,3-.92.36-6.24,5.13-6.47,4.38-6,4.28-1.8,2.67-7.35,6.69-1,.23,4.13-3.53,1.49-2l-5.38,4.63a8,8,0,0,1,2.73-3c-15.13,11.8-24.61,16.64-37.57,28.5-2.22,1.21,1.13-1.42,2.25-2.82a100.74,100.74,0,0,1-11.67,9.54,132,132,0,0,0-10.83,8.35l.14.46c-3.07,2.22-6.2,4.67-9.38,7.26s-6.34,5.38-9.56,8.2l-9.74,8.57c-3.27,2.86-6.51,5.74-9.78,8.49L425.2,234c-1.47,1.88-4.26,4.45-6.21,6.47-.46.13.89-2-2.67,1.41.86-.57,2.53-1.85,2.21-1.28-5.86,4.46-14.37,12.05-23.74,20.45L366.44,287C343,309.63,317.23,333.84,295,356.89c3.41-3.49,2.7-1.28,0,1.18-8.3,5.95-12,12.7-20,19.25-3.11,3.47-6.24,6.77-9.34,10l-1.17,1.19-.58.6-.23.23,0,0-.24.17-.23.15c-.07,0-.15-.14-.22-.21l-.19-.19-.05-.05-.52-.39-1.32-.95c-1.77-1.26-3.54-2.51-5.34-3.71-3.6-2.42-7.28-4.71-11.12-6.84v-.62c-2-1.64-2.83-1.73-5.16-3.18l.13-.09c-5.33-3.7-12.27-7.42-15.32-9.56l-.5.37c-3.31-2-1.48-1.42-5-3.18l.25-.19L214.52,359c.11-.08,0-.23-.15-.43a4.29,4.29,0,0,0-.64-.49c-.31-.21-.68-.44-1.09-.7-1.65-1-4-2.39-6.55-3.83l-7.6-4.28-.12-.06a.3.3,0,0,0,0,.1l-.09.22-.16.43q-.18.44-.33.84c-.22.53-.42,1-.61,1.52-.39.93-.73,1.71-1,2.27l-2.66,7.31c-.5,1.38-1,2.82-1.58,4.31l-.41,1.13c-.13.35-.32.84-.36,1-.15.45-.3.92-.46,1.39-1.22,3.75-2.67,7.76-4,11.31-.92,1.17-4,10-5.89,15.58-3.33,11.06-7.53,27-10.86,41.34l.69-.11-.76,3.75c-.13-.08-.31.41-.26-.17a23.63,23.63,0,0,0-1.45,5.75,39.07,39.07,0,0,1-1.15,5.9c.95-1.79.6-2.62,1-4.77.92-3,.94,0-.16,4.15l-.12-.11-.21,2.91c-.56.22-1.29,2.77-1.85,3-.53,3.12-.91,6-1.28,8.77-.18,1.38-.35,2.73-.52,4.07s-.28,2.68-.42,4c-.29,2.66-.59,5.34-.91,8.15s-.63,5.78-1.08,9c-.47-1.4-.83,9.33-1.55,6.62-.39,7.83.93-1.2,1.28,2.42-.23,2.17-.19,4.47-.58,4.84-.16-1.05-.73,1.71-.69-.06l-.32,5.22c-.11.49-.16-.67-.18-1.25-.06,2.66-.22,5.17-.42,7.58s-.35,4.73-.55,7c-.1,1.14-.19,2.28-.29,3.41l-.07.85,0,.46,0,.76-.12,3c-.14,4.08-.23,8.22-.2,12.32.33.91.3-6.75.63-5.76.07,4.23,0,7.17-.07,9.59,3.49-.57,5.62-.76,8.47-1.14,1.41-.18,3-.41,5-.75l3.3-.6,1.77-.35,1.14-.26-.86.41c-.16.07-.25.12-.47.2l-.84.28,1-.24.47-.14.87-.29c.57-.18,1.12-.35,1.73-.51a31,31,0,0,1,5-.78c.91.44-3.85,1.16-6,1.81,3.18-.53,11.19-2.08,8.65-2.17a37.09,37.09,0,0,1,7.33-.79c0-.15-3.62.24-1.44-.42,5.24-.58,13.24-2,19.58-3.05,0,.15.45.29-.09.46C217.8,539.36,217.48,540.74,224.44,539.35Z"/><path class="cls-1" d="M387.56,373.15l-2.1,1.53c.08.1.08.29-.78,1.14Z"/><path class="cls-1" d="M302.36,442.85a2.18,2.18,0,0,0,.38.18A.54.54,0,0,0,302.36,442.85Z"/><path class="cls-1" d="M322.69,463.33c-1.54-1.48-.36,0,.24.89C323.05,464.18,323.12,464.05,322.69,463.33Z"/><path class="cls-1" d="M441.59,329.05c-.32.33-.49.56-.36.61C441.65,329.2,441.7,329.06,441.59,329.05Z"/><path class="cls-1" d="M593.8,210.87l-.66.4A3.78,3.78,0,0,0,593.8,210.87Z"/><path class="cls-1" d="M584.82,216.71c-.41.32-.94.76-1.66,1.41A13.35,13.35,0,0,0,584.82,216.71Z"/><path class="cls-1" d="M404.89,358a12.5,12.5,0,0,0-1.48,1.39A9.14,9.14,0,0,0,404.89,358Z"/><path class="cls-1" d="M581.49,219.58l-2.16,1.61s0,.08,0,.11Z"/><path class="cls-1" d="M596.51,208.84c-.84.63-2,1.51-2.71,2A15.75,15.75,0,0,0,596.51,208.84Z"/><path class="cls-1" d="M496.91,285l-.22.19C495.19,286.64,496.16,285.75,496.91,285Z"/><path class="cls-1" d="M572.83,227.6l-.3.2-.52.61Z"/><path class="cls-1" d="M605.81,201.88a8.27,8.27,0,0,0-1,.91l1.24-.89C605.9,201.93,605.84,201.91,605.81,201.88Z"/><path class="cls-1" d="M529.28,260.86c.46-.64.6-.93.55-1C529.13,260.38,528.74,260.81,529.28,260.86Z"/></svg>