<svg id="Layer_1" data-name="Layer 1" xmlns="http://www.w3.org/2000/svg" viewBox="0 0 841.89 595.28"><defs><style>.cls-1{fill:#3f3b3c;}</style></defs><path class="cls-1" d="M129,464.42a.47.47,0,0,0,.06.3C129.06,464.54,129,464.45,129,464.42Z"/><path class="cls-1" d="M184.85,415.2l-.58.67C184.69,415.48,184.82,415.3,184.85,415.2Z"/><path class="cls-1" d="M97.71,496.29a.3.3,0,0,0,0-.12c-.48.49-1.11,1.18-2.12,2.32C96.32,497.75,97,497,97.71,496.29Z"/><path class="cls-1" d="M311.89,319.72l-.81.59A7.94,7.94,0,0,0,311.89,319.72Z"/><path class="cls-1" d="M235.41,374.8a5.21,5.21,0,0,1,.88-.93C235.8,374.23,235.43,374.55,235.41,374.8Z"/><path class="cls-1" d="M78,510.51l1.11-.75C78.92,509.67,78.5,509.91,78,510.51Z"/><path class="cls-1" d="M51.18,547.46a.82.82,0,0,0,.14-.05C51.33,547.33,51.26,547.38,51.18,547.46Z"/><path class="cls-1" d="M63,534.12c.21-.33.43-.72.65-1.12C63.36,533.44,62.94,534,63,534.12Z"/><path class="cls-1" d="M64,532.46l-.29.54C63.87,532.72,64,532.49,64,532.46Z"/><path class="cls-1" d="M812.63,33A16.31,16.31,0,0,0,815.7,31Z"/><path class="cls-1" d="M431.43,239.39l-.16.29C431.47,239.49,431.48,239.42,431.43,239.39Z"/><path class="cls-1" d="M812.78,29.28l.87-.31A4.65,4.65,0,0,0,812.78,29.28Z"/><path class="cls-1" d="M93,491.55c.61-1.22,2.77-2.92,2.49-3.15C94.61,489.47,93.06,490.75,93,491.55Z"/><path class="cls-1" d="M449.72,211.19l.73-.47C450.1,210.93,449.88,211.08,449.72,211.19Z"/><path class="cls-1" d="M812.78,29.28l-1,.35a2.1,2.1,0,0,0,.37,0A3.2,3.2,0,0,1,812.78,29.28Z"/><path class="cls-1" d="M560,162.26l0,0-.23.21Z"/><path class="cls-1" d="M567.25,158.88l-1.42.93A5.25,5.25,0,0,0,567.25,158.88Z"/><path class="cls-1" d="M815.7,31l1.76-1.11A13.59,13.59,0,0,0,815.7,31Z"/><path class="cls-1" d="M642.34,117.48l-.67.41A3.84,3.84,0,0,0,642.34,117.48Z"/><path class="cls-1" d="M230.52,378.36l-.59.37C229.92,378.84,230,378.86,230.52,378.36Z"/><path class="cls-1" d="M271.84,334.58l0,0h0Z"/><path class="cls-1" d="M269.56,336.83a8.88,8.88,0,0,0,2.28-2.25A10,10,0,0,0,269.56,336.83Z"/><path class="cls-1" d="M277.45,330.69l-.33.18A2,2,0,0,0,277.45,330.69Z"/><path class="cls-1" d="M225.94,368.63l0,0a.11.11,0,0,0,0-.05Z"/><path class="cls-1" d="M235.92,360.81a4.93,4.93,0,0,0,.8-.4A3.47,3.47,0,0,0,235.92,360.81Z"/><path class="cls-1" d="M302.41,311.41a0,0,0,0,0,0,0l0,0Z"/><path class="cls-1" d="M399.46,241.81c-4.94,3.39-10.56,7.38-16.19,11.31-2.82,2-5.64,3.92-8.38,5.78s-5.37,3.69-7.87,5.3c-1.71,2.09-4.82,4.23-7.85,6.49l-.91-.62-2.43,2.05c-1.24.46,1.9-1.52-.2-.57l-.63,1.19c-.41-.16-6.85,4.36-2.87.78L342,280.4c-2.26,1.51-.82,1.61-3.43,3.11-.67.11.77-.78.36-.94-7.82,4.53-7.41,7.58-14.56,12l.51-.52c-1,1-3.27,2.57-3.22,2.71,1.48.22.92-1.32,3.37-2.29.31.84-2.35,2.21-1.84,2.65-1.79.87-2.45,1.93-3.83,3-2.7,1.22-5.92,3.94-8.12,4.64-1,1.06-1.81,2.69-4.28,4.51-2.18.73,0-.83-2.54.71l-.1.69c-2,1.37-1.81,1-1.87.79-2.15,1.52-1.38,1.84-4.25,3.5l1.21-1.47a60.88,60.88,0,0,1-5.51,4c-.11-.27,1-1.05,1.87-1.57-1.93.47-2.38,2.11-3.23,2.62.36,0,2.33-1.28,1.68-.2-1.42.9-2.52,2.64-3.84,2.86l1.21-1.46c-2.63,2.37-1.16,1.6-4.55,3.8.16-.16,0-.2,0-.34-1.7,2-4.76,3.48-7.84,5.67l.5-.54c-1.13,1-1.54,1.9-2.22,2.36,1.91-1,1.52-.58,2-.3-2.78,1-2.93,3.35-7,5.7-.11-.27.59-1.22,1.8-1.73.77-1.63.5-2.33,2.55-4.32-1.3,1.2-2.9,2.52-2.76,2l0,1c-.85.65-1.55,1.11-2.2,1.58-.07.68,2.22-.61.43,1.12-2.1,1.85-1.68.22-1.82.76-2.9,2.53-.77,1.63-3.9,3.6a5.06,5.06,0,0,1,1.06-.93c-2.33,1.3-5.14,4-6.33,3.68a1.72,1.72,0,0,1,.93-1.22l0,.14c1.92-2.3-1.83,1.61-1.62.37.47.29-2.58,2.43-4,3.36l.77.15c-3.42,4.75-.45-1.11-4.73,2.39-2.57,2.41,1.16-.67-.32.95-1.95,1.34-3,1.45-5.59,3.73-.91.4-2.66,1.35-3.19.93-1.51,1.49-5.26,3.66-5.82,4.9,3.19-1.75,2.43-2.73,6.29-4.61l-.55,1.22c-2.33,1.75-5.1,4.27-6.83,5.31.39-.15.64-.13.52.14-3.15,2.72-3.71,3.94-7,6.25-.78-.14,1.15-1.5,2.48-2.59-2.35,1.21-2.18,1.62-5.47,4-.48-.27,2.16-1.66,2.22-2.35l-3.42,2.9s0-.05-.07-.08c0,1.07-2.72,2-4.72,3.94-5.09,4-5.17,5.5-7.54,8.29-.89.42-1.25.43-1.07,0,1.47-.71,1.07-.76,1.36-1.29-1.64,1.45-4.24,2.36-3.51,1.33-2.55,2.38,1.25-.44-.23,1.1l-3.74,3c.72,0,2.08-1,.37.81-1.53,1.41-2.37,2-4.5,3.65.17-.41-1.08,0,.52-1.23a9.34,9.34,0,0,0-3.08,2.8c2.56-1.57-3.54,3.36-1.39,2.49l-2.53,1.6c.53-.43.4-.7,1.22-1.28-1.07,0-1.74,1.71-2.5,2.42s-3,2.27-3.34,2.22a8.16,8.16,0,0,1-3,2.12c-1,1,.19.4,0,.83l-3.67,3c-.44-.11-1.4-.64-.94-1.2-1.16,1.41.2,1.23-1.9,3,.72-1.56-3.07,1.93-1.91-.19-1.51.62-4.87,3.55-6.59,5.3-.78,1.42,2.21-1.49,2.47-.95-5.06,4.66-4.33,6.14-8.32,9.23l1.09-.74a17,17,0,0,0-3,3.62c.18-1.12-3.93,1-7.68,4.53-.08.56,2.61-1.43,2.37-.44l-2.48,2.38c-.22.12,0-.22.25-.58-2.12,2.24-4.89,3.14-5,4.36-1,.44-2,.86-3,1.33l1.21-.51c-.08.54-2.52,3-2.95,3.58a15.9,15.9,0,0,1-5.15,4.34c.65-.21,2.22-.76.28,1.21-.78-.86-4.53,3.67-4.89,3.18-.8.78-2.5,1.87-2.26,2.31l-.37-.65c.5.9-2.43,3.74-4.54,6.05-.45-1.48-2.37,2.48-4.23,2.57.23,1.07-3.7,4.15-3.54,5.1-1.68,1.72-2.12.94-2.77,1.16l-.54,1.05c-1.15.56-4.35,3.77-6.43,5.49l-1.15,2.37-.92.41c-.13.43-1.48,2-.37,1.3l-1,.93c.57.7-1.14,1.54-2.75,3.75-.54.35-.58.08-.26-.42-.94,1-.87.23-1.59.56.81-.54-2.12,4.69.64,2.28.44.07-.8,1.81-1.82,2.68l-1.13,0-.45,1.75c-1.32,1.61-2.3,1.91-3.5,3.09,1.12-1.3,1.44-3.87-1.55-.58a31.89,31.89,0,0,0,2.65-3.95c-.65.66-1,.94-.3-.35-2.17,2.74-.42,1.2-2.67,3.8-.41-.63-1.23-.07-3.45,2l1.91-1.31a1,1,0,0,1-.14.45c.63-.57.88-.67,1.21-.62-.47.49-2,3.54-2.75,3.67,3.16-1.81-3.42,5-1.41,3.86-.1.44-1.64,2.28-2.08,2.23,1.48-2.54-2,1.09-2.11.4-.54.95,1.89-1.35,1.14-.08a13.23,13.23,0,0,1-3,2.56l.37-.63-2,1.78c0,.57,2.14-1.53.68.43-.53.39-2,2.36-2.16,2.11.39-1.2-.67-1,.61-2.65-1.1,1.34-4.64,5.55-2.67,4.31l-1.36,1.54c1.08-.78,3.86-3.15,1.23,0l-.08-.12L80.14,509c-.37.23-.72.48-1.08.72.16.09,0,.55-.68,1.36-.34.08-1,.8-1.21.55-1.93,2.42-1.48,2.46-1.58,2.9-1,1.37-1.57,1.78-1.39.88-1.57,1.77-4.11,5-5.43,6-1.74,2.65.53-.41-.25,1.33a9,9,0,0,0-2.29,1.84,36.25,36.25,0,0,0-2.53,3.14c-1.73,2.36-3.5,5.06-5,7.16,1.73-.45-.75,1.19-.53,2.55.4-1.09-3.65,3.38-1.16-.4l-1.58,2.26c-1.63,1.14,2.41-3.9,0-2.13a22,22,0,0,0-2.07,3.67,14.84,14.84,0,0,1-2.47,3.88c.08-1.45-1.42,2.44-1.58,1.2a10.33,10.33,0,0,1,1.42-2.44l-.5.43c-4.13,5.4-.39,2.14-2,5.35-2.32,3.42-2.4,2.3-2.84,2.28a14.87,14.87,0,0,0-2.07,3.21c1.08-2.33,3.11-3.52,2.84-2.29-1.78,1-3.62,5-4,6.06,4.19-4.26,2.41-3.3,6.45-7.22.21-.78-.52-1.14,1.68-3.65-.89,1.92.44.14.89-.26-.75.25,1.18-2,1.61-2.93.84-.53-.29,2.25,1.81-.38L54.09,543c.91-1,.29.9,1.77-1.49-.45,1.55.93.13-1.13,3.32a15.94,15.94,0,0,0,3.38-4.46c.74-1.45,1.28-2.9,2.19-4.41-.16.33-.07.44-.23.77a13.26,13.26,0,0,1,1.65-2.7c1.6-1.69-.72,1.75-.12,1.45l2.25-3c.08,0,.1,0,.12,0,.48-.87,1-1.68,1.4-1.79a22.42,22.42,0,0,0-.62,2.44l1.8-3.59c0,.56,2.45-2.19,1,.19l1.7-2.36,1.78-2.3.88.08c.78-1.16.69-1.28-.43,0,1.39-1.43,4.59-7.63,5-5.91a54.69,54.69,0,0,1,3.14-4.55l3.77-5c-2.27,3.65,3.84-3.12,1.13.48,2-1.78,1.73-2.71,3-4.36,1.51-1.26,1.48-.14.31,1.62l1.36-2.08.08.13,1.1-1.89c1.78-1.46.86.12,2.48-1.59l-.15-.81,1.32-1c-.61.26.2-.88,1.28-2.2l.09.12,1.27-1.64c-1.08,1.79,1.37-1.31,1.09-.3,1.22-1.28,1.24-1.32,3.32-3.75l-.71.11c2.54-3.33.6.32,2.92-2.15l-.52-.19c3.92-3,5.23-6.41,8.07-8.68-1.32,1.6-.53,1.62-.61,1.49,2-2.4,5.62-5.9,7.39-8.64,1.35-.33,1.7-.38,4.22-2.51,1.64-1.75,1.83-2.05,2.07-2.92,1.79-1.49,4.63-4.8,5.08-4.51.08-.68,1.54-1.4,2.2-2.56l.35,0-.5-.22c3.73-2.07,4.5-5.33,8.15-7.53l-.41.6,1.1-1.37c.36,0-.06.56.09.83,2-1.87,4-3.67,6-5.51l-1.42.82c1.21-1.21,1.71-2.36,3.35-3.47-1.85,2.78,2-1.82,2.76-1.75l-1.13,1.34c1.7-1.66,1.7-1.66,1.21-1.91,2.13-2.24,2.2-.73,3.9-3.08L153.08,442c-.64.19.14-1.12,1.14-2,.29-.17,1.14-.66.43.1,1.63-1.81,4.55-4,5.2-4.91,1.08-.76,1-.21.57.37,3.56-3.81,1.81-1.5,5.38-5.31l.13.27L167,429l2.31-1.25-.93.33a30,30,0,0,1,3.49-3.24l-.32.84c3.48-3.33,4.68-3.11,7.74-6.56.29-.14-.16.43-.39.72,2.77-3.29,2.92-1.52,5.61-4.94-.11.28.36.11.32.31l1.28-1.48.26.54.65-1.69,1.3-.32.4-.69c2.3-.49,4-3,6.72-4.19l-.84-.25c2.26-2.87,5.54-5.34,9-7.84A86.68,86.68,0,0,0,214,391.35l.25.54,2.34-2.78c1.78-.84-.58,1.11.07,1,2.77-2.65.69-1.68,4.06-4.58,2-1.1-.36.82-1.06,1.65a98.21,98.21,0,0,1,10.24-8.42c0-.1.08-.3-.06-.23,2-1.91,5-4,7.46-5.89.1.26-.48.75-1,1.26a13.84,13.84,0,0,0,2.78-2.2l-.61,1.1c1.92-1.35,5.23-4.46,6-4.32-.36,0-.53-.42,1.09-1.63,1.43,0,4.16-3.66,7-5.26-.18.4-2.05,1.89-1.51,1.49a14,14,0,0,0,3.34-3.1l-.14.54,5.79-4.94c1.42,0,5.65-4.4,5.62-3.57,2.19-1.6-2.05,1,.63-1.09.95-.25,2.37-2,2.6-1.45l-.25.27,1.89-1.46-.88,1.35c1.59-1.33,2.47-2.67,2.3-3.09,1.76-.9,3.85-2.75,4.87-2.86l-.5.54c4.29-3.44,8.24-4.14,11.16-7.46.31-.12.36,0-.19.4l2.78-1.95-.41.82,4.17-3.81.11.28c3.08-2.07,7.7-5.57,11.52-8.42l-.5.52c4-3.39,4.24-2.7,7.15-5.18a.93.93,0,0,1-.25.33l2.77-2-.45.67c1.7-2,6.37-3.56,4.79-3.08,1-1,2.85-2.73,3-3.26,3-2.16,1-.22,3-1.34,2.23-1.52,2.34-2.21,5.49-4.09l.1.28c1.38-1,2.13-1.8,4.07-3.2l-.51.52c2.85-2.73,4.47-2.08,6.25-4.86,1.48-.75,3.91-2.67,4.12-2.11,1.88-1.54,3.57-2.88,5.27-4.21l5.36-4c1.17.35.82-.63,3.54-1.82l-.47-.3c5.6-3.87,12.78-7.21,18.88-11.6l.45.31.94-1.31c6.82-4.33,15.71-9.84,21.08-13.4a45.42,45.42,0,0,1,6.85-5.35l-.25.26c2.36-1.73,4.79-3.49,7.33-5.22s5.2-3.37,8-5c-.22.4.39.18-.13.68,1-1.28,3.13-2,4.29-2.75l-1.56.54a10.4,10.4,0,0,1,4.68-2.57l2.12-2c.19-.05.48-.15.56-.1l.28-.5,1.64-.25c.53-.5,3.62-2.68,4.28-3.86.35,0,2.7-1.25,1,0,3-1.82,5.93-3.66,8.93-5.44l-1.51.65c-.45-.32,2.05-2.25,3.56-2.91-1.6,1.47.23.71,1.2.54,1.07-1-1.28.27-.8-.36a26.19,26.19,0,0,1,5.39-3.67l-.8.73c2-1.43,3.38-1.27,5.39-2.57,1.61-1.48,3.16-2,2.32-2.5,2.55-1.79,1.33-.13,2.23-.58,1-1.13,4.85-3.19,5.56-3.1.77-2,7.34-4,7.32-5.26l2.49-.81c-.08-.29,0-1.1,1.72-2.27,1.84-.74,1.7-.07,2.36-.12l.57-1.59c5.1-2.4,10.73-5.67,16.45-9s11.55-6.83,17.12-9.48c4.62-3,10.34-6.87,16-10l-.55.48,5.65-3-4.24,1.9a37.18,37.18,0,0,1,3.14-2.2c6.23-3.17,14.65-7.24,21.87-12,4.25-3.82,3.76-.86,8-4.27-.34.32-.4.56-.7.87,4.81-3.18,7.4-4.93,12.09-8.36,0,1.39,3.27-1.82,3.13-1l.18-.67c1.27-.35,4-1.7,3.76-1.18l1.92-1.76.44.34c3-1.58,9.12-5.42,11.17-5.36,3.47-2.33,8.12-5,13.07-7.75s10.25-5.32,14.91-7.68a36.09,36.09,0,0,1,5.89-3.67l2.53-.66c2.06-1.3,4-3.19,6.16-3.9,0,.07,0,.16-.16.26,2.12-1.26,4.34-2.08,6.14-3.62,2.42-1.2,4.91-2.12,4.43-1.24-.23-1,5.17-2.48,5.17-2.48l19.9-9.86c6.06-3,13.27-6.45,21.1-10.3s16.31-8.07,25.11-12.23c34.93-17.17,74-35.38,88.44-44.78.84-.92,3.59-2.5,2.25-2.55,2.14-1.16,3.52-.81,3.75-1.46-3.16,1,.42-1.6-2.79-.85l1.85-1c.25-.5-2.42,1.52-2.21.72L815.32,29a8.62,8.62,0,0,1-3.19.71c-1.3,1-1.71,2.55-5.38,3.58l.93-.48c-2.8,1.29-2,.22-2.62.34l.63-.27-2.56.63c1.92-.51,4.58-2.53,3-1.79-3.46,1.26,1-.18-1.51,1-1.54.74-1.31.09-1.35-.21l-2.79,1.29c-.08-.44,1.86-.81.54-.71l-3.34,2c-1.11-.71-3.63,2.2-5.67,2,2.44-1.37-.38-.24-.12-.74l-6.2,2.83c-.65.12,1.5-1,.58-.57-1.3.25-1.82,1.11-2.46,1.38-.67,0-4.63,2.11-4.76,1.38-4.4,1.49-1.38,1.65-5.46,3.08-.7-.16,3.06-1.53,1.13-1.14l-4,2a3.53,3.53,0,0,1,2.05-1.64c-11.21,4.55-18.12,5.17-27.91,10.36-1.64.19.86-.8,1.73-1.57-7,4-10.67,3.81-16.81,6.8l.08.45a118.14,118.14,0,0,0-14.26,5.88l-7.38,3.51c-2.47,1.2-4.94,2.36-7.41,3.43l1.28-.3a42.14,42.14,0,0,1-4.76,3.09c-.34-.07.74-1.4-2,.15.65-.15,1.9-.59,1.64-.22C692.67,76.8,686.13,79.8,679,83.2c-3.59,1.68-7.31,3.52-11,5.34s-7.35,3.59-10.79,5.2c-9.07,4.83-18.67,9.57-28.13,14.49l-14.13,7.28c-4.65,2.44-9.25,4.81-13.63,7.32,2.69-1.51,2.05.07-.1,1-6.43,1.45-9.5,5.54-15.78,7.57-5,3.08-10,5.51-14.87,8a104.42,104.42,0,0,0-13.93,8.45l-.44-.35c-1.53.6-1.74,1.13-3.21,2l0-.15c-3.62,1.83-7.63,4.69-9.78,5.62l.16.58c-2.07,1.22-1.31.22-3.29,1.72l-.08-.29-2.23,1.9c-.27-1-5.91,3.35-7.8,3.92-2.6,1.73-7.49,5.08-11.67,7.28-1,0-6,2.92-9.35,4.55l-5.05,3.07-5.68,3.5c-3.93,2.4-8.09,4.9-12.07,7.18l.49.48-2,1.27c0-.14-.36,0-.09-.29-2,.32-4.6,3-6.49,3.63,1.34-.11,1.48-.78,2.66-1.47,1.84-.74.56.76-1.87,1.85l0-.15-1.37,1.23c-.44-.34-2,.3-2.41,0-6.69,4.14-10.74,7.79-17.78,11.83.41-.92-4.88,3.2-4,1.5-3.95,2.89,1.1.26-.42,2-1.17.7-2.24,1.68-2.64,1.5.42-.54-1.26.07-.37-.59L447,213c-.31.1.23-.39.5-.64-5.34,4-10.35,5.64-15,9.36-.18.54,2-1.19,1.87-.65-4.66,3.83-4.8,2.3-9.24,5.74l.71-1a12.58,12.58,0,0,1-4.48,3.3c-.76-.21,1.86-1.75,2.92-2.75-1.73,1.07-6,4-4.38,3.58a15.72,15.72,0,0,1-4.18,2.09c0,.14,2.13-.9,1.07.09-3,1.51-7.3,4.29-10.75,6.43,0-.14-.4-.17-.14-.42C403.54,240.49,403.12,239.21,399.46,241.81Z"/><path class="cls-1" d="M224.59,369.57l1.35-.94c-.08-.11-.11-.27.39-.85Z"/><path class="cls-1" d="M287,323.2a3.4,3.4,0,0,0,.38-.47C287.08,323,287,323.11,287,323.2Z"/><path class="cls-1" d="M301.74,311.36c-1,.89,0,.31.67.05C302.36,311.29,302.26,311.2,301.74,311.36Z"/><path class="cls-1" d="M191.28,398.48c.18-.23.27-.4.15-.46C191.21,398.34,191.19,398.46,191.28,398.48Z"/><path class="cls-1" d="M102.16,481.6c.13-.1.23-.19.39-.3A1.49,1.49,0,0,0,102.16,481.6Z"/><path class="cls-1" d="M107.41,477.26a11.05,11.05,0,0,0,.9-1.05A5.32,5.32,0,0,0,107.41,477.26Z"/><path class="cls-1" d="M214,379.61a5.52,5.52,0,0,0,.89-.93A3.78,3.78,0,0,0,214,379.61Z"/><path class="cls-1" d="M109.19,475.11l1.23-1.18-.06-.1Z"/><path class="cls-1" d="M100.66,483.13c.46-.48,1.07-1.14,1.5-1.53A6.13,6.13,0,0,0,100.66,483.13Z"/><path class="cls-1" d="M158,428.35l.12-.13C159,427.14,158.4,427.78,158,428.35Z"/><path class="cls-1" d="M113.65,469.07l.18-.15.23-.47Z"/><path class="cls-1" d="M95.51,488.4a3.85,3.85,0,0,0,.5-.7l-.71.67C95.42,488.35,95.48,488.37,95.51,488.4Z"/><path class="cls-1" d="M138.68,445c-.2.49-.23.72-.17.81C138.92,445.45,139.11,445.13,138.68,445Z"/><path class="cls-1" d="M104.4,488.36a.69.69,0,0,0-.23.13A.41.41,0,0,0,104.4,488.36Z"/><path class="cls-1" d="M122.28,509l-.23-.05A.28.28,0,0,0,122.28,509Z"/><path class="cls-1" d="M92.6,475.33l.07,0-.83-.91Z"/><path class="cls-1" d="M80.88,534.69l.34-.2A1.12,1.12,0,0,0,80.88,534.69Z"/><path class="cls-1" d="M113.4,516.87a1,1,0,0,1-.33.41C113.29,517.17,113.44,517.06,113.4,516.87Z"/><path class="cls-1" d="M90.12,464.75l.08.62C90.31,465.25,90.31,465,90.12,464.75Z"/><path class="cls-1" d="M76.53,453.11a.62.62,0,0,0,0,.1S76.55,453.16,76.53,453.11Z"/><path class="cls-1" d="M80.32,459.15a2.58,2.58,0,0,0,.47.24C80.63,459.25,80.44,459.06,80.32,459.15Z"/><path class="cls-1" d="M81,459.5l-.23-.11C80.89,459.48,81,459.55,81,459.5Z"/><path class="cls-1" d="M80.56,453.31a3,3,0,0,0,0-1.5Z"/><path class="cls-1" d="M35.72,561.23l0-.19A.68.68,0,0,0,35.72,561.23Z"/><path class="cls-1" d="M77.71,451.51l.2-.31A.91.91,0,0,0,77.71,451.51Z"/><path class="cls-1" d="M97.46,470.77c.63.1,1.05,1.17,1.3.91C98.34,471.33,98,470.58,97.46,470.77Z"/><path class="cls-1" d="M16.32,589.14l-.58.36C16,589.35,16.17,589.24,16.32,589.14Z"/><path class="cls-1" d="M77.71,451.51l-.24.36.22-.05A.65.65,0,0,1,77.71,451.51Z"/><path class="cls-1" d="M36,556.27h0v0Z"/><path class="cls-1" d="M38,553.76l-.2.65A.85.85,0,0,0,38,553.76Z"/><path class="cls-1" d="M80.6,451.81l0-.86A2.48,2.48,0,0,0,80.6,451.81Z"/><path class="cls-1" d="M52.7,523.15a1.71,1.71,0,0,0-.09.3A.71.71,0,0,0,52.7,523.15Z"/><path class="cls-1" d="M115.56,515.84a1.43,1.43,0,0,0,.28-.07C115.82,515.68,115.77,515.64,115.56,515.84Z"/><path class="cls-1" d="M100.6,536.28h0Z"/><path class="cls-1" d="M101.43,535.24a1.65,1.65,0,0,0-.83,1A1.86,1.86,0,0,0,101.43,535.24Z"/><path class="cls-1" d="M98.2,537.47l.15,0A.37.37,0,0,0,98.2,537.47Z"/><path class="cls-1" d="M120.11,525.34s0,0,0,0v0Z"/><path class="cls-1" d="M115.87,527.92a1.21,1.21,0,0,0-.37,0A.7.7,0,0,0,115.87,527.92Z"/><path class="cls-1" d="M88.13,544.68v0l0,0Z"/><path class="cls-1" d="M49.36,570.89c3.92-2.58,8.76-6.33,12.87-8.52.48-1.18,1.73-2,2.92-2.85l.65.79.9-.91c.59,0-.72.65.24.53l.08-.78c.27.26,2.85-1.42,1.44.27L72.6,557c.92-.52.1-1.05,1.23-1.44.36.14-.26.4,0,.66,3.42-1.14,2.5-3.78,5.56-5.06l-.17.26c.34-.52,1.27-1,1.21-1.16-.89-.67-.22.78-1.39.77-.37-.79.83-1,.44-1.57.82-.13,1-.78,1.51-1.17,1.26-.11,2.47-1.28,3.56-1.14.34-.52.45-1.57,1.46-2.21,1.09.14.16.66,1.3.28l-.1-.53c.87-.43.81-.23.91,0,.89-.5.38-1,1.65-1.41l-.37.79a10,10,0,0,1,2.27-1.42c.12.26-.34.52-.72.65,1,.27.9-.91,1.27-1-.2-.13-1,.25-.91-.4.61-.26.86-1.31,1.57-1l-.38.79c1-1,.32-.92,1.77-1.56,0,.08,0,.17.07.27.53-1.06,2-1.22,3.25-1.94l-.17.26c.43-.45.48-1,.77-1.14-.87.19-.75-.06-1.06-.44,1.38.15,1-1.69,2.79-2.2a.61.61,0,0,1-.67.78c-.1,1,.21,1.71-.54,2.62.49-.52,1.13-1,1.16-.64l-.22-.79c.35-.23.66-.36.93-.52-.1-.52-1.14-.27-.48-1,.81-.78.91.4.88,0,1.13-1,.1-1,1.47-1.56-.09.13-.26.39-.4.39,1-.25,2.11-1.42,2.86-.75,0,.26.1.52-.28.65l-.06-.13c-.63,1.17.72-.65.85.27-.33-.4,1-1,1.6-1.3l-.48-.39c1-2.62.49,1.05,2.23-.24,1-1-.53.12,0-.66.85-.39,1.41-.11,2.45-1,.44,0,1.26-.12,1.65.41.57-.65,2.3-1,2.38-1.81-1.49.24-.86,1.3-2.71,1.41l.07-.78A20.71,20.71,0,0,1,115.5,528c-.21,0-.35-.13-.33-.3,1.27-1,1.35-1.82,2.8-2.46.48.4-.37.78-.92,1.17,1.12-.11.94-.51,2.39-1.15.33.4-.93.51-.83,1l1.42-1s0,0,.06.09c-.22-.87,1.18-.62,2-1.38A4.48,4.48,0,0,0,124,522c.16-.31.28-.62.41-.93a3,3,0,0,1,.61-1c.58-.07.85,0,.78.31-1,.14-.7.32-.83.66,1-.68,3-.78,2.53-.13,1.71-1.3-1,.05,0-.82l2.51-1.43c-.68-.1-1.56.31-.65-.62a22.52,22.52,0,0,1,2.82-1.68c0,.23,1.17.08.1.68.85-.31,2-.94,1.83-1.36-1,.35-.48-.05,0-.48s.9-.88-.07-.7l1.94-.69c-.33.19.05.3-.56.56,1.36,0,.93-.76,1.3-1.06.28-.11.69-.3,1.11-.49-.28-.39-.54-.77-.36-.8-.66-.41-1.34-1.31-1-1.49-.75-.58-.66-.05-1.12-.21l-1.78-1.89c.37-.16,1.45-.52,1.93-.22-1.2-.74-1.61-.09-2.67-1.22,1.48.49-.91-1.71,1-1-.13-.87-2.28-3-3.56-4.07-1.14-.36.94,1.42.34,1.63-3.32-3.08-4.08-1.59-5.36-3.29l.24.48a3.66,3.66,0,0,0-1.8-.77c.75-.26.4-2.35-1.12-3.68-.38.13.3,1.29-.34,1.45l-1-.88c0-.11.16-.09.34,0-1-.68-.9-2.25-1.74-1.91l-.11-1.61,0,.66c-.37.13-1.39-.76-1.68-.86a2.66,2.66,0,0,1-1.58-2.14c0,.38-.11,1.28-.95.58.84-.8-1.28-1.92-.83-2.32-.31-.3-.6-1.11-1-.81l.57-.45c-.79.63-1.88-.54-2.86-1.28,1.17-.77-1-.89-.5-2.15-.83.49-1.78-1.29-2.5-.89-.69-.64,0-1.18,0-1.56l-.56-.07c0-.64-1.21-2-1.73-2.91l-1.27-.12,0-.52c-.26,0-.92-.46-.79.12l-.33-.41c-.67.6-.7-.36-1.71-.85-.07-.27.13-.38.38-.3-.37-.38.12-.54.13-1,.1.43-2.48-.22-1.77,1.08-.19.32-1-.08-1.21-.56l.35-.8-1,.16c-.65-.5-.53-1.11-.92-1.64.51.44,2.15,0,.92-1.25a5.81,5.81,0,0,0,1.8.8c-.23-.27-.3-.46.34-.3-1.13-.79-.67,0-1.68-.86.56-.45.47-.88-.18-1.9l.24,1a.39.39,0,0,1-.26,0,.54.54,0,0,1,0,.68c-.18-.19-1.73-.48-1.58-.95.15,1.76-2.27-1.07-2.15,0-.26,0-.94-.6-.75-.92,1.17.42,0-1.18.48-1.41-.44-.15.23,1-.36.8a2.58,2.58,0,0,1-.62-1.53l.29.1-.49-1c-.38.13.26,1.14-.54.59-.07-.28-.87-.83-.64-1,.67,0,.91-.73,1.56-.23-.5-.45-2.06-1.92-1.94-.83l-.55-.59c.14.58.74,2-.46.89l.11-.09L90.27,466l-.07-.61c-.12.14-.37.13-.65-.17.08-.23-.13-.57.1-.75-.87-.84-1.07-.51-1.33-.48-.5-.44-.57-.73,0-.8-.58-.73-1.77-1.81-1.94-2.53-1.1-.65.07.29-.79.12.16-1.65-2.51-3.26-4-4.58-.4,1.16-.47-.31-1.45.13.55.07-.73-2,.73-.92L80,454.7c-.08-.95,1.57.95,1.39-.42-.87-.84-2.29-.56-3-1.86.89-.2-1-.6-.09-.95.41,0,.63.36,1,.6l-.06-.28c-1.69-2.05-1.2.1-2.55-.52-1.2-1.08-.45-1.33-.25-1.66a2.34,2.34,0,0,0-1.17-.94c1,.37.93,1.64.26,1.67.14-1.14-1.63-1.76-2.19-1.83,1,2.3,1.09,1.17,1.88,3.42.41,0,.95-.58,1.62.58-.85-.31-.28.35-.21.6.15-.5.77.51,1.18.66,0,.52-1.3.19-.51,1.26l.94-.58c.25.48-.72.4.23,1-.81,0-.5.74-1.66-.2.58,1.91,2.26,1.59,3.5,2.3-.14-.06-.26,0-.41,0,.41,0,.77.41,1.1.65.46.82-.85-.17-.9.21l1,1a.1.1,0,0,1,0,.08c.38.17.71.36.61.65a9.15,9.15,0,0,0-1.34.05l1.62.57c-.37.13.45,1.34-.5.74l1.7,1.52-.38.65c.47.3.59.21.19-.32.43.68,3.34,1.58,2,2.29,1.68.86,2,1.49,3.75,2.78-1.65-.72.73,2-.73.92.5,1,1.21.56,1.87,1.06.31.76-.44,1-1.21.62l.92.46-.12.09.89.31c.35.91-.39.65.18,1.38l.61-.31.16.71c0-.38.53-.08,1,.37l-.11.09.66.49c-.85-.3.42.63-.17.69a9.84,9.84,0,0,0,1.45,1.34l.16-.46c1.42.9-.42.5.48,1.48l.31-.41c.73,2,2.62,2,3.21,3.37-.65-.5-.93.06-.81,0,1,.74,2.28,2.26,3.6,2.73a2.21,2.21,0,0,0,.39,2.23c.69.64.84.69,1.36.61.43.85,1.93,1.78,1.58,2.19.45-.15.52.64,1.12.75l-.08.23.31-.41c.32,1.95,2.37,1.5,2.81,3.36l-.3-.11.63.35c-.08.24-.38.13-.61.31l2.17,2.35-.17-.72c.51.44,1.18.42,1.5,1.19-1.44-.38.72.78.44,1.34l-.62-.35c.69.63.69.63,1,.22,1,.74-.11,1.27,1.07,1.69l-.54-.59c0-.37.74-.25,1.1.14,0,.14.14.57-.19.32.81.55,1.63,1.76,2.07,1.92.25.48-.13.61-.42.5,1.75,1.15.57.73,2.32,1.88l-.23.18.74.26.27,1.15v-.52a5.16,5.16,0,0,1,1.38,1.28l-.52.07a4.77,4.77,0,0,1,1.28,1.59,3.44,3.44,0,0,0,.5.69,1,1,0,0,0,.58.29c0,.1-.23.08-.33.08.55.08.52.32.46.51s-.11.34.58.46c-.18,0-.31.15-.45.18l.53.14-.65.17q.56,0,1.14-.06a4.74,4.74,0,0,1-.54.31l.42,0c-.53.25-.5.38-.4.52s.25.32-.22.43l1,0a3.7,3.7,0,0,1,1.39.69,7.19,7.19,0,0,1-2.16.71c-.78.18-1.34.28-1.56.73l-.44-.41a3,3,0,0,1,.06.75c-.54-.21-.19-.46-.47-.64a1,1,0,0,0,0,.64.51.51,0,0,1,0,.3c0,.07-.22.3-.56.55-1,.13.08-.54.27-.9-1.2,1-3.16,2.58-4.31,2.88,0,.08,0,.21.07.21a20.31,20.31,0,0,1-3.19,1.93c-.11-.24.12-.43.35-.63-.39.19-1,.33-1.17.75l.13-.66c-.84.39-2.14,1.69-2.62,1.29.21.13.39.53-.31.91-.83-.53-1.68,1.43-3,1.68,0-.26.81-.78.57-.65-.67.12-1,.77-1.3,1.3l0-.4L103,523.44c-.83-.53-2.36,1.55-2.51.89-.93.52,1-.12-.14.66-.5-.14-.95.77-1.2.25l.09-.13-.79.52.22-.79a1.67,1.67,0,0,0-.67,1.7c-.82.12-1.63.9-2.19.63l.17-.26c-1.74,1.29-3.87.48-4.84,2.18-.15,0-.21-.14,0-.27l-1.17.65.06-.53-1.57,1.69-.12-.26a52.46,52.46,0,0,0-4.76,3l.17-.26c-1.54,1.43-1.84.77-3,1.81a.38.38,0,0,1,.07-.19l-1.15.7.11-.39c-.54,1-2.86.75-2.06.89-.35.53-1,1.31-1,1.7-1.25.77-.5-.14-1.4.11-.93.52-.84,1-2.21,1.56l-.12-.27c-.56.39-.81.78-1.6,1.3l.17-.27c-1,1.31-2.07.24-2.46,2-.67.12-1.63.9-1.87.37-1.45,1.29-2.64,2.2-4.15,3.36-.74-.66-.31.26-1.58.38l.33.4c-2.26,1.42-5.55,1.9-8,3.59l-.33-.4-.23.78c-2.85,1.42-6.49,3.34-8.67,4.63a7.63,7.63,0,0,1-2.58,2.34l.09-.14c-.92.72-1.87,1.43-2.87,2.09-.51.33-1,.65-1.57,1l-.82.43a3.84,3.84,0,0,1-.37.18h-.11c-.07-.21-.17-.33-.2-.47.17.55-.19.14-.23.15s.13.22.2.33c0,.54-.3.2-.36-.2a4,4,0,0,1-.13.71,1.07,1.07,0,0,1,0-.23l0,.34a6.23,6.23,0,0,1,0-.76c0,.19-.24.5-.56,1.44,0-.28-.06-.43.12-.68a2.21,2.21,0,0,1-.47,0,2.77,2.77,0,0,0-.09.33c-.33.79-.88,1.49-.83,1.19a13.5,13.5,0,0,0,1-1.85c-.33.51-.36.73-.65,1.23s-1,1.19-.8.81l.32-.43c-.43.47.6-1.16.46-1a22.81,22.81,0,0,0-1.53,2c-.54.53.83-1.19.9-1.33-.76.94-.64.56.19-.45-1.23,1.48-1.2,1.32-1,1.05s.46-.63-.76.72l1.24-1.44c-.68.73-2.21,2.4-2.69,2.82.6-.72,1.91-2.08,2.62-2.85l-2.81,2.92c.17-.21.22-.31.49-.61a28.07,28.07,0,0,0,1.94-2.42,8,8,0,0,1,1.61-1.73,1,1,0,0,1-.52.06c-.12,0-.13-.21.07-.43l.18,0q.28-.23.54-.39a6.21,6.21,0,0,0-.77.39c-.12,0-.35-.05-.28-.15.43-.32.84-.55,1.07-.72a.92.92,0,0,0,.14-.13l.05-.06.19-.37a19.35,19.35,0,0,0,1-2.4c-.07-2.52,1.65-.78,1.84-3.07,0,.21.14.35.17.55A38.56,38.56,0,0,0,39.45,548c1,.79.65-1.33,1.13-.86l-.36-.39c.51-.31,1.15-1.33,1.39-1l-.09-1.18.49.16c.64-1.17,1.55-3.92,2.79-4.08.82-3.29,3.32-7.86,5.33-11.49a6.07,6.07,0,0,1,.75-2.68l1-.65c.25-1,0-2.2.75-2.83a.17.17,0,0,1,.09.16c.31-.94,1-1.63.9-2.7.49-1,1.22-1.75,1.59-1.21-.87-.53,1.1-2,1.1-2s6.47-12.16,12.57-26.34,11.86-30.34,11.7-37.59c-.3-.6-.15-1.87-.87-1.64.17-1,1.16-1.06.76-1.41-.79,1.09-1.06-.84-2.1.12l.18-.81c-.27-.28,0,1.18-.56.76l.79.56a1.92,1.92,0,0,1-1.07.93c.11.71,1.14,1.54.09,2.73l.09-.41c-.41,1.14-.83.47-1.06.65l.1-.25-.81.78c.58-.6.34-2.07.15-1.42-.78,1.24.34-.27,0,.78-.2.64-.59.28-.85.15L75,456c-.39-.2.32-.73-.28-.44l-.13,1.58c-1.12-.14-.12,1.73-1.34,2,.17-1.11-.38,0-.65-.34l-.94,2.5c-.24.18,0-.78-.15-.38-.47.35-.06.87-.17,1.12-.37.1-.74,1.85-1.38,1.51-1.13,1.49.57,1.05-.45,2.46-.49,0,.4-1.28-.3-.76l-.52,1.68c-.13-.23-.53-.58-.19-1.15-2.36,4.14-5.45,5.61-6.6,9.8-.73.36-.16-.54-.31-1.07-.58,3.15-2.78,3.59-3.76,6.06l.38.21c-2.73,2.86-3.74,7.28-6,10.86l.49-.33a7.43,7.43,0,0,1-.3,2.27c-.24,0-.64-.83-1,.35.25-.17.61-.57.74-.34-2.49,2.82-5.38,9.83-8.39,14.94C40.77,515.86,36.2,523.27,33,530.4c.5-1.08,1.24-.15.61.55-2.73,1.38-1.65,3.95-3.89,5.63-1.55,4.34-4.82,7.24-5.55,11.64l-.5-.17c-.5.46-.26.77-.53,1.39l-.12-.09a11.73,11.73,0,0,0-1.08,2.19l-.22.53-.45.91a11.34,11.34,0,0,1-.81,1.41l.5.28c-.77,1.53-.88.69-1.4,2.34l-.27-.09-.43,1.9c-.51-.12-1.14,1-1.79,2.28a17.91,17.91,0,0,1-1.93,3.4c-.45,1-1,2.39-1.74,3.9a41.19,41.19,0,0,1-2.55,4.74c-1.17,1-3.33,4.89-5.24,7.74-1.25,2.35-2.76,5.19-4.41,8.2s-3.45,6.19-5.4,9.46l1.73-1.74-.75,1.42c-.36.35-.67.75-.72.7a10.52,10.52,0,0,0-2.27,3.78c.52-.32,1-.59,1-.43.29-.42.26-.49.06-.37a10.5,10.5,0,0,0-.87.63c0-.07,0-.17.15-.42,1.21-1.65,2.08-2.31,1.6-1.39a2.23,2.23,0,0,1,.34-.15,1.89,1.89,0,0,1,.32-.1l-.41.41,2-1.57c-1.18,1.3-.75,1.32-1.85,2.56,2.71-1.68,5.41-3.57,7.92-5.3A77.06,77.06,0,0,1,11.13,592c-1.42,1.5,3.85-2.45,1.4.16,1.86-1.32,2-1.63,2-1.9s-.13-.54,1-1.63c.79-.45,2-1.47,1.66-.86-.69.69-.07.75-.86,1.33l2.12-1.35c.11,0-.49.54-.8.8a32.09,32.09,0,0,1,5.75-3.37,29.42,29.42,0,0,0,5.45-3.2c.43-.67-1.45.74-1,.06,2-1.62,2.71-1.85,3.46-2.07a8.37,8.37,0,0,0,3.25-1.77l-.78,1c1.21-1.11,1.66-1.87,3.54-2.52.39.44-1.58,1.48-2.53,2.37,1.36-.78,4.72-3,3.59-2.9,1.5-1.11,2.19-.91,3.11-1.28,0-.14-1.58.49-.76-.31.54-.23,1.16-.52,1.82-.86l1.7-.9c.77-.4,1.55-.85,2.24-1.23.06.13.27.26.19.39C47.39,570.74,47.94,571.93,49.36,570.89Z"/><path class="cls-1" d="M120.7,525.09l-.59.25c.06.11.11.25-.07.53Z"/><path class="cls-1" d="M94.35,540.29a1.19,1.19,0,0,0-.11.26C94.36,540.45,94.37,540.36,94.35,540.29Z"/><path class="cls-1" d="M88.52,545c.39-.38-.09-.28-.39-.27A.46.46,0,0,0,88.52,545Z"/><path class="cls-1" d="M137.4,512a1.18,1.18,0,0,0,.56.21A1.1,1.1,0,0,0,137.4,512Z"/><path class="cls-1" d="M101.15,474.53c0,.06,0,.12.07.2A.37.37,0,0,0,101.15,474.53Z"/><path class="cls-1" d="M102.35,477.05a2,2,0,0,0,.43.33A.89.89,0,0,0,102.35,477.05Z"/><path class="cls-1" d="M124.92,521.05a.86.86,0,0,0-.34.41A.74.74,0,0,0,124.92,521.05Z"/><path class="cls-1" d="M103.26,477.68l.42.52.09-.07Z"/><path class="cls-1" d="M100.61,473.88a6.19,6.19,0,0,1,.54.65A1,1,0,0,0,100.61,473.88Z"/><path class="cls-1" d="M121.44,496.85l.06,0C122,497.09,121.74,496.93,121.44,496.85Z"/><path class="cls-1" d="M106,479.05l0,.08.25,0Z"/><path class="cls-1" d="M98.76,471.68a.71.71,0,0,0,.31.16l-.22-.32A.31.31,0,0,1,98.76,471.68Z"/><path class="cls-1" d="M115.1,489.11a1,1,0,0,0-.53.14C114.73,489.4,114.9,489.43,115.1,489.11Z"/></svg>