<svg id="Layer_1" data-name="Layer 1" xmlns="http://www.w3.org/2000/svg" viewBox="0 0 841.89 595.28"><defs><style>.cls-1{fill:#3f3b3c;}</style></defs><path class="cls-1" d="M156.18,392.35l-7.25-9.76-9.25,11.63c-3.08,3.86-6.09,7.82-9.13,11.72l-18.13,23.43,27.39-11.21c4.56-1.85,9.08-3.75,13.67-5.55l13.73-5.4L160,397.44l4.31-3.19c25.54-19,51.53-37.44,77.64-55.69q78.54-54.42,160.33-103.95t166.42-93.89c7.06-3.68,14.09-7.43,21.18-11.05l21.3-10.82,10.65-5.4,10.72-5.28L654,97.63c28.61-13.94,57.41-27.57,87.7-36.54L739.86,55a404.72,404.72,0,0,0-45.2,16.67C679.94,78,665.5,84.92,651.18,91.93l-21.49,10.56L619,107.78l-10.68,5.41L586.94,124c-7.11,3.63-14.15,7.39-21.22,11.07Q480.91,179.56,399,229.19T238.3,333.35c-26.16,18.28-52.21,36.74-77.81,55.81Z"/></svg>