<svg id="Layer_1" data-name="Layer 1" xmlns="http://www.w3.org/2000/svg" viewBox="0 0 841.89 595.28"><defs><style>.cls-1{fill:#3f3b3c;}</style></defs><path class="cls-1" d="M225.72,463.92l-9.6-7.46-5.79,13.77-5.57,13.83L202,491l-2.66,6.94L194,511.72l11.49-9.32,5.73-4.63,5.8-4.56,11.58-9.07,11.69-8.87-9.6-7.46,3.22-4.18q27.45-35.07,57.27-68.18c39.81-44,83-85.06,129.73-121.59a838,838,0,0,1,150.41-94.35c53.33-25.84,109.71-45.55,167.8-57.25l-1.25-6.21c-58.66,11.81-115.55,31.7-169.31,57.76A844.52,844.52,0,0,0,417,268.86C370,305.65,326.54,346.93,286.52,391.2q-30,33.19-57.56,68.53Z"/></svg>