<svg id="Layer_1" data-name="Layer 1" xmlns="http://www.w3.org/2000/svg" viewBox="0 0 841.89 595.28"><defs><style>.cls-1{fill:#3f3b3c;}</style></defs><path class="cls-1" d="M347.13,101a.55.55,0,0,0-.33-.09C347,101.07,347.08,101.08,347.13,101Z"/><path class="cls-1" d="M388.56,190.73l-.61-1A3.28,3.28,0,0,0,388.56,190.73Z"/><path class="cls-1" d="M322,47.4l.12.1c-.39-.83-.91-2-1.77-3.77Z"/><path class="cls-1" d="M507.81,294l-.21.2C507.69,294.08,507.72,294.09,507.81,294Z"/><path class="cls-1" d="M425.31,268.33a9,9,0,0,1,.9,1.43A3.61,3.61,0,0,0,425.31,268.33Z"/><path class="cls-1" d="M311.69,13l.86,2.65A8,8,0,0,0,311.69,13Z"/><path class="cls-1" d="M265.19,56.88a.49.49,0,0,0,.17,0C265.41,56.75,265.32,56.8,265.19,56.88Z"/><path class="cls-1" d="M283.55,42.19c.35-.37.74-.81,1.13-1.26C284.16,41.42,283.49,42,283.55,42.19Z"/><path class="cls-1" d="M285.21,40.32l-.53.61C285,40.62,285.26,40.36,285.21,40.32Z"/><path class="cls-1" d="M269.72,78.53a29.3,29.3,0,0,0-2.7-3.94Z"/><path class="cls-1" d="M514.32,444.93v-.16A.16.16,0,0,0,514.32,444.93Z"/><path class="cls-1" d="M265.78,78.21l-.51-1.12A9.09,9.09,0,0,0,265.78,78.21Z"/><path class="cls-1" d="M328.27,45c1.09,1.4,2.24,4.79,2.55,4.61C330,48,329.09,45.5,328.27,45Z"/><path class="cls-1" d="M476.85,447.6l-1.1-.34Z"/><path class="cls-1" d="M265.78,78.21l.59,1.29a2.63,2.63,0,0,0,0-.47A7.31,7.31,0,0,1,265.78,78.21Z"/><path class="cls-1" d="M365.18,391.23l-.05,0-.26.29Z"/><path class="cls-1" d="M373.76,385.55l-1.7,1.38A8.36,8.36,0,0,0,373.76,385.55Z"/><path class="cls-1" d="M267,74.59l-1.55-2.26A24.09,24.09,0,0,0,267,74.59Z"/><path class="cls-1" d="M393.84,297.43l.56.88A7.82,7.82,0,0,0,393.84,297.43Z"/><path class="cls-1" d="M422,261c-.08-.25-.22-.58-.33-.86C421.58,260.1,421.55,260.18,422,261Z"/><path class="cls-1" d="M467.67,303.94h0Z"/><path class="cls-1" d="M464.07,305.89a13.36,13.36,0,0,0,3.6-1.95A17.7,17.7,0,0,0,464.07,305.89Z"/><path class="cls-1" d="M475.71,300.52l-.45.17A3,3,0,0,0,475.71,300.52Z"/><path class="cls-1" d="M432.85,259.31s0,0,0,0l.05,0Z"/><path class="cls-1" d="M440.16,274.33a9,9,0,0,0,.35,1.11A5.22,5.22,0,0,0,440.16,274.33Z"/><path class="cls-1" d="M517.42,270.22l0,.06.13-.12Z"/><path class="cls-1" d="M527,426.84c-.42-1.88-.92-3.81-1.33-5.82s-.82-4.08-1.25-6.17c-.21-1.05-.43-2.11-.64-3.17s-.38-2.15-.57-3.23q-.54-3.26-1.1-6.53c-.39-2.18-.62-4.38-.92-6.56s-.59-4.33-.81-6.46c-.37-4.26-.81-8.37-1-12.21a35.5,35.5,0,0,1-1-5.93c-.12-1.12-.24-2.29-.32-3.49s-.14-2.42-.21-3.65l1-.55-.43-4.08c.26-1.67.27,3.14.58.19l-.68-1.53c.31-.33.25-10.5,1-3.65v-7.93l.21-7.94c.15-3.5-.84-2.08-.38-5.95.35-.78.13,1.4.52,1.1,1.36-11.59-1.23-13.59.21-24.44l0,.94c-.08-1.88.31-5.39.17-5.45-1.16,1.29.36,2-.58,5.26-.83-.37,0-4.18-.72-4a14.85,14.85,0,0,0,.35-3.25c0-.52,0-.92,0-1.53.05-.77.11-1.55.21-2.4.66-2.93,1.19-6.6,1.71-10.07.26-1.75.51-3.44.81-5.07s.66-3.33,1-4.8c.07-1.42,0-2.68,0-4.3a43.14,43.14,0,0,1,.49-6.71c.09-.35.18-.67.25-.94s.06-.37.1-.53a5.73,5.73,0,0,1,.18-.72c-.28-.18,1.7-2-2.09,1.11l-1.43,1.93a31.74,31.74,0,0,1-3.18,2.55c-.29.16,0-.22.18-.54-2.37,2.05-3.48,3.24-4.67,4.44a48,48,0,0,1-5.28,4.59l3.41-3.54a118.22,118.22,0,0,1-12.28,9.88c0-.17.63-.7,1.48-1.36s1.93-1.5,2.84-2.15a21.82,21.82,0,0,0-4.4,3.19c-.28.24-.64.55-.81.72l-.4.44a3.83,3.83,0,0,1-.79.69,14.78,14.78,0,0,0,1.52-.69c.87-.47,1.49-.73.62.19l-.45.3-.33.24-.65.53-1.26,1.09a6.46,6.46,0,0,1-2.45,1.44l1.7-1.7c-3.55,2.8-1.65,1.89-6.14,4.45.22-.18,0-.21.08-.36a22.81,22.81,0,0,1-4.69,3.08l-6.09,3,.75-.53c-1.65,1-2.41,1.94-3.38,2.34,2.61-.93,2-.5,2.44-.17-3.64.87-4.61,3.37-10.36,5.25,0-.3,1.19-1.15,2.81-1.55,1.53-1.61,1.47-2.35,4.55-4.27-1,.57-2,1.17-2.82,1.55s-1.3.52-1.12.24l-.32,1c-1.24.56-2.24,1-3.2,1.35-.35.69,2.89-.29.07,1.22-3.23,1.59-2.07,0-2.45.51a13.3,13.3,0,0,0-3.06,1.71,3.77,3.77,0,0,1-.85.47,8.57,8.57,0,0,1-.86.31l-.63.19-.36.11-.2.05-.13,0,.1-.07.2-.1.46-.22a3.6,3.6,0,0,1,.83-.29c-.42.1-.85.22-1.3.35l-.87.26c-.51.15-1,.33-1.52.45a4.64,4.64,0,0,1-1.21.21.56.56,0,0,1-.35-.09,1.58,1.58,0,0,1,0-.57.76.76,0,0,0,.16-.06.43.43,0,0,0,.18-.14.93.93,0,0,1,.56-.27l-.07.17c.89-.64.53-.48.09-.32a2.3,2.3,0,0,1-.34.12l-.16,0c-.05,0,0-.09-.06-.13a.51.51,0,0,1,.14-.55c-.11.35-.37.05-.65-.48-.14-.26-.27-.56-.4-.85s-.25-.64-.35-.87l-.05.22a1.7,1.7,0,0,1-.1.14l-.19.28-.13-.11a.58.58,0,0,1-.16-.16l-.36-.46c-.22-.28-.4-.53-.55-.73a4.86,4.86,0,0,1-.55-.9c-.17-.39,0-.43.27-.48.48-.11,1.13-.29-.55-3.52-2.36-4,.61,1.64-1-.73-1.26-2.86-1.3-4.13-3.51-8.13-.35-1.25-1.19-3.72-.7-4.2-1.44-2.39-3.4-7.72-4.66-8.87,1.57,4.51,2.68,4,4.32,9.33l-1.25-1.13c-1.64-3.47-4.07-7.76-5-10.24.12.53.08.82-.19.57-2.59-4.82-3.86-6-6-10.84.22-.88,1.48,2,2.52,4-1.07-3.29-1.53-3.25-3.67-8.12.34-.48,1.53,3.24,2.24,3.58l-2.7-5.25s.06,0,.09,0c-1.14-.4-1.88-4.08-3.68-7.22-3.71-7.69-5.31-8.37-8-12.33-.34-1.25-.31-1.68.12-1.29.57,2,.67,1.59,1.19,2.15-1.33-2.56-2-6-1-4.74-2.22-4,.31,1.68-1.15-.73l-2.67-5.67c-.08.86.8,2.89-.91.1-1.3-2.41-1.8-3.64-3.33-6.87.42.37.11-1.31,1.25,1.12-.6-1.62-1.75-4.07-2.59-4.82,1.34,3.7-3.13-5.62-2.47-2.7l-1.34-3.69a15.79,15.79,0,0,1,1.18,2c.11-1.29-1.56-2.8-2.21-4-.49-1.29-2-4.54-1.89-4.92a14,14,0,0,1-1.83-4.48c-.92-1.61-.45.05-.88-.34L400,195.22c.19-.46.88-1.37,1.42-.58-1.34-2-1.35-.3-2.87-3.53,1.53,1.54-1.56-4.5.49-2.19-.42-2.07-3-7.33-4.55-10.15-1.37-1.56,1.23,3.27.62,3.34-4.12-8.06-5.8-7.87-8.43-14l.6,1.62a33.34,33.34,0,0,0-3.32-5.17c1.14.73-.31-5.07-3.4-11.14-.58-.36,1,3.73,0,3l-2.06-4c-.09-.32.23.08.57.56-2-3.54-2.44-7.2-3.71-7.89l-.84-4.16.3,1.66c-.56-.35-2.63-4.4-3.16-5.18a27.3,27.3,0,0,1-3.52-8.15c.08.85.35,3-1.33-.28,1.06-.47-2.94-7.08-2.35-7.25-.66-1.32-1.47-3.83-2-3.78l.76-.09c-1.06.13-3.35-4.73-5.3-8.36,1.64.25-2.06-4-1.72-6.21-1.18-.29-3.51-6.42-4.54-6.73-1.42-2.84-.5-2.93-.58-3.78l-1-1.18c-.3-1.63-2.82-7-4.09-10.33l-2.17-2.61-.19-1.26c-.42-.38-1.72-2.79-1.26-1.14l-.72-1.62c-.88.26-1.31-2.14-3.21-5.19-.23-.8.06-.7.51-.05-.77-1.6,0-1.12-.17-2.12.34,1.23-4.23-5.07-2.51-.57-.19.45-1.65-2-2.26-3.59l.27-1.31-1.68-1.52c-1.3-2.41-1.34-3.68-2.22-5.72,1,2,3.59,3.87,1-1.4a52.44,52.44,0,0,0,3.34,5.26c-.5-1.11-.69-1.69.43-.14-2.21-4-1.11-1.16-3.16-5.19.75-.09.41-1.33-1.08-5l.81,2.89a1.57,1.57,0,0,1-.42-.43c.41,1.05.45,1.38.3,1.72-.38-.81-3.08-4.34-3-5.21,1,4.59-4.23-6.77-3.58-3.86-.41-.37-1.83-3.2-1.64-3.65,2.14,3.17-.5-2.93.22-2.59-.79-1.18.81,2.91-.26,1.31a22.65,22.65,0,0,1-1.68-4.92l.53.79-1.22-3.28c-.57-.36.91,3.31-.65.5-.23-.83-1.8-3.64-1.49-3.68,1.11,1.16,1.22-.12,2.52,2.29l-1.09-2.14-1.53-2.89c-1.25-2.34-2.07-3.59-1.4-1.43l-1.7-3.58c.45,1.28,1.3,3.52,1.58,4.53s0,.87-1.6-2.38l.13-.06-2.51-4-.77-2.46c-.06.32-.47-.15-1.25-1.8l0-.14c-.32,0-1.49,1-1.34.46-4.14,3.83-3.73,4-4.21,4.68-2.15,2-3.06,2.65-2.18,1.27l-5.18,4.62a37.56,37.56,0,0,1-3.87,3.12c-2.85,3.05.74-.46-.73,1.54-3.51,1.49-10.48,8.91-15.39,13.6,2.1-.43-1.29,1.34-1.53,2.93.85-1.25-5.34,3.71-1.16-.53l-2.6,2.53c-2.24,1.23,4.13-4.37.8-2.46-3,2.76-4.14,5.45-7.95,8.38.66-1.66-2.55,2.68-2.24,1.24a18.12,18.12,0,0,1,2.54-2.67l-.72.45c-6.74,5.84-1.28,2.42-4.37,6-3.95,3.74-3.58,2.44-4.06,2.38a25,25,0,0,0-3.59,3.5c2.13-2.58,4.86-3.77,4.07-2.37-2.37,1-6,5.38-6.86,6.63,6.36-4.53,4-3.59,10.06-7.75.55-.89-.11-1.36,3.34-4.07-1.76,2.15.44.21,1.1-.22-.93.23,2.11-2.19,3-3.23,1.15-.54-1.22,2.55,2.17-.29L270.22,52c1.39-1,0,1.09,2.54-1.59-1.09,1.76,1,.24-2.54,3.74,5-3.34,6.42-6.54,9.58-10-.31.37-.25.51-.55.88a23,23,0,0,1,2.85-3c2.42-1.88-1.46,2-.67,1.67l3.64-3.36c.1,0,.13,0,.14,0,.86-1,1.71-1.9,2.23-2-.85,1.25-1,1.91-1.58,2.79L289.19,37c-.18.64,3.58-2.44,1,.24L295.8,32l1,.1c1.27-1.34,1.21-1.48-.47-.06,2-1.63,7.81-8.86,7.55-6.67,1.2-1.37,2.25-2.48,3.26-3.49s2-1.94,3.16-3.06c.64,1.23,1.41,2.7,2.49,4.66-1.36-2-.77-.35-.3,1s.92,2.59-.24.52c1,2.83,1.79,2.65,3.17,5.21.84,2.46-.31,1.74-1.76-.66l1.72,2.81h-.15l1.6,2.39c1,2.88-.38.89.88,3.74l.88.33.57,2.06c-.07-.84.84.76,1.87,2.77l-.15,0,1.3,2.42c-1.53-2.27,1,2.32,0,1.4,1,2.13,1,2.17,3,5.94l.07-.86c2.75,4.81-.49.49,1.43,4.54l.33-.47c2,6.18,5.19,9.65,6.76,14.18-1.29-2.41-1.52-1.54-1.37-1.55,2,3.62,4.74,9.71,7.14,13.27,0,1.72,0,2.14,1.57,6.22,1.42,2.84,1.69,3.23,2.52,4,1.08,2.89,4,7.91,3.55,8.27.7.46,1.13,2.53,2.19,3.9l-.05.42.35-.46c1.34,5.4,4.58,8,6.08,13.4l-.54-.79,1.19,2c0,.42-.58-.36-.89-.34l4.59,9.74-.57-2.08c1,2,2.14,3.18,3,5.65-2.56-3.55,1.53,3.23,1.3,4.11l-1.18-2c1.41,2.82,1.41,2.82,1.76,2.36,1.93,3.61.34,2.95,2.47,6.12l-1.14-2.43c-.08-.85,1.14.71,1.9,2.33.12.42.47,1.67-.19.46,1.58,2.82,3.44,7.29,4.24,8.48.62,1.64,0,1.28-.49.49,3.4,6,1.27,2.84,4.67,8.87l-.31,0,1.34,2,.91,3.31-.19-1.25a59.38,59.38,0,0,1,2.83,5.65l-.85-.77c3,5.65,2.57,7,5.74,12.17.11.41-.42-.38-.69-.79,3.05,4.78,1.16,4.16,4.36,8.91-.28-.26-.18.38-.38.23l1.37,2.2-.61.08,1.68,1.52.15,1.69.69.78c.19,2.95,2.64,6.1,3.52,9.85l.38-.9c5.49,7.9,8.68,19.93,14.29,30l-.61.06,2.67,4c.69,2.48-1.11-1.17-1-.32,2.49,4.42,1.68,1.53,4.39,6.76,1,2.89-.84-.76-1.64-1.95,2.65,4.85,6.48,12.05,7.89,15.72.11,0,.31.21.25,0,1.83,3.2,3.71,7.69,5.5,11.33-.28,0-.76-.86-1.24-1.75a24.28,24.28,0,0,0,2.08,4.21l-1.11-1.16c1.26,2.85,4.28,8.05,4.05,8.93,0-.43.5-.48,1.64,2-.15,1.72,3.52,6.43,5,10.52-.42-.37-1.83-3.2-1.45-2.39a22.74,22.74,0,0,0,3,5.21l-.58-.37,4.82,8.85a5.37,5.37,0,0,0,.58,2.05c.19.44.41.9.65,1.38s.59,1.18.89,1.76c1.55,3.09,2.91,5.67,2.45,5.46,1.31,2.68.81,1.45.43.42s-.65-1.87,1,1.33a13,13,0,0,0,.74,1.8c.14,1,1.08.31,1.7.2,1.32-.43,2.36-.75,2.14-.38l-.78.32,5-1.61-3.25,1.6a41.9,41.9,0,0,0,5.5-2.21,14.22,14.22,0,0,0,1.53-.87c.2-.2.31-.36.31-.47,2.63-.58,6.09-2.18,7.4-2.18l-.87.5c6.87-3,12.12-3.57,17-7.19.42-.15.45,0-.38.44l4.12-2.2-.77.9c1.09-.7,2.14-1.45,3.2-2.2s2.12-1.48,3.15-2.26l.06.3c2.21-1.28,5-3.06,7.78-5l1.06-.76.53-.39.15-.1,0,0,.43-.35.87-.75-.18.31c.63-.76,1-1,1.13-1s.25,0,.83-.68a2.53,2.53,0,0,1-.23.34l.25-.21s.09-.11.09-.07l0,.14,0,.29-.34.41c.36-.37,0,.58-.27,1.14s-.58.95-.25.5c.14,0,.29-.11.42.18s.29.42.47.4c-.1.91-.21,1.06-.35,1.13s-.3.09-.49.6a3.31,3.31,0,0,0,0,.68l0,.29,0,.15c0,.14,0,.29,0,.44a37.76,37.76,0,0,1-.5,5.05l-.28-.13c-.17,2.3-.14,3.74-.38,6.93l-.06-1c.2,5.26-1.35,6.44-.41,10.63-.39,2.17-.41,6.34-1,6.11,0,6.52.07,11.6.13,18.07-.95,1,.06,1.39-.49,5.31l.51-.29c0,9.14-.87,19.71,0,29.82l-.49.32.73,2a302.81,302.81,0,0,0,3.66,33.57c.39,1.38.92,3.12,1.44,5.06.26,1,.51,2,.74,3.06s.49,2.16.68,3.28l-.17-.45c.48,1.91,1,3.86,1.46,5.83.24,1,.48,2,.73,3l.81,3c.26,1,.52,2,.79,3l.19.75.07.3a7.82,7.82,0,0,1,.18,1.14c-.29-.24-.44-.24-.65-.46.39.32.47.57.43.67s-.18.09-.16.19a1.45,1.45,0,0,0,.45.2c.37.48.63,1,.09.59a5.17,5.17,0,0,1-1-.87.65.65,0,0,1-.2.51,1.09,1.09,0,0,1-.23-.3,2.53,2.53,0,0,1,0,.28,4.62,4.62,0,0,1-.5-.86,1.39,1.39,0,0,1-.5.13l0,0s0,0-.15,0l-.57-.12-1.11-.21a8.56,8.56,0,0,0-1.74-.14c-.28-.33-3.6-1.59-.95-.86l-13.12-4.46,2,.89c.1.57-4-.41-5.93-1.3,2.81.48.44-.61-.59-1.34-1.88-.32,1.42.93.39.89a45.3,45.3,0,0,1-8.3-2.39l1.41.24c-3.12-.81-4.26-2.11-7.28-3.05-2.83-.49-4.72-1.49-4.43-.48-4-1.1-1.32-1-2.56-1.55-2-.2-7.35-2.23-7.92-2.88-2.53.53-10.39-3.85-11.52-3.09l-3-1.62c-.19.24-1,.65-3.67-.08-2.36-1.09-1.62-1.38-2.27-1.91l-2,.49c-13.78-5.68-32.67-11-47.87-16.94-7-2-15.86-4.38-23.88-7.14l.94.16-4-1.44-2-.72-.21-.08,0,0-.05,0-.1-.07.12.17s0,0,.06.05l.35.15.71.29,2.84,1.19-2.49-.59-1.19-.3-.31-.09-.13,0h0l-.13,0c-.42-.26-.78-.5-1.07-.7l-.4-.29c-.1-.09-.37-.14,0-.31a7,7,0,0,0,1-.75l.34-.31.4-.38.2-.2.11-.1.4-.34,1.6-1.36c2.45-2.72,3.61-3.19,4.72-3.64a12.63,12.63,0,0,0,4.76-3.2c-.42.44-.49.71-.85,1.12,5.8-4.65,9-7.08,14.93-11.67-.08,1.49,4.12-2.57,3.89-1.67l.27-.74c1.59-.58,5-2.48,4.69-1.87l2.55-2.16.5.31,3.5-1.95c1.32-.75,2.77-1.53,4.19-2.23.7-.36,1.4-.7,2.06-1,.34-.16.67-.3,1-.43l.47-.2.25-.1.41-.18a33.41,33.41,0,0,1,5.32-2l7.37-3.79,2-1,.25-.13s-.08-.16-.1-.23l-.3-.5c-.21-.33-.41-.67-.61-1l-2.46-4.1-8-13.44c-3.77-6.45-7.57-13.28-11-19.32a61.88,61.88,0,0,1-5-7.69l-1.15-3.23c-1.77-2.69-4.13-5.27-5.29-8.06.08,0,.18.06.32.23-1.74-2.77-3-5.63-5-8-1.75-3.12-3.2-6.3-2.16-5.64-1.05.2-3.64-6.65-3.64-6.65L335.7,191.92c-25.14-45-53-94.9-66-113.39-1.15-1.09-3.41-4.61-3.18-2.92-1.69-2.75-1.61-4.47-2.35-4.79,1.78,4-1.78-.58-.3,3.48l-1.41-2.36c-.58-.33,2.13,3.1,1.24,2.81l1.19.24a14.52,14.52,0,0,1,1.42,4c1.31,1.67,3.06,2.25,4.94,6.91l-.71-1.18c2,3.56.65,2.48.92,3.3l-.42-.8,1.21,3.24c-1-2.43-3.65-5.85-2.54-3.9,2.07,4.4-.39-1.21,1.43,1.94,1.11,2,.37,1.64.07,1.69l2,3.56c-.45.08-1.26-2.38-.87-.72l2.83,4.28c-.51,1.36,3.11,4.65,3.31,7.2-2-3.12-.17.46-.76.12l4.34,7.89c.27.82-1.43-1.92-.72-.74.54,1.63,1.56,2.32,2,3.13.11.83,3.22,5.9,2.46,6,2.49,5.6,2,1.82,4.39,7,0,.87-2.26-3.92-1.45-1.48l3,5.11a5.78,5.78,0,0,1-2.16-2.66c7.13,14.31,9.23,23,16.78,35.5.54,2.06-1-1.12-2-2.24,5.72,8.93,6.17,13.59,10.59,21.45l.45-.07c4.91,11.64,12.95,24.47,19.4,37.13l-.57-1.63a72.53,72.53,0,0,1,4.21,6.17c0,.42-1.63-1,.54,2.49-.28-.82-1-2.41-.56-2.07,5,11.2,17.85,33.49,27.29,51.17,6.84,11.7,13.74,24,20.64,36.28l10.32,18.26,5.14,8.93,2.57,4.39,1.27,2.17.32.53,0,.06.08.11a.22.22,0,0,1,0-.13.19.19,0,0,1,0-.07v0a1,1,0,0,1,0-.14c-.11-.36,0-.48.14-.41a1.2,1.2,0,0,1,.34.25c.09.05.13,0,.19.08a.47.47,0,0,1,.23.34c-.26.47-.42.61-.41.78s-.05.06-.1.08a.46.46,0,0,0-.14.07.93.93,0,0,0-.21.19,3,3,0,0,1-.25.24l-.09.07,0,0,0,0-.15.08-1.3.65a47.71,47.71,0,0,1-5.68,2.49c-6.88,4-13.48,7.61-19.79,11.47a115.76,115.76,0,0,0-17.8,12.95l-.54-.24c-1.91,1.14-2.18,1.78-4,3.25l0-.15q-.84.61-1.68,1.26l-.91.71-1.44,1.2-5.61,4.73c-3.69,3.29-6.89,6.15-9.26,8.05l.65.2a38.36,38.36,0,0,1-3.61,2.92c-.36.27-.71.53-1.21,1-.25.22-.54.48-.89.81l-.13.12s.12.05.18.07l.45.13,1.05.31-.71.06,7.39,1.94c-.53.09.15.46,1.55,1,.7.28,1.58.59,2.57.93L348,406l7,2.21c1.09.35,2.1.68,3,1,.53.18.6.22.83.31a4.73,4.73,0,0,1,.5.24c4,1.09,11.51,3.08,17.37,5.2.94.85,8.21,3.2,12.75,5,9.06,2.81,22,6.83,33.41,10.72v-.69l3,.93c-.09.13.29.33-.18.25,2.09,1.46,7,2,9.25,3.25-1.33-1.06-2.07-.77-3.78-1.34-2.36-1.1.18-.94,3.4.45l-.11.11,2.37.41c.1.57,2.08,1.46,2.19,2,9.9,3.09,16.89,4.43,27,8-1.23.2,7.36,2.24,5,2.52,6.23,1.62-.76-1.09,2.25-.85,1.7.57,3.57.89,3.77,1.34-.88,0,1.2,1-.22.66l4.11,1.25c.37.2-.57,0-1-.05,8.5,2.16,14.55,5.4,22.19,7.27.67-.16-2.93-1.05-2.27-1.22a31.79,31.79,0,0,1,7,2.26l1.17.53.64.27.17.07.31.11.69.24c1.89.66,4.27,1.42,7.49,2.33l-2.66-.34c2.16.52,3.63.8,5.43,1.28a72.94,72.94,0,0,1,7.57,2.55c1.78,1.19-5.61-1.32-9-2.14,2.5.83,6.92,2.23,10.11,3.15s5.1,1.38,2.93.39c1.39.4,2.58.79,3.67,1.16l.79.29.39.14c.11,0,.31.16.22,0l-.25-1.18c-.29-1.47-.43-2.59-.78-4.12a11.8,11.8,0,0,0,.26,1.95c.12.81.08,1.15-.59-.71-.88-3.69-2.22-8.67-3.67-13.93-.37-1.33-.75-2.68-1.13-4l-.58-2.05c-.17-.68-.33-1.36-.5-2-.41-1.68-.82-3.33-1.2-4.87.15,0,.28-.4.46,0C527,432.3,528.37,432.42,527,426.84Z"/><path class="cls-1" d="M432,257.32l.86,2c.11-.05.29,0,.85.81Z"/><path class="cls-1" d="M489.12,292.67a7,7,0,0,0,.55-.53C489.25,292.43,489.15,292.57,489.12,292.67Z"/><path class="cls-1" d="M516.84,270.16c-2.62,2.44-.47.78.58.06C517.58,269.93,517.66,269.67,516.84,270.16Z"/><path class="cls-1" d="M405.36,205.7c.22.31.38.49.47.38C405.51,205.67,405.39,205.6,405.36,205.7Z"/><path class="cls-1" d="M336,61l.19.61A2.45,2.45,0,0,0,336,61Z"/><path class="cls-1" d="M339,69.38c.18.39.45.89.86,1.59A9.83,9.83,0,0,0,339,69.38Z"/><path class="cls-1" d="M422.46,240.64a8.65,8.65,0,0,0,.9,1.44A6.15,6.15,0,0,0,422.46,240.64Z"/><path class="cls-1" d="M340.81,72.58l.92,2a.26.26,0,0,0,.12,0Z"/><path class="cls-1" d="M334.83,58.41c.36.79.87,1.86,1.16,2.57A11.52,11.52,0,0,0,334.83,58.41Z"/><path class="cls-1" d="M379.09,153l.11.21C380.19,154.64,379.62,153.7,379.09,153Z"/><path class="cls-1" d="M346,81l.11.28.43.52Z"/><path class="cls-1" d="M330.82,49.59a6.2,6.2,0,0,0,.59,1c-.14-.32-.3-.69-.5-1.17C330.9,49.52,330.87,49.57,330.82,49.59Z"/><path class="cls-1" d="M365.29,122.31c-.47-.47-.7-.62-.81-.6C364.81,122.38,365.1,122.77,365.29,122.31Z"/></svg>