<svg id="Layer_1" data-name="Layer 1" xmlns="http://www.w3.org/2000/svg" viewBox="0 0 841.89 595.28"><defs><style>.cls-1{fill:#3f3b3c;}</style></defs><path class="cls-1" d="M619.63,209.39a.58.58,0,0,0,0-.39C619.54,209.26,619.55,209.37,619.63,209.39Z"/><path class="cls-1" d="M536.8,304.87l.82-1.22A5.4,5.4,0,0,0,536.8,304.87Z"/><path class="cls-1" d="M671.5,154.2c-.06.09,0,.11-.08.17l3.73-3.8Z"/><path class="cls-1" d="M443.19,528.77l-.95-1.41C442.66,528,442.91,528.43,443.19,528.77Z"/><path class="cls-1" d="M468.46,390.83a15.69,15.69,0,0,1-1.16,1.81A5.5,5.5,0,0,0,468.46,390.83Z"/><path class="cls-1" d="M692.33,125.3c.63.76,1.24,1.51,1.82,2.24C694.27,127.42,693.67,126.61,692.33,125.3Z"/><path class="cls-1" d="M629.75,79.75a.61.61,0,0,0,.12.18C630,80,629.9,79.87,629.75,79.75Z"/><path class="cls-1" d="M653.87,97.72c.54.36,1.19.75,1.84,1.15C655,98.34,654,97.64,653.87,97.72Z"/><path class="cls-1" d="M656.59,99.4l-.88-.53C656.17,99.2,656.56,99.47,656.59,99.4Z"/><path class="cls-1" d="M597.09,94.73a46.43,46.43,0,0,0,3.44-5Z"/><path class="cls-1" d="M278.86,567.41l.47-.17C278.88,567.31,278.8,567.36,278.86,567.41Z"/><path class="cls-1" d="M596.26,90.51l1-1.16A12,12,0,0,0,596.26,90.51Z"/><path class="cls-1" d="M675.85,159.3c-1.27,1.85-4.71,4.84-4.42,5.06C673,162.62,675.48,160.41,675.85,159.3Z"/><path class="cls-1" d="M241.44,556.18l.23-1.45C241.55,555.42,241.48,555.85,241.44,556.18Z"/><path class="cls-1" d="M596.26,90.51l-1.21,1.34a4.64,4.64,0,0,0,.49-.3A9.27,9.27,0,0,1,596.26,90.51Z"/><path class="cls-1" d="M288.36,369.24h0l0,.18Z"/><path class="cls-1" d="M290.26,371.06l-.59-.33h-.17s.07.06.11.05,0,0,.21.08S290.13,371,290.26,371.06Z"/><path class="cls-1" d="M600.53,89.7l2-2.87C601.74,87.83,601.12,88.77,600.53,89.7Z"/><path class="cls-1" d="M408.52,354.5c-.24.39-.47.77-.7,1.13A10.25,10.25,0,0,0,408.52,354.5Z"/><path class="cls-1" d="M474.89,382.85c.23-.24.52-.59.78-.88C475.68,381.81,475.58,381.84,474.89,382.85Z"/><path class="cls-1" d="M421.9,468.56l0,0h0A.23.23,0,0,1,421.9,468.56Z"/><path class="cls-1" d="M424.75,464.05a23.79,23.79,0,0,0-2.85,4.51A27.8,27.8,0,0,0,424.75,464.05Z"/><path class="cls-1" d="M421.32,474l-.21-.47A2.81,2.81,0,0,0,421.32,474Z"/><path class="cls-1" d="M480.72,392.46s0,0,0,0a.2.2,0,0,0,0,.07Z"/><path class="cls-1" d="M467.77,409.4a12.18,12.18,0,0,0-1,1.07A10,10,0,0,0,467.77,409.4Z"/><path class="cls-1" d="M450.71,517.9s0,0,0,0l.07.09Z"/><path class="cls-1" d="M326.9,581.08c20.22-1,46.36-3,66.39-4,4.31-1,10.66-1.41,17-2l.74,1,5.3-.65c2.19.17-4.07.44-.22.59l2-.76c.44.34,13.68-.66,4.8.66l20.67-1.39c4.57-.29,2.61-1,7.68-1.16,1,.23-1.8.34-1.36.68,3.25-.08,5.91-.27,8.21-.54,1.15-.13,2.22-.27,3.23-.43,1.87-.23,3.79-.48,5.52-.72,7-1,12.5-2,20.85-2.74-1.73-2.37-3.59-5-5.62-8l1.46,1.84c-1.48-1.86-3.37-4.43-4.92-6.57s-2.78-3.82-2.88-3.84a8.62,8.62,0,0,0,2.32,3.62,38.7,38.7,0,0,1,4.62,6.32c-.86-.47-2.36-2.39-3.71-4.15s-2.57-3.37-2.82-3.16a64.2,64.2,0,0,0-4-5.67l-.91-1.19-.6-.73c-.41-.5-.82-1-1.24-1.6-2.35-4.33-6.65-9.93-8.16-13.37-1.57-1.83-3.79-3.57-6.7-7.85-1.5-3.45,1,.37-1.56-4l-.87-.4c-2.23-3.48-1.75-3-1.47-3-2.41-3.71-2.61-2.69-5.38-7.5l2.11,2.32c-2.41-3.33-3.26-4.76-6.33-9.58.32-.05,1.55,1.88,2.39,3.33-1.06-3-3.16-4.27-4-5.72.07.52,2.14,3.89.67,2.54-1.46-2.43-3.84-4.71-4.44-6.73l2.08,2.34c-3.52-4.76-2.23-2.32-5.71-8.14.22.29.23.07.4.15-2.84-3.29-5.34-8.34-8.64-13.75l.75,1c-.75-1-1.41-1.8-2-2.45a11.53,11.53,0,0,1-1.3-1.7c.33.69.63,1.28.79,1.67a2.67,2.67,0,0,1,.25.75c0,.28-.21.23-.32.49a16.89,16.89,0,0,0-1.47-2.79l-.34-.52-.26-.35a7.36,7.36,0,0,1-.5-.8,3.18,3.18,0,0,1-.37-2.21,4.32,4.32,0,0,1,.55-1.32,14.51,14.51,0,0,1,1.39-1.78,2.32,2.32,0,0,1-.44,1.22l-.25.45a3,3,0,0,1-.21.33c-.15.23-.32.47-.52.74a3.08,3.08,0,0,0,.86,1.72l.61.68.36.38.2.21.36.5c-.38-.58-.48-.68-.62-.94a2.15,2.15,0,0,1-.25-.69c-.06-.43.06-.67.23-.52a4,4,0,0,1-.74-.47,3.38,3.38,0,0,1,.43-1l.3-.43.52-.7c0-.84-2.52,2.08-.61-1.09,2.63-3.89,2.15-1.49,2.31-2.29,3.66-5.34.94-2.65,4.92-7.44a14.9,14.9,0,0,1-1.33,2c2.95-3.35,6.51-8.8,8.07-9.26a4.38,4.38,0,0,1-1.17,2.22l-.08-.14c-2.41,4.32,2.33-3.37,2.09-1.63-.62,0,3.27-5,5.06-7.15l-1,.36c4.31-8.54.61,1.11,6.07-6.42,3.26-4.94-1.49,1.67.38-1.46,2.5-3.11,3.81-4,7.15-8.76,1.17-1.15,3.43-3.6,4.12-3.42,1.94-3,6.77-8.37,7.49-10.36-4.12,4.47-3.13,5.21-8.1,10.32l.7-2c3-3.87,6.57-9.05,8.81-11.59-.52.46-.83.61-.68.18,4.06-5.69,4.78-7.67,9.07-12.94,1-.35-1.49,2.74-3.22,5.07,3-3.19,2.82-3.61,7.12-8.89.62,0-2.82,3.61-2.9,4.54l4.47-6.06s.05,0,.08.06c0-1.38,3.56-4.49,6.18-8.29,6.67-8.62,6.8-10.63,10-15.83,1.18-1.13,1.65-1.38,1.39-.71-1.94,1.88-1.41,1.69-1.81,2.57,2.19-3,5.61-5.84,4.62-4,3.4-4.76-1.65,1.38.34-1.59l5-6.28c-.93.48-2.74,2.64-.45-.84,2.06-2.82,3.18-4.09,6-7.67-.24.66,1.41-.72-.73,2a25.93,25.93,0,0,0,4.13-5.64c-3.4,3.68,4.78-6.67,1.94-4.16l3.42-3.67A25.91,25.91,0,0,1,519,340.7c1.4-.7,2.39-3.32,3.42-4.73,1.2-1.3,4.08-4.85,4.52-5a22.11,22.11,0,0,1,4.08-4.63c1.36-1.92-.22-.42,0-1.09l5-6.2c.55-.1,1.77,0,1.12,1,1.63-2.57-.17-1.52,2.72-5.06-1.09,2.49,4.22-4.36,2.49-.87,2.05-1.71,6.72-7.53,9.17-10.82,1.17-2.34-3.05,3.24-3.34,2.67,7.13-9.08,6.33-10.65,11.93-17l-1.52,1.6a51.65,51.65,0,0,0,4.36-6.49c-.38,1.58,5.31-3.4,10.75-10.18.19-.79-3.64,3.3-3.17,1.85l3.61-4.51c.31-.29,0,.28-.41.91,3.12-4.14,6.9-6.78,7.21-8.46l4.19-3.34-1.69,1.29c.2-.77,3.86-5.27,4.53-6.27a43.37,43.37,0,0,1,7.62-8.37c-.89.59-3.07,2.1-.13-1.51.84.79,6.7-7.12,7.06-6.62,1.22-1.44,3.68-3.73,3.46-4.21l.34.72c-.47-1,4-6.14,7.38-10.21.25,1.8,3.73-4.4,6.21-5.32-.05-1.36,5.91-7.21,5.93-8.43,2.66-3.06,3-2.17,4-2.73l1-1.64c1.68-1.23,6.8-6.82,10.06-10l2.22-3.66,1.33-.89c.29-.64,2.56-3.29.88-1.9l1.56-1.64c-.53-.74,2-2.52,4.78-6.12.82-.67.79-.32.21.48,1.54-1.65,1.22-.62,2.29-1.33-1.27,1,4.37-7.07-.09-2.87-.55.06,1.68-2.74,3.31-4.26l1.52-.44,1.21-2.53c2.31-2.62,3.7-3.36,5.71-5.35-2,2.14-3.28,5.74,1.83.31a77,77,0,0,0-4.88,6.23c1.08-1.11,1.66-1.62.27.37,3.81-4.42,1-1.77,4.85-6,.3.72,1.58-.29,5.23-3.76l-3,2.36a2.58,2.58,0,0,1,.36-.66c-1,1-1.4,1.2-1.81,1.23.78-.82,4-5.46,4.94-5.86-4.83,3.42,6.38-7.91,3.33-5.7.3-.62,3.07-3.56,3.62-3.61-3,3.86,3.12-2,2.94-1.12,1.1-1.43-3,2.35-1.54.42a36.39,36.39,0,0,1,5-4.28l-.74,1,3.33-3c.25-.78-3.44,2.65-.71-.41.21-.17.54-.48.92-.86l1.55-1.56c1-1,2-1.94,2.05-1.82-1.32,2.05.5,1.13-2.71,4.57l2.91-3c1.18-1.23,2.44-2.56,3.45-3.67,2.06-2.24,3.09-3.56.9-1.83l1.65-1.65.83-.83.41-.41.2-.21a.12.12,0,0,0,0-.05l-.06-.05-.11-.11.09.1.05.06s0,0-.05.05l-.27.23-.57.49c-.4.33-.82.7-1.24,1.06-.84.71-1.65,1.39-2.18,1.79-1.06.81-1,.54,2-2.57l.15.07.87-1.09-1.36-1.1-2.64-2.12-1.64-2c-.12.14-1-.48-2.68-2a3.83,3.83,0,0,0-.4-.56l-.44-.57c-.29-.38-.51-.71-.37-.77-3.88-3.51-3.84-2.91-4.48-3.21-2.22-1.89-2.95-2.73-1.64-2.15-2.93-2.73-8.35-7.15-10.23-9.16-4.35-3.15.75.82-2-.79-1.41-1.93-4.78-4.82-8.76-7.76s-8.52-6-12.13-8.44c1.3,2.28-2-1.28-3.92-1.35,1.75.79-6.35-5.4.13-1.32-1.31-.84-2.6-1.71-3.93-2.53-1.16-1.13.52-.17,2,.69s2.86,1.58,1.1-.13c-4.38-2.92-7.91-3.8-12.9-7.44,2.18.43-4.18-2.28-2.42-2.2a26.8,26.8,0,0,1,4.17,2.3l-.83-.72c-9.69-6.23-3.31-1-8.74-3.63-6.07-3.48-4.45-3.32-4.62-3.85a38.63,38.63,0,0,0-5.71-3c4,1.68,6.63,4.32,4.68,3.77a21.79,21.79,0,0,0-5.58-3.51A52.75,52.75,0,0,0,609.21,67c4.15,2.8,5.67,3.61,7.09,4.46a57.68,57.68,0,0,1,6.58,4.42c1.23.42,1.49-.43,6.11,2.79-3.21-1.51,0,.5.76,1.13-.68-1,3.42,1.87,5,2.65,1.11,1.15-3.4-.91,1.29,2.3l1.49-.33c1.78,1.34-1.22.13,2.87,2.52-2.45-.92.18,1.12-5.29-2.19a42.87,42.87,0,0,0,7.87,5.22c2.39,1.31,4.73,2.32,7.26,3.88-.54-.29-.67-.21-1.2-.5a36.12,36.12,0,0,1,4.52,2.82c3,2.47-2.8-1.4-2.15-.57,1.73,1.21,3.45,2.44,5.14,3.7.09.1.1.13.09.15a11.06,11.06,0,0,1,3.06,2.3c-1.72-.84-2.53-1-3.71-1.52,1.93,1.11,3.85,2.23,5.76,3.39-.79-.16,4,3.82.06,1.15,2.64,1.93,5.21,4,7.81,5.94l.18,1.09c1.9,1.39,2,1.32-.07-.53,1.23,1.14,4.33,3.22,6.77,5.1s4.31,3.46,3.16,3.42c3.08,2.33,5.14,4,7.25,5.83l7.66,6.75c-1.48-1.17-1.87-1.35-1.8-1.12a8.68,8.68,0,0,0,1.13,1.47l.19.23c0,.07-.15.15-.22.23l-.5.42a7.54,7.54,0,0,1-.68.53c-.13.08-.14,0,0-.16s.19-.24.35-.43l.28-.32.17-.19s0,0,0,0l-.05-.05-.12-.1c.29.15-.1.33-.23.48l-.47.44c-.28.28-.53.53-.74.77a12.18,12.18,0,0,0-1,1.29,19.35,19.35,0,0,1-2.11,2.79c-2.39,2-1.87.43-.17-1.66l-2.11,2.61-.06-.14-2.2,2.83c-3,2.48-1.09.07-3.94,2.85l-.14,1.07L678,147.78c.91-.52-.63,1.26-2.6,3.38l-.06-.14L673,153.63c2.13-2.77-2.32,2.22-1.55.74-2.11,2.14-2.14,2.21-5.79,6.22l1-.39c-4.6,5.39-.68-.24-4.65,3.89l.61.09c-6.28,5.41-9.24,10.53-13.77,14.63,2.29-2.65,1.26-2.4,1.32-2.25-3.45,4-9.34,10.19-12.55,14.62-1.88,1-2.35,1.17-6.36,5.09-2.69,3-3,3.53-3.61,4.81-2.84,2.72-7.44,8.52-8,8.31-.29,1-2.41,2.59-3.58,4.45l-.47.19.61.09c-5.47,4.48-7.32,9.25-12.68,13.91l.7-1-1.8,2.37c-.47.2.22-.79.09-1.09l-9.08,10.35,2.06-1.8c-1.85,2.23-2.76,4-5.14,6.34,3-4.68-3,3.46-4,3.75l1.77-2.37c-2.59,3.09-2.59,3.09-2,3.18-3.26,4.1-3.06,2.1-5.77,6.14l2.24-2.61c.88-.58-.4,1.58-1.89,3.32-.42.37-1.64,1.46-.55.08-2.53,3.27-6.7,7.85-7.71,9.37-1.56,1.61-1.36.81-.69-.2-5.31,7.05-2.62,3-7.94,10.07l-.12-.29L562,276.19l-3.24,2.94,1.28-1c-1.8,2.27-2.79,3.8-5.07,6.3l.54-1.32c-5,6.46-6.56,6.85-11,13.25-.4.36.26-.66.6-1.18-4,6-4,3.72-8,9.89.17-.44-.46.06-.38-.24L535,307.62l-.29-.56-1,2.63-1.73,1.2-.59,1.17c-3.08,2-5.52,6.47-9.18,9.71l1.09-.19c-6.41,10.44-17.94,21.24-26.42,33.23l-.3-.57-3.19,5.2c-2.36,2.28.81-1.85,0-1.23-3.74,5.31-1,2.65-5.49,8.7-2.67,2.81.49-1.32,1.44-2.88C485.11,369.77,479,378.2,475.67,382c0,.14-.12.44.07.26-2.68,3.88-6.67,8.64-9.8,12.77-.13-.26.61-1.3,1.36-2.36a39.93,39.93,0,0,0-3.62,4.79l.79-1.85c-2.51,3.09-6.81,9.46-7.81,9.81.47-.25.69.17-1.42,2.89-1.86,1-5.4,7.66-9.12,11.75.23-.65,2.65-3.89,1.95-3a37.62,37.62,0,0,0-4.3,6.38l.17-.81-7.41,10.52c-1.86,1-7.24,9.73-7.22,8.64-2.81,3.63,2.64-2.83-.8,1.85-1.23,1-3,4.28-3.34,3.74l.32-.53-2.42,3.25,1.1-2.38c-2,2.86-3.12,5.24-2.88,5.64-2.25,2.44-4.89,6.34-6.22,7.23l.64-1.06c-.69.95-1.35,1.8-2,2.68l-.56.71c-.21.28-.35.46-.63.86a19.06,19.06,0,0,0-1.34,2.18,13.06,13.06,0,0,0-1.44,4.66,12.9,12.9,0,0,0,.4,4.68,17.47,17.47,0,0,0,.76,2.21l.24.53.22.48.38.76c.24.48.49.93.72,1.33l.66,1.14a36.54,36.54,0,0,0,3.06,4.39c.22.51.06.53-.53-.45l3,4.9-1.09-.93,5.65,7.71-.31,0c3.27,5.38,8.73,13.58,13.25,20.31l-.78-.94c5.23,7.14,4.46,7.28,8.32,12.5a2.83,2.83,0,0,1-.48-.5l3.25,4.83-.95-.91c2.91,3.23,6.23,10.66,5.17,8.17,1.6,1.86,4.24,5.14,4.95,5.53,3.62,5.22.57,1.49,2.6,4.87,1.29,1.9,2.16,2.94,3.12,4.17l.18.23.07.07.09.08.2.23a2.64,2.64,0,0,1,.36.65l-.37,0a18.48,18.48,0,0,1,1.39,1.44h0l-.37-.29.3.25c-.27.2-1,0-1.43,0s-.55-.08-.86.54a3.68,3.68,0,0,0-.58-.07l-2.52.11c-1.63.07-2.88.06-2.77-.24-8.14,1-14.49,1.59-22.58,2.39-1.37-.86-1.74.18-6.7,0l.4.48c-11.48.85-24.73.38-37.38,1.31l-.38-.49-2.5.7-42.17,1.66a126.72,126.72,0,0,1-14.6,1.32l.59-.1c-9.84.69-20.25,1.3-31,1.35.66-.24-.41-.35.79-.53-2.54.64-6.3.23-8.61.29l2.71.29a28.76,28.76,0,0,1-9-.08l-4.82.68a2.77,2.77,0,0,1-.88-.19l-.85.3-2.59-.6c-1.19.17-7.59.49-9.57,1.18-.47-.21-5-.28-1.5-.48l-8.83.09-1.41-.07a1,1,0,0,0,.26.24,2.2,2.2,0,0,1-1.54.68,2.84,2.84,0,0,1,.22-1c.16.32.37.14.59-.1a6.61,6.61,0,0,1,.67-.71c-.12-.09-.25,0-.4.16s-.3.39-.43.34a2.65,2.65,0,0,1-.13-1.31,38.37,38.37,0,0,1,.91-4.84l-.11,1.82c.52-4.08,1.71-5.8,2.36-9.79.22-3.65,1.05-6.23.06-5.64.73-5.21.94-1.9,1.31-3.56,0-2.51,1.53-9.69,2.13-10.54-.77-3.06,2.88-13.86,2-15.11l1.34-4.14c-.26-.19-.76-1.14-.27-4.61.87-3.19,1.23-2.33,1.69-3.27l-.68-2.36c4.39-18.51,7.92-43.33,12.41-63.67,1.37-9.19,2.88-20.81,4.88-31.46l-.07,1.2,2.14-10.57-1.83,7.63c.28-2.34.39-4.18.8-6.42,1.23-5.79,2.65-12.55,4-19.67.34-1.78.67-3.58,1-5.39.28-1.58.55-3.17.83-4.76a11,11,0,0,0,.08-1.77l0-.2c.12-.23.41-.13.59,0a1.9,1.9,0,0,1,.44.68,3.52,3.52,0,0,0,.24.61.31.31,0,0,0,.17.13,9.15,9.15,0,0,1,.84.43l1.38.69c-.72-.31-1.06-.31-1.72-.57,8.59,4.77,13.28,7.3,22.14,11.59-1.59.51,5.56,3.15,4.48,3.27l1,0c1.74,1.34,6.18,3.94,5.36,3.89l4.1,1.55.08.63c5,2.82,16.1,8.22,18.32,10.51,1.62.73,3.36,1.54,5.18,2.39l5.95,2.8,1,.41c.38.15.66.26,1.17.44a18.37,18.37,0,0,0,3,.79,14.11,14.11,0,0,0,6.26-.29,15.14,15.14,0,0,0,5.65-3.06,22.5,22.5,0,0,0,3.67-4l15.89-24.08a104.74,104.74,0,0,1,6-10l2.87-3.26c2.09-3.53,3.85-7.6,6.3-10.55.05.06,0,.22-.12.46,2.21-3.54,4.68-6.65,6.37-10.21,2.56-3.78,5.3-7.29,5-5.81-.59-.94,5.55-7.93,5.55-7.93s8.31-12.07,21.44-30.79,31.21-44,50.64-70.53S537.7,175,555.76,151s33.3-44.31,41.33-56.24c.83-1.8,3.95-6.13,2.2-4.93,2.45-3.31,4.33-4.21,4.45-5.14-3.8,4.12.09-2.17-3.84,1.68l2.12-2.8c.18-.78-2.7,3.95-2.66,2.88l.1,1.36a24.29,24.29,0,0,1-3.92,3.77c-1.41,2.3-1.51,4.42-6,9l1.07-1.4c-3.26,4-2.48,2.09-3.29,2.84l.74-.89L585,104.22c2.31-2.4,5.21-7.1,3.43-4.85-4.12,4.64,1.19-1.1-1.66,2.57-1.77,2.28-1.65,1.34-1.8,1l-3.22,4.07c-.22-.41,2.17-2.66.51-1.31l-3.74,5.38c-1.62.26-4,5.87-6.71,7.55,2.74-3.82-.56.1-.37-.7l-7.11,9c-.79.76,1.62-2.58.58-1.17-1.59,1.51-2,3-2.73,3.86-.86.6-5.33,6.75-5.7,6.05-5.22,5.84-1.31,3.16-6.12,8.63-.93.49,3.48-4.62,1.13-2.35l-4.52,6a9.23,9.23,0,0,1,2.16-3.77c-6.51,7.87-11.92,13.62-17,19.34a194.35,194.35,0,0,0-15.37,19c-2,1.78.86-1.72,1.71-3.43-7.61,11.21-12.4,14.48-19.22,23.78l.22.43c-2.66,3-5.36,6.28-8,9.71s-5.37,7-8.07,10.7c-5.45,7.31-10.86,15-16.4,22.17l1.51-1.59c-1.12,2.28-3.45,5.56-5,8.11-.45.24.49-2.3-2.41,2.1.75-.8,2.17-2.52,2-1.86-10,12-28.73,39.11-43.6,60l-29.8,44.32c-5,7.48-10,14.94-14.81,22.37l-7.17,11.06c-.61.95-1.09,1.71-1.58,2.39-.24.34-.46.62-.67.89l-.31.36c-.08.08-.21.24-.2.21a.86.86,0,0,1-.61.32.43.43,0,1,1-.18.78,2.78,2.78,0,0,1-.29-.39l0,0-.12-.07-.25-.17-.58-.36c-.81-.51-2-1.2-3-1.75-2.1-1.14-4.17-2.15-6.25-3.14a85.38,85.38,0,0,1-12.87-7.07c-8.78-4.39-16.76-9.16-24.56-13.86-3.91-2.35-7.77-4.69-11.66-7l-16.21-9.34-.62-1c-4.4-3-5.61-3.42-9.88-6l-.08.46-.08-.36c-1.19,6.3-2.38,13.59-3.41,20-.36,2.23-.7,4.34-1,6.22-.23,1.41-.46,2.64-.69,3.59l.53.35c-.65,4-.8,2-1.19,6.15l-.26-.17-.29,4.86c-.92-.63-2,11.26-3,14.38-.72,5.2-2,15.08-3.55,22.88-.77,1.37-2.43,11-3.75,17.06-2,12-4.74,29-7.56,44.19l.69-.16-.64,4c-.13-.08-.3.44-.27-.17-1.26,2.94-1.36,9.19-2.37,12.3.94-1.91.58-2.76,1-5,.88-3.2,1,0-.12,4.35l-.13-.11-.18,3.05c-.56.25-1.27,2.93-1.83,3.19-2.15,13.08-2.82,22.12-5.4,35.54-.32-1.48-1.54,9.71-2,6.83-1,8.15,1-1.19,1.07,2.62-.41,2.25-.55,4.67-1,5-.05-1.1-.91,1.73-.68-.12l-.86,5.42c-.17.5-.1-.71-.06-1.32-.15,1.25-.31,2.39-.5,3.65q-.56,3.27-1.09,6.4c-.73,4.19-1.5,8.25-2.27,12.31,5,0,9.9,0,15-.07l3.81-.06,2.18-.06c1.35-.05,2.71-.12,4.1-.23.74-.38-4,0-3.26-.39,10.09-1,8.94.44,18.35-.32l-1.93.55a35.45,35.45,0,0,1,9.36-.63c.89.56-4.24.6-6.64.94,3.44-.07,12.13-.47,9.46-.92a43.54,43.54,0,0,1,7.85.24c.07-.14-3.85-.26-1.45-.61,5.61.16,14.27-.14,21.12-.34-.06.14.43.34-.17.44C319.88,580.22,319.35,581.53,326.9,581.08Z"/><path class="cls-1" d="M482.48,390.32l-1.76,2.14c.1.07.14.27-.52,1.36Z"/><path class="cls-1" d="M432.47,490.9c.23.26.45.52.67.74C432.76,491.09,432.58,490.94,432.47,490.9Z"/><path class="cls-1" d="M450.59,516.94c-1.35-1.82-.37-.05.12,1C450.83,517.87,450.92,517.75,450.59,516.94Z"/><path class="cls-1" d="M526.93,331c-.26.41-.38.69-.23.7C527,331.12,527,331,526.93,331Z"/><path class="cls-1" d="M660.28,175.74l-.63.53A4,4,0,0,0,660.28,175.74Z"/><path class="cls-1" d="M651.89,183.41c-.38.41-.86,1-1.51,1.76A18.27,18.27,0,0,0,651.89,183.41Z"/><path class="cls-1" d="M496.41,370.17a13.46,13.46,0,0,0-1.17,1.81A11.05,11.05,0,0,0,496.41,370.17Z"/><path class="cls-1" d="M648.88,187l-2,2.06s0,.08.05.11Z"/><path class="cls-1" d="M662.79,173.17c-.78.79-1.81,1.9-2.51,2.57A18,18,0,0,0,662.79,173.17Z"/><path class="cls-1" d="M573.79,272.19c0,.07-.12.15-.18.24C572.37,274.31,573.18,273.17,573.79,272.19Z"/><path class="cls-1" d="M641.19,196.87l-.28.27-.44.73Z"/><path class="cls-1" d="M671.43,164.36a9.53,9.53,0,0,0-.91,1.1l1.16-1.12C671.52,164.4,671.46,164.39,671.43,164.36Z"/><path class="cls-1" d="M602.2,240.08c.36-.75.45-1.08.38-1.17C602,239.63,601.65,240.15,602.2,240.08Z"/></svg>