<svg id="Layer_1" data-name="Layer 1" xmlns="http://www.w3.org/2000/svg" viewBox="0 0 841.89 595.28"><defs><style>.cls-1{fill:#3f3b3c;}</style></defs><path class="cls-1" d="M669,426.38a.54.54,0,0,0,.31,0C669.14,426.32,669.05,426.32,669,426.38Z"/><path class="cls-1" d="M630.9,364.37c.21.21.4.42.59.63C631.16,364.55,631,364.4,630.9,364.37Z"/><path class="cls-1" d="M690,464.49c-.05,0-.06,0-.11-.05.32.59.74,1.39,1.43,2.7Z"/><path class="cls-1" d="M526.81,248.69l.75.62A7.9,7.9,0,0,0,526.81,248.69Z"/><path class="cls-1" d="M592.21,314.11a5.36,5.36,0,0,1-.94-.82C591.64,313.75,592,314.1,592.21,314.11Z"/><path class="cls-1" d="M696,487.34l-.24-1.27C695.57,486.17,695.63,486.64,696,487.34Z"/><path class="cls-1" d="M717.81,525.56a.41.41,0,0,0,0-.14C717.77,525.38,717.78,525.45,717.81,525.56Z"/><path class="cls-1" d="M711.21,509.6c-.2-.31-.46-.66-.72-1C710.74,509,711.05,509.63,711.21,509.6Z"/><path class="cls-1" d="M710.13,508.11l.36.47C710.32,508.3,710.18,508.07,710.13,508.11Z"/><path class="cls-1" d="M21.77,3.57a15,15,0,0,0-3.47-.68Z"/><path class="cls-1" d="M408.78,171.6h.32C408.85,171.51,408.78,171.54,408.78,171.6Z"/><path class="cls-1" d="M19.17,6.17l-.81-.37A4.78,4.78,0,0,0,19.17,6.17Z"/><path class="cls-1" d="M684,467.38c-.94-.94-1.8-3.43-2.11-3.24C682.54,465.29,683.21,467.1,684,467.38Z"/><path class="cls-1" d="M376.05,170.13l-.75-.37A8,8,0,0,0,376.05,170.13Z"/><path class="cls-1" d="M19.17,6.17l.95.43a2.6,2.6,0,0,0-.23-.28A3.31,3.31,0,0,1,19.17,6.17Z"/><path class="cls-1" d="M278.24,106l.05,0,.29.06Z"/><path class="cls-1" d="M271.47,102.15l1.55.58A4.81,4.81,0,0,0,271.47,102.15Z"/><path class="cls-1" d="M18.3,2.89l-2-.4A12.76,12.76,0,0,0,18.3,2.89Z"/><path class="cls-1" d="M195,68.62l.73.26A3.88,3.88,0,0,0,195,68.62Z"/><path class="cls-1" d="M595.87,318.78c.1.17.26.38.38.57C596.36,319.35,596.38,319.28,595.87,318.78Z"/><path class="cls-1" d="M549.21,283.68h0Z"/><path class="cls-1" d="M551.76,285.42a7.78,7.78,0,0,0-2.55-1.74A9.88,9.88,0,0,0,551.76,285.42Z"/><path class="cls-1" d="M544.54,279.11l.23.27A3.23,3.23,0,0,0,544.54,279.11Z"/><path class="cls-1" d="M586.4,323.82l0,0h0Z"/><path class="cls-1" d="M578.37,314.73a4.4,4.4,0,0,0-.44-.73A3,3,0,0,0,578.37,314.73Z"/><path class="cls-1" d="M521.16,260h0l0,0Z"/><path class="cls-1" d="M425.14,198.23c10.09,5.5,23.26,12.51,32.75,18.8,2.52.64,5.57,2.58,8.7,4.42l-.24,1.06,2.72,1.37c.86.93-2.05-1.1-.44.4l1.3.1c0,.41,6.31,4.51,1.71,2.3,3.23,2.19,6.51,4.32,9.7,6.57,2.11,1.5,1.73.16,3.94,2,.3.58-1-.42-1,0a29.16,29.16,0,0,0,7.87,4.78,26.47,26.47,0,0,1,7.59,4.47l-.63-.3c1.26.6,3.31,2.19,3.42,2.1-.2-1.45-1.48-.42-3.07-2.38.69-.57,2.72,1.46,3,.84,1.32,1.38,2.5,1.65,3.84,2.6,1.92,2.1,5.28,4.31,6.52,6.14,1.23.64,3,.86,5.28,2.76,1.18,1.88-.79.18,1.24,2.22l.67-.09c1.76,1.58,1.38,1.45,1.17,1.58,1.91,1.63,2,.81,4.25,3.1l-1.66-.76a56,56,0,0,1,5,4.16c-.25.17-1.23-.68-1.91-1.36.87,1.7,2.52,1.7,3.2,2.37-.06-.34-1.72-1.86-.55-1.53,1.17,1.11,3.08,1.7,3.57,2.89l-1.67-.77c2.82,1.9,1.84.63,4.55,3.41-.18-.12-.19,0-.32.07,2.23,1.17,4.19,3.78,6.81,6.26l-.59-.36c1.19.86,2.08,1.08,2.64,1.64-1.32-1.61-.81-1.34-.62-1.82,1.44,2.46,3.73,2.12,6.67,5.51-.25.16-1.28-.32-2-1.37-1.71-.42-2.34,0-4.61-1.56,1.38,1,2.92,2.26,2.36,2.23l.93-.22c.77.68,1.33,1.26,1.9,1.79.67-.07-1-2,1-.63,2.15,1.63.49,1.55,1,1.58,2.84,2.35,1.68.46,4,3.16a4.53,4.53,0,0,1-1-.87c1.56,2,4.5,4.33,4.35,5.53a1.6,1.6,0,0,1-1.29-.7l.13-.08c-2.45-1.49,1.77,1.52.55,1.51.23-.5,2.66,2.11,3.72,3.31l.06-.77c5,2.58-1,.61,2.86,4.2,2.65,2.1-.78-1,1,.16,1.54,1.66,1.71,2.67,4.14,4.94.45.84,1.49,2.45,1.12,3,1.55,1.3,3.91,4.7,5.15,5.12-1.91-2.91-2.82-2.07-4.91-5.61l1.23.4c1.86,2.08,4.51,4.5,5.64,6.07-.17-.37-.17-.61.1-.52,2.84,2.8,4.18,3.15,6.51,6.26-.12.78-1.49-1-2.62-2.24,1.29,2.19,1.67,2,4,5.09-.25.49-1.66-2-2.33-2l2.89,3.17s0,0-.08.07c1.05-.08,2.06,2.54,4,4.37,4,4.76,5.54,4.71,8.22,7,.4.88.4,1.23,0,1.06-.65-1.44-.72-1-1.22-1.32,1.37,1.6,2.19,4.14,1.2,3.43,2.25,2.47-.39-1.22,1.07.21l2.78,3.63c0-.7-.91-2,.82-.37,1.32,1.49,1.85,2.3,3.44,4.37-.4-.16,0,1.06-1.2-.5a8.68,8.68,0,0,0,2.65,3c-1.45-2.49,3.19,3.45,2.42,1.37.48.82,1,1.65,1.42,2.5-.39-.52-.65-.42-1.17-1.23,0,1,1.54,1.77,2.19,2.53.49.89,2,3,1.91,3.36a7.4,7.4,0,0,1,1.84,3c.9,1,.42-.17.82,0l2.66,3.71c-.16.42-.76,1.32-1.27.85,1.29,1.19,1.24-.14,2.75,2-1.46-.79,1.6,3.1-.37,1.85.49,1.48,2.91,5,4.39,6.8,1.29.88-1.18-2.27-.62-2.48,3.91,5.31,5.46,4.74,8,8.89l-.58-1.13a17.82,17.82,0,0,0,3.14,3.25c-1.08-.28.39,3.88,3.19,8,.53.15-1-2.72,0-2.35l1.89,2.71c.08.23-.21,0-.52-.31,1.82,2.34,2.22,5.13,3.39,5.39l.75,3.09L644,399.2c.52.15,2.42,2.87,2.92,3.38a13.53,13.53,0,0,1,3.16,5.66c-.06-.66-.27-2.27,1.23-.06-1,.6,2.57,5,2,5.25.58.91,1.27,2.72,1.75,2.58l-.71.22c1-.31,3,3,4.74,5.52-1.53.13,1.84,2.75,1.43,4.56,1.08,0,3,4.41,4,4.46,1.22,2,.35,2.22.39,2.88l.85.75c.22,1.23,2.36,5,3.42,7.38l1.92,1.67.12,1c.37.23,1.46,1.91,1.12.68l.59,1.16c.84-.36,1.12,1.46,2.74,3.55.17.59-.1.56-.48.12.63,1.14,0,.88,0,1.65-.25-.92,3.71,3.28,2.34,0,.2-.39,1.44,1.26,1.93,2.45l-.32,1.07,1.49.92c1.09,1.69,1.06,2.68,1.78,4.14-.86-1.42-3.17-2.45-1.05,1.26a28.86,28.86,0,0,0-2.85-3.58c.41.79.56,1.21-.42.18,1.86,2.78,1,.73,2.7,3.55-.72.2-.46,1.11.7,3.77L681,463.2a1.24,1.24,0,0,1,.37.27c-.33-.76-.34-1-.19-1.3.32.57,2.63,2.93,2.52,3.63-.62-3.47,3.55,4.68,3.12,2.48.37.23,1.52,2.25,1.31,2.63-1.81-2.17.28,2.22-.38,2.07.68.8-.57-2.17.34-1.08a12.43,12.43,0,0,1,1.26,3.62l-.45-.54.94,2.39c.52.2-.64-2.46.65-.49.16.62,1.46,2.59,1.17,2.67-1-.75-1.17.28-2.23-1.42.85,1.43,3.43,6,3,3.84l.91,1.76c-.31-1.25-1.47-4.58.49-1.12l-.15,0,1.79,2.18.24,1.24c.14-.11.49.19,1,1.1-.07.34.31,1.23,0,1.3,1.43,2.61,1.64,2.22,2,2.47.82,1.44,1,2.06.24,1.57,1,2.06,2.94,5.52,3.34,7.07,1.71,2.55-.16-.62,1.1.72.11,2.93,4.25,9.15,6.7,13.49.35-1.71.74,1.14,2,1.49-.8-.79,1.43,4.58-.86.86l1.33,2.3c.31,1.89-2.44-3.68-1.9-.86,1.41,2.62,3.38,3.8,4.64,7.1-1.24-.69,1.47,2.28.3,1.9a10.45,10.45,0,0,1-1.47-2.28l.15.62c2.81,5.9,1.69,1.25,3.74,4,1.92,3.49.9,3.07.68,3.45a13.53,13.53,0,0,0,1.84,3.18c-1.54-1.94-1.63-4.21-.68-3.45,0,2,2.66,5.28,3.47,6.08-1.78-5.48-1.77-3.52-3.33-8.72-.59-.53-1.25,0-2.43-3,1.28,1.61.33-.32.19-.89-.13.76-1.2-1.88-1.82-2.66-.07-1,1.83,1.21.5-1.76l-1.24,0c-.44-1.2,1,.11-.52-2.17,1.17,1,.57-.79,2.41,2.38-1.18-4.31-3.54-5.72-5.46-8.54.22.27.37.24.59.51a12.61,12.61,0,0,1-1.71-2.54c-.82-2.1,1.26,1.34,1.25.69l-1.71-3.21c0-.08,0-.1,0-.11-.57-.78-1.08-1.54-1-2a23.93,23.93,0,0,0,1.91,1.52l-2.43-3c.51.2-.92-3.07.57-.79l-2.75-4.93.43-.76c-.75-1.13-.9-1.1-.22.37-.75-1.78-5.15-6.95-3.4-6.73-2.61-3.62-3.15-5.15-6-9.7,2.53,3.32-1.47-4.58.86-.87-.92-2.41-1.87-2.5-3-4.21-.63-1.81.4-1.41,1.62.26l-1.45-1.95.15,0-1.36-1.63c-.72-2.13.41-.76-.6-2.82l-.8-.12-.41-1.54c0,.65-.75-.47-1.59-1.91l.15,0-1.08-1.71c1.3,1.56-.76-1.69.08-1.1-.79-1.53-.82-1.56-2.42-4.24l-.12.7c-2.3-3.37.5-.47-1.08-3.36l-.34.42c-1.59-4.54-4.38-6.76-5.62-10.07,1.09,1.69,1.35,1,1.21,1-1.66-2.53-3.94-6.89-6-9.28.06-1.35.12-1.69-1.23-4.63-1.22-2-1.45-2.25-2.21-2.69-.9-2.09-3.41-5.53-3-5.9-.63-.24-1-1.8-1.9-2.69l.06-.33-.34.42c-1-4-4.07-5.44-5.33-9.41l.48.52-1.06-1.35c.05-.34.53.17.82.09l-4.08-6.79.49,1.53c-.92-1.39-1.92-2.08-2.66-3.87,2.3,2.29-1.34-2.26-1.14-3,.37.44.72.89,1.08,1.34-1.26-1.95-1.3-1.93-1.61-1.51-1.8-2.43-.31-2.25-2.29-4.29l1.06,1.68c.07.64-1.06-.32-1.77-1.44-.1-.3-.42-1.21.18-.4-1.45-1.88-3.17-5-3.91-5.78-.57-1.16,0-1,.45-.49-3.14-4-1.16-2-4.31-6l.29-.09c-.42-.42-.82-.85-1.25-1.27l-.9-2.39.2.95a32.9,32.9,0,0,1-2.72-3.79l.8.41c-2.87-3.74-2.5-4.9-5.53-8.24-.11-.29.39.2.65.46-2.91-3-1.15-3-4.2-6,.27.12.15-.35.34-.29L629.55,363l.56-.22L628.5,362l-.21-1.29-.66-.43c-.31-2.29-2.69-4.12-3.66-6.85l-.31.82a26.38,26.38,0,0,1-3.72-4.21c-1.18-1.57-2.25-3.33-3.45-5.05a82.67,82.67,0,0,0-7.61-10.3l.54-.24-2.69-2.33c-.81-1.76,1.08.58.95-.07-2.58-2.73-1.6-.71-4.48-4-1.15-1.94.85.31,1.65,1-2.82-3-7-7.34-8.6-9.76-.1,0-.29-.07-.22.07-2-1.92-4.08-4.82-6-7.09.25-.12.76.42,1.29,1a11.1,11.1,0,0,0-2.32-2.6l1.14.51c-1.48-1.77-4.82-4.74-4.73-5.52,0,.36-.38.56-1.7-.92-.09-1.41-3.94-3.75-5.74-6.43.41.14,2,1.84,1.59,1.34a12.76,12.76,0,0,0-3.34-3l.55.08c-.9-.86-1.78-1.73-2.7-2.57l-2.81-2.47c-.14-1.4-5-4.89-4.22-5-1.86-1.91,1.29,1.85-1.15-.46-.37-.9-2.27-2-1.76-2.34l.3.21-1.69-1.63,1.44.65c-1.51-1.36-3-2-3.33-1.77-1.13-1.58-3.21-3.35-3.53-4.28l.62.38c-4.11-3.49-5.5-7.19-9.28-9.37-.18-.27-.05-.35.43.11L546.61,266l.88.22-4.5-3.25.24-.17c-1.27-1.31-3.09-2.78-5-4.35l-5.76-4.67.62.34c-4.2-3-3.6-3.39-6.67-5.56a1,1,0,0,1,.38.16l-2.59-2.16.74.26c-2.28-1.14-5.09-5.07-4.19-3.73-1.28-.66-3.4-1.9-3.94-1.87-2.91-2.24-.48-.86-2.13-2.45-2.1-1.62-2.78-1.5-5.5-3.88l.24-.18c-1.39-1-2.33-1.45-4.25-2.8l.65.3c-3.46-1.75-3.37-3.49-6.54-4.22-1.16-1.14-3.74-2.76-3.3-3.13-4.13-2.4-7.23-4.44-11.29-6.85-.1-1.21-.88-.51-2.95-2.56l-.11.54c-2.77-1.84-5.61-4-8.54-6.27a88,88,0,0,0-9.13-6.34l.1-.54-1.55-.31c-6.57-4.42-15.26-9.85-20.69-13.05a47.38,47.38,0,0,1-7.69-3.66l.34.11c-5.08-2.62-10.45-5.37-15.73-8.67.44,0,0-.43.65-.21-1.56-.22-3.2-1.74-4.36-2.4l1.18,1.09a10,10,0,0,1-4.39-2.82l-2.71-.87c-.14-.13-.35-.34-.35-.42h-.56l-1-1.3c-.68-.21-4-1.82-5.33-1.8-.13-.33-2.35-1.72-.51-.87l-8.91-5,1.29,1c-.06.55-2.92-.61-4.21-1.56,2,.62.49-.56-.12-1.3-1.35-.4.86,1,.08.86a25,25,0,0,1-5.76-2.69l1,.3c-2.18-.93-2.74-2.22-4.82-3.26-2.05-.6-3.25-1.64-3.27-.67-2.77-1.23-.76-1.06-1.59-1.59-1.46-.28-5.09-2.46-5.36-3.1-2.06.38-7.05-4.11-8.09-3.43l-1.94-1.66c-.2.22-.93.57-2.78-.23-1.55-1.14-.92-1.39-1.3-1.91l-1.62.38a178.54,178.54,0,0,0-16-8.85c-5.76-2.94-11.64-5.94-16.83-9-4.91-2.13-11.18-4.64-16.73-7.49l.69.17-5.48-2.93,3.86,2.38a33.74,33.74,0,0,1-3.5-1.31c-6-3.3-13.9-7.77-21.75-10.78-5.45-1.16-2.81-2.51-7.91-3.89.46.09.68,0,1.09.06-5.25-2-8.08-3.1-13.5-4.75,1.1-.85-3.33-1.48-2.6-1.86l-.64.26c-1-.79-3.63-2.11-3.1-2.26l-2.51-.46,0-.55c-3-1.39-9.55-3.94-10.71-5.56-7.75-2.58-19.34-8-28.63-12.25a34.39,34.39,0,0,1-6.38-2.23l-2-1.54c-2.24-.77-4.84-1.08-6.72-2.29,0-.06.14-.07.3,0-2.26-.82-4.24-2-6.53-2.37-2.41-1.06-4.64-2.35-3.68-2.56-.63.83-5.08-2.31-5.08-2.31L174.3,59l-14.5-6.21c-6.06-2.62-13.25-5.58-21.13-8.81s-16.44-6.64-25.27-10.1C78.07,20,38.24,6.4,21.77,3.57c-1.21.1-4.21-.62-3.3.33-2.29-.61-3-1.81-3.62-1.49,2.92,1.39-1.37.89,1.39,2.52L14.3,4.37c-.51.2,2.72.54,2,1l.84-.68a8.11,8.11,0,0,1,2.71,1.65c1.57.17,2.92-.69,6.19,1.06l-1-.29c2.83,1,1.53,1.18,2.06,1.53l-.62-.22,2.22,1.28c-1.69-.93-4.91-1.27-3.34-.77,3.26,1.44-.8-.53,1.76.26,1.58.51,1,.82.8,1.07l2.82,1c-.24.37-1.85-.69-.86.14l3.69.82c.28,1.27,4,.87,5.28,2.44-2.62-.68.1.43-.43.62l6.23,2.2c.54.36-1.75-.27-.78,0,1.06.71,2,.45,2.63.68.44.48,4.64,1.68,4.22,2.3,4,2,2.09-.22,5.87,1.6.36.61-3.16-1-1.57,0l4.12,1.33a3.35,3.35,0,0,1-2.53-.26c10.77,4.62,15.86,9,26.07,12.24,1.22,1-1.14-.06-2.26-.12,7.48,2.12,9.75,5,15.93,7.28l.26-.36c8.1,4.52,18.65,7.89,28.11,12.2l-1-.74A37.75,37.75,0,0,1,129,55.05c.16.3-1.49.4,1.37,1.36-.52-.38-1.64-1-1.21-1.06,3.93,2.2,10.28,5,17.32,8s14.72,6.31,21.38,9.36C186.27,80.07,205.7,89.28,223.56,97c-2.72-1.17-1.14-1.64.81-.51,4.84,4.15,9.82,4,15,7.74,5.28,2.07,10.06,4.52,14.79,6.83a100.61,100.61,0,0,0,14.45,6.14l0,.55c1.33.88,1.87.73,3.39,1.38l-.1.12c3.46,1.81,8,3.35,9.88,4.54l.37-.46c2.12,1,.9.92,3.19,1.65l-.19.23,2.74.69c-.67.8,5.88,2.89,7.36,4.1a119.85,119.85,0,0,1,12.12,5.39c.53.84,5.56,3.27,8.64,5.06,6.3,2.9,15.22,7.21,23,11.29l.15-.66,2.09,1c-.1.12.15.32-.2.23,1.26,1.47,4.85,2.2,6.29,3.45-.77-1.06-1.4-.81-2.56-1.42-1.54-1.14.35-.88,2.48.56l-.11.11,1.71.48c-.06.54,1.24,1.47,1.19,2,6.81,3.33,11.83,4.86,18.66,8.68-1,.14,5.06,2.45,3.21,2.61,4.34,1.84-.31-1.07,1.91-.7,1.15.62,2.5,1,2.54,1.45-.66-.07.67,1-.32.62l2.81,1.39c.23.2-.44,0-.78-.1,5.94,2.44,9.71,5.86,15,8,.54-.12-2-1.16-1.42-1.28,5.42,2.08,4.17,3,9.15,5.08l-1.22-.09a11.34,11.34,0,0,1,4.87,2.23c.16.75-2.35-.75-3.69-1.16,1.72.94,6.12,3.21,5.05,2a14,14,0,0,1,3.68,2.58c.1-.11-1.73-1.4-.4-1,2.65,1.81,6.95,4.22,10.32,6.19-.11.1,0,.43-.31.32C422.26,195.27,421.34,196.22,425.14,198.23Z"/><path class="cls-1" d="M587.35,325.08l-1-1.26c-.09.09-.25.13-.83-.33Z"/><path class="cls-1" d="M535.68,271.57a5.2,5.2,0,0,0-.52-.27C535.46,271.54,535.59,271.58,535.68,271.57Z"/><path class="cls-1" d="M521.26,260.64c1.07.73.29-.13-.1-.65C521.06,260.06,521,260.19,521.26,260.64Z"/><path class="cls-1" d="M614.9,357.17c-.21-.19-.37-.28-.44-.17C614.76,357.23,614.87,357.25,614.9,357.17Z"/><path class="cls-1" d="M677.63,456c0-.14-.1-.27-.16-.45A1.64,1.64,0,0,0,677.63,456Z"/><path class="cls-1" d="M675.22,449.92c-.16-.27-.38-.62-.73-1.11A5,5,0,0,0,675.22,449.92Z"/><path class="cls-1" d="M597.37,334.88a4,4,0,0,0-.92-.83A4,4,0,0,0,597.37,334.88Z"/><path class="cls-1" d="M673.72,447.7l-.76-1.45s-.07,0-.11,0Z"/><path class="cls-1" d="M678.58,457.86c-.3-.56-.73-1.32-1-1.83A5.69,5.69,0,0,0,678.58,457.86Z"/><path class="cls-1" d="M640.17,392l-.11-.14C639.16,390.89,639.68,391.5,640.17,392Z"/><path class="cls-1" d="M669.3,442l-.09-.2-.38-.33Z"/><path class="cls-1" d="M681.84,464.14a3.41,3.41,0,0,0-.48-.67c.1.23.23.51.39.85C681.77,464.21,681.8,464.16,681.84,464.14Z"/><path class="cls-1" d="M652.62,413.12c.43.28.65.35.75.31C653.08,413,652.81,412.72,652.62,413.12Z"/><path class="cls-1" d="M677.59,476.37a.68.68,0,0,0,0,.26A.4.4,0,0,0,677.59,476.37Z"/><path class="cls-1" d="M707.21,466.58l-.29.24C707.13,466.72,707.2,466.65,707.21,466.58Z"/><path class="cls-1" d="M660.16,483.15s0,0,0-.08l-1.22.5Z"/><path class="cls-1" d="M749.12,463.27l0-.42A1.32,1.32,0,0,0,749.12,463.27Z"/><path class="cls-1" d="M733,458.36a1.16,1.16,0,0,1,.45-.34C733.17,458.08,733,458.17,733,458.36Z"/><path class="cls-1" d="M648.72,482.28l.66.09C649.3,482.23,649.05,482.16,648.72,482.28Z"/><path class="cls-1" d="M633.68,495.44h.11C633.78,495.4,633.73,495.41,633.68,495.44Z"/><path class="cls-1" d="M640.22,491.11c.1-.13.21-.29.32-.46C640.37,490.8,640.14,491,640.22,491.11Z"/><path class="cls-1" d="M640.69,490.42l-.15.23C640.65,490.55,640.73,490.47,640.69,490.42Z"/><path class="cls-1" d="M631.7,505.8a3.6,3.6,0,0,0-1.64.33Z"/><path class="cls-1" d="M742.75,523.44l-.14-.13C742.65,523.42,742.7,523.45,742.75,523.44Z"/><path class="cls-1" d="M630.59,509l-.38-.12A1,1,0,0,0,630.59,509Z"/><path class="cls-1" d="M657.57,477c.36-.57,1.57-.63,1.42-.95C658.48,476.34,657.6,476.43,657.57,477Z"/><path class="cls-1" d="M755.48,537.59l0,.37A1.74,1.74,0,0,0,755.48,537.59Z"/><path class="cls-1" d="M630.59,509l.45.14a2.12,2.12,0,0,0-.12-.2A.92.92,0,0,1,630.59,509Z"/><path class="cls-1" d="M736.16,563.05h0l.06,0Z"/><path class="cls-1" d="M734,561.18l.65.21A.91.91,0,0,0,734,561.18Z"/><path class="cls-1" d="M630.06,506.13l-.93.18A3.2,3.2,0,0,0,630.06,506.13Z"/><path class="cls-1" d="M705,541.9l.29.16A.71.71,0,0,0,705,541.9Z"/><path class="cls-1" d="M730.51,458.93l-.3,0C730.2,459,730.24,459.09,730.51,458.93Z"/><path class="cls-1" d="M755.3,444.34h0A0,0,0,0,1,755.3,444.34Z"/><path class="cls-1" d="M753.25,444.19a5.24,5.24,0,0,0,2,.15A3.24,3.24,0,0,0,753.25,444.19Z"/><path class="cls-1" d="M758.63,446.8l-.13-.2A1,1,0,0,0,758.63,446.8Z"/><path class="cls-1" d="M728.2,448.65s0,0,0,0,0,0,0,0Z"/><path class="cls-1" d="M733.26,447a1.22,1.22,0,0,0,.4.05A.73.73,0,0,0,733.26,447Z"/><path class="cls-1" d="M761.46,463.31h0v0Z"/><path class="cls-1" d="M759.14,513.25c.29-5,.2-11.54.92-16.46-.66-1.16-.53-2.73-.54-4.32l1-.06-.2-1.35c.37-.5.09,1,.57.12l-.58-.56c.38-.06.59-3.35,1.09-1.07l.53-5.1c.14-1.13-.78-.75-.41-2,.33-.22.16.47.54.41,1.13-3.67-1.53-4.53-.71-8l.1.31c-.21-.62-.06-1.75-.2-1.78-1.07.35.49.69-.22,1.69-.86-.18-.33-1.38-1-1.37.39-.79-.05-1.32,0-2,.67-1.16.46-2.94,1.23-3.79-.21-.62-1-1.37-.9-2.66.77-.84.63.29,1-.94l-.48-.25c.18-1,.3-.84.53-.78.14-1.09-.59-1-.13-2.32l.41.82A10.86,10.86,0,0,1,762,459c.28.06.21.63.08,1,.82-.69-.19-1.35-.06-1.75-.23.09-.43,1.06-.88.53a1.4,1.4,0,0,0,0-.54c0-.19-.07-.55-.09-.8a1.81,1.81,0,0,1,.28-1.43c.13.39.25.79.37,1.21a8.24,8.24,0,0,0-.28-1.81,9.88,9.88,0,0,1,0-2c0,.13.16,0,.27.06a10.76,10.76,0,0,1-.65-2.63,8.47,8.47,0,0,0-1.09-3.11l.35.3c-.66-.72-1.33-.81-1.64-1.19.64,1.17.26,1,0,1.4-.16-.93-.82-1.23-1.58-1.47a10.62,10.62,0,0,1-2.73-1.08.75.75,0,0,1,.61-.19,1.31,1.31,0,0,1,.83.45c.63-.11,1.1-.29,1.61-.34a2.85,2.85,0,0,1,1.89.53c-.93-.69-2.13-1.29-1.67-1.42l-.77.44c-.28-.17-.54-.31-.78-.43a4.88,4.88,0,0,0-.69-.34c-.49.34.73,1.18-.76.94s-.46-1-.84-.74a2.68,2.68,0,0,0-1.73.18c-.27.13-.47.12-1.51,0,.23-.05.68-.18.85-.09a8.78,8.78,0,0,0-2.53-.15c-.83,0-1.53,0-1.82-.44.23-.25.27-.54.92-.55l0,.15c.94-.44.56-.36,0-.28s-1.29.21-1-.26c.09.24-.48.45-1.2.61l-.54.12-.42.08-.74.11.39.51c-2.05,2.36-.22-1.17-2.59-.24-1.29.81.58,0-.16.65-1,.2-1.49-.19-2.81.48-.46-.1-1.34-.15-1.6-.76-.77.51-2.66.53-2.95,1.29,1.61.07,1.23-1.12,3.18-.83l-.28.76c-1.19.32-2.58,1.11-3.46,1.15.2.06.32.2.26.36-1.59.76-1.88,1.51-3.55,1.85-.39-.48.58-.7,1.26-1-1.19-.12-1.1.31-2.78.66-.24-.46,1.1-.33,1.13-.87l-1.74.74a.54.54,0,0,0,0-.1c0,.9-1.39.38-2.4,1-2.59.85-2.62,2.08-3.83,3.2-.46-.09-.64-.26-.55-.52.76.15.55-.09.7-.38-.84.38-2.18-.15-1.8-.64-1.31.7.64.26-.12.79l-1.91.6c.36.33,1.06.19.19.85a13.55,13.55,0,0,1-2.3.79c.08-.25-.56-.51.26-.76-.57,0-1.4.28-1.57.79,1.31,0-1.81,1-.71,1.37l-1.31,0c.28-.09.21-.37.63-.43-.55-.51-.9.51-1.29.72-.45,0-1.55.35-1.72.14-.31.3-1.27.49-1.56.23-.51.32.11.42,0,.68l-1.9.63c-.22-.31-.73-1.21-.49-1.45-.6.58.11,1.11-1,1.47.37-.89-1.61,0-1-1.12-.8-.27-2.55.39-3.45.93-.4.75,1.16-.09,1.29.48-2.63,1.2-2.24,2.76-4.32,3.23l.57,0c-1.12.77-1,.65-1.55,1.38.09-.8-2.09-1.27-4.06-.35,0,.4,1.38.21,1.25.87l-1.3.61c-.12,0,0-.18.12-.34-1.11.7-2.57,0-2.62.92l-1.6-.5.65.23c0,.4-1.35,1-1.58,1.26a3.08,3.08,0,0,1-2.76.7c.35.18,1.19.56.15,1.1-.42-1.09-2.42.5-2.61-.07-.44.19-1.35.16-1.22.63l-.19-.7c.27,1-1.33,1.58-2.47,2.25-.25-1.38-1.29.64-2.31-.29.13.95-2,1.23-1.92,2-.91.44-1.15-.4-1.5-.58l-.3.5c-.64-.2-2.42.47-3.57.64l-.64,1.17-.51-.19c-.07.26-.82.72-.21.78l-.54.18c.32.85-.63.54-1.52,1.34-.3,0-.32-.25-.14-.46-.53.22-.49-.3-.89-.45.46.05-1.22,2.3.34,2.05.24.3-.47.9-1,1l-.63-.61-.27,1.05c-.75.46-1.3.13-2,.33.64-.33.84-2.06-.86-1.29A6.2,6.2,0,0,0,661.9,475c-.36.13-.57.14-.16-.42-1.23.82-.24.65-1.52,1.32-.22-.69-.69-.74-1.94-.45l1.08.1a.5.5,0,0,1-.09.25.57.57,0,0,1,.68.21c-.26.11-1.16,1.51-1.56,1.2,1.78.44-1.95,1.83-.83,2.07-.06.26-1,.71-1.2.43.87-1-1.17-.38-1.2-.92-.32.37,1.09.1.65.6a3,3,0,0,1-1.77.11l.22-.25-1.16.18c0,.4,1.25.1.39.7-.31,0-1.17.59-1.27.32.24-.66-.37-1.11.38-1.6-.64.36-2.73,1.45-1.58,1.65l-.81.37c.64,0,2.26-.14.72.71l0-.14-.85,1-.65-.1c.1.16,0,.39-.41.59-.2-.13-.62,0-.73-.29-1.16.65-.89.92-.94,1.19-.63.4-.95.4-.85-.14-1,.39-2.45,1.39-3.25,1.42-1,1,.32,0-.11.83-1.7-.47-4.17,2.11-5.84,3.76,1.19.43-.41.51-.07,1.54.14-.63-2.19.9-.9-.76l-.85,1c-1.06.18,1.24-1.8-.3-1.49-1.07,1-.86,2.57-2.28,3.62-.24-1-.63,1.24-1,.37,0-.47.38-.82.66-1.26l-.32.15c-1.14,1.28-1.1,1.62-.85,1.84s.66.34.42,1.22c-1,1.72-1.34,1.07-1.74,1a3.49,3.49,0,0,0-.71,1.84c.11-1.4,1.5-1.9,1.66-1.15a1.94,1.94,0,0,0-1.12,1.59,5.22,5.22,0,0,0,0,1.77,10.68,10.68,0,0,0,1.34-2,4.57,4.57,0,0,1,1.51-1.64c0-.42-.79-.84.38-1.92-.26,1,.4.2.66.08-.54-.05.48-1,.64-1.42.56-.06.23,1.33,1.35.37l-.61-.93c.52-.32.4.71,1.06-.36,0,.86.75.47-.21,1.77a2.71,2.71,0,0,0,1.09-.74,2.77,2.77,0,0,0,.59-.93,9.59,9.59,0,0,1,.93-2.07c-.07.15,0,.27-.06.42.06-.42.52-.8.83-1.12.94-.41-.32.86.08.94.4-.35.83-.66,1.24-1,0,0,.07,0,.08,0,.24-.38.51-.7.79-.55a7,7,0,0,0-.19,1.37c.27-.54.58-1.05.89-1.57.06.39,1.46-.26.65.62.63-.51,1.28-1,1.94-1.45l.55.52c.42-.42.36-.55-.27-.26.76-.3,2.53-3,2.86-1.48,1.37-1.44,2.09-1.55,4-2.9-1.28,1.39,2.2-.13.65,1,1.12-.2,1-1,1.72-1.48.87-.07.84.74.17,1.35l.78-.74,0,.14.64-.75c1,0,.48.58,1.41.27l-.07-.68.77.07c-.36-.17.12-.52.75-.86l.05.14.74-.47c-.62.71.78-.2.61.38a11.65,11.65,0,0,0,1.88-.94l-.4-.31c1.44-1.06.33.57,1.65,0l-.29-.43c2.21,0,3-1.83,4.57-1.93-.74.45-.31.9-.35.76,1.12-.69,3.12-1.39,4.11-2.49.74.49.93.64,2.33.41.91-.43,1-.55,1.15-1.07,1-.11,2.52-1.21,2.77-.73,0-.48.84-.27,1.2-.8l.18.16-.27-.44c2,.4,2.45-1.7,4.43-1.44l-.22.24.6-.46c.19.16,0,.4,0,.68l3.18-1.18L686,473c.64-.32.91-.95,1.78-1-1,1.22,1.06-.39,1.48.08l-.6.45c.9-.41.9-.41.64-.85,1.14-.64,1.18.58,2.09-.37l-.8.29c-.34-.19.07-.8.61-1,.15,0,.61.09.23.31.88-.55,2.39-.87,2.74-1.22.57-.05.53.35.3.59,1.87-1.2.95-.26,2.83-1.46l.07.29.57-.59,1.22.19-.49-.21a5.76,5.76,0,0,1,1.83-.79l-.16.51c1.8-.92,2.43-.14,4-1.37.15,0-.08.26-.2.38,1.43-1.25,1.52.24,2.92-1.13-.06.17.19.27.16.41l.67-.54.14.57.33-1,.67.39.21-.37c1.19.75,2-.46,3.45-.07l-.44-.62c2.32-2.43,6.74-1.48,9.92-3.3l.13.57,1.19-1.13c.9.18-.3.62,0,.82,1.41-.8.36-1,2.07-1.76,1,.07-.18.51-.54.85,1.56-.83,3.89-1.94,5.17-2,0-.09,0-.21,0-.22a23.69,23.69,0,0,1,3.76-1.26c0,.26-.24.4-.52.55.44-.11,1.1-.12,1.39-.5l-.31.62c1-.2,2.63-1.21,3-.71-.18-.18-.26-.61.55-.84.71.7,2.09-1,3.53-1-.09.25-1,.58-.76.51.72,0,1.18-.55,1.68-1l-.07.4,2.85-1.4c.33.37,1,.15,1.47,0a4.12,4.12,0,0,1,.65-.22c.1,0,.14,0,.16.2.4,0-.42-.31.09-.52.18.34.5-.26.47.33l0,.07.34-.08q-.13.3-.24.6a2.67,2.67,0,0,0,.68-1.19c.24.31.79.11.67.67l-.17.12c.44-.05.5.48.42.88s-.18.65.37.54c-.07.08-.21.17-.23.1a1.24,1.24,0,0,1,0,.33l-.44.15a1.47,1.47,0,0,1,.69.24l-.29.07a1.43,1.43,0,0,0-.08.6c-.06,1-.12,2.12-.18,3.1l-.1-.32c.22,2.22-.49,2.08-.34,3.7a.28.28,0,0,1-.1-.18L749,464.7l-.25-.34c.51,1.12-1.11,2.95-.52,2.35.21.62.43,1.69.77,1.9-.13,1.57-.41.35-.75,1.29-.15,1.13.33,1.38-.09,2.88l-.28-.06c0,.72.14,1.19.08,2.19l-.11-.31c.44,1.68-1.06,1.94.07,3.34-.3.66-.25,2-.82,1.85.16,2.07.17,3.66.2,5.7-1,.22,0,.43-.65,1.6l.52,0c-.23,2.85-1.81,6-1.93,9.15l-.52,0,.5.69c-.59,3.35-1.23,7.7-1.52,10.39A8.51,8.51,0,0,1,744,511l-.06-.15a33.41,33.41,0,0,1-.57,7.7c-.19-.19-.37.06-.48-.25.5.69-.13,1.56-.2,2.13l.45-.63a2,2,0,0,1-.59,2.19l.43,1.26c-.06.07-.15.18-.24.19l.25.24-.73.57c.1.31.11,1.91.7,2.47-.23.09-.52,1.19-.55.31l-.65,4.35.31-.65c.51,0,.7,1.31.4,2-.32-.93-.71-.14-1.13.2.22.62.51-.47.75-.13a4.73,4.73,0,0,1,0,2.75L742,535c.08,1-.84,1.42-.9,2.42.31.94-.13,1.56.76,1.47,0,1.31-.64.44-.77.85a2.82,2.82,0,0,1-.57,2.62c1.21.84-.81,3.45.23,3.82l-.71,1a1.2,1.2,0,0,1,.93,1.21c-.39.78-.87.54-1.19.76l1,.65a38.5,38.5,0,0,0-1.54,7.76c-.18,1.39-.35,2.79-.57,4.15l-.08.51a.36.36,0,0,1,0,.09l-.11.11a.42.42,0,0,1-.29.11,3.67,3.67,0,0,1,.35.78c.1.33.15.7.06.81l-.11-.24s-.15-.1-.24-.19l-.25-.27a7.8,7.8,0,0,0,.61.81c0,.15.08.41,0,.34-.44-.43-.79-.86-1-1.11a1.82,1.82,0,0,0-1.28-.46.81.81,0,0,1-.2.11l-.08,0-.16,0a1.23,1.23,0,0,1-.46-.19,1.12,1.12,0,0,1-.4-.6c-.16-.45-.29-.93-1.44-1a4.58,4.58,0,0,0,.56-.16,56.41,56.41,0,0,0-5.73-1.76c.87-.9-1.29-.77-.78-1.21l-.42.32c-.28-.53-1.25-1.27-.91-1.47l-1.2,0,.2-.48c-1.11-.78-3.79-2-3.78-3.32-3.23-1.25-7.46-4.63-10.78-7.4a6.38,6.38,0,0,1-2.57-1.34l-.47-1.13c-.91-.47-2.23-.51-2.74-1.41a.2.2,0,0,1,.18-.05c-.89-.54-1.46-1.39-2.57-1.54-.87-.72-1.54-1.66-.92-1.89-.71.73-1.81-1.6-1.81-1.6s-2.77-2.37-7.29-6a178.93,178.93,0,0,0-18.24-13,91.6,91.6,0,0,0-23.75-10.58c-7.86-2.12-14.83-2.4-18.71-1.49-.57.44-2,.6-1.52,1.25-1.07.06-1.47-.87-1.72-.4,1.4.5-.56,1.24.76,2l-.89,0c-.22.33,1.24-.27,1,.35l.34-.9a2.16,2.16,0,0,1,1.29.81c.71-.27,1.33-1.53,2.86-.71l-.45,0c1.32.19.71.74,1,.93l-.29,0,1,.65c-.78-.45-2.26.06-1.54.13,1.5.52-.36-.29.81-.21.73.08.44.53.36.81l1.29.19c-.12.42-.84-.17-.41.36.56-.06,1.13-.13,1.69-.17.08,1.14,1.85-.13,2.35,1.05-1.19,0,0,.38-.24.69.93.18,1.86.36,2.77.61.22.22-.8.13-.37.19.43.44.91,0,1.19.07.15.35,2,.55,1.76,1.23,1.67,1,1-.63,2.61.32.09.49-1.38-.35-.77.34l1.81.42a1,1,0,0,1-1.2.26c4.53,2.2,6,5.34,10.25,6.74.34.74-.56.12-1.11.24a5.93,5.93,0,0,1,3.26,2,10.28,10.28,0,0,0,2.65,2.32l.25-.35c2.66,3,6.94,4.77,10.23,7.69l-.26-.54a7.68,7.68,0,0,1,2.26.74c0,.25-.95.46.19,1-.13-.28-.47-.72-.22-.81a41.57,41.57,0,0,0,6,5.46c2.52,2.07,5.32,4.29,7.64,6.44,6.93,5,13.79,11.5,21,16.33-1.09-.74,0-1.28.65-.5a4.82,4.82,0,0,0,2.68,2.7,7,7,0,0,1,3,2.34c4.57,2.31,7.72,6.08,12.68,7.14l-.16.49a1.3,1.3,0,0,0,.72.42c.13,0,.2,0,.41.09a4.56,4.56,0,0,1,.74.27l-.09.11a38.28,38.28,0,0,0,4.12,1.92l1.84.8a12.19,12.19,0,0,1,1.55.71l.09-.59c1.65.64.91.87,2.57,1.21v.31l1.86.19c0,.57,1.25,1.1,2.64,1.61a19.15,19.15,0,0,1,3.73,1.58l1.86.58.13,0s0-.1,0-.15l0-.34.05-.69.1-1.44a50.36,50.36,0,0,1,.68-5.53c.27-.09.58-1.16.83-2.68s.51-3.36.79-4.78c.17-2.23.39-5,.62-7.81.16-1.92.37-3.94.65-5.83h-.66l.06-1c.14,0,.23-.1.29.06.82-.69,0-2.32.54-3.07-.64.44-.16.69-.23,1.25-.4.79-1-.06-.51-1.12l.14,0-.27-.78c.52,0,.83-.69,1.34-.73.22-3.28-.43-5.6.15-9,.53.41.11-2.44,1-1.66-.16-2.07-.83.25-1.43-.75.07-.56-.14-1.18.24-1.25.21.29.64-.4.69.07l.06-1.36c.09-.12.2.19.24.35-.28-2.82,1.15-4.83.83-7.36-.34-.22-.2,1-.54.76-.47-2.57.86-2.14.59-4.51l.44.53c-.26-.79-.65-1.16-.13-2.35.61-.16.37,1.09.58,1.72.11-.85.18-3-.42-2.41-.08-1,.47-1.35.69-1.88-.14,0-.49.91-.7.29a30.31,30.31,0,0,0,.9-5.17c.14,0,.37-.07.43.09C757.83,514.85,759.11,515.13,759.14,513.25Z"/><path class="cls-1" d="M727.51,448.78l.69-.13c0-.12-.06-.27.2-.5Z"/><path class="cls-1" d="M761.66,453.43a2.26,2.26,0,0,0,.17.35C761.8,453.52,761.73,453.45,761.66,453.43Z"/><path class="cls-1" d="M761.91,463.14c-.07-.57-.27-.09-.45.17A.45.45,0,0,0,761.91,463.14Z"/><path class="cls-1" d="M710.48,456.23c.09-.09.14-.19.08-.3C710.44,456.08,710.43,456.17,710.48,456.23Z"/><path class="cls-1" d="M662.76,474.71H663A.33.33,0,0,0,662.76,474.71Z"/><path class="cls-1" d="M665.72,474.4a2.3,2.3,0,0,0,.5-.3A1,1,0,0,0,665.72,474.4Z"/><path class="cls-1" d="M722.13,452a1.08,1.08,0,0,0,.45-.34A.78.78,0,0,0,722.13,452Z"/><path class="cls-1" d="M666.7,473.75l.68-.23a1,1,0,0,0,0-.11Z"/><path class="cls-1" d="M661.9,475a8.71,8.71,0,0,1,.86-.29A1.24,1.24,0,0,0,661.9,475Z"/><path class="cls-1" d="M693.13,463.44l.07,0C693.63,463,693.34,463.2,693.13,463.44Z"/><path class="cls-1" d="M669.18,471.6l.1,0,.13-.23Z"/><path class="cls-1" d="M659,476.05a.76.76,0,0,0,.28-.25l-.4.11A.3.3,0,0,1,659,476.05Z"/><path class="cls-1" d="M682.84,466.54a.84.84,0,0,0-.08.54C683,467,683.08,466.84,682.84,466.54Z"/></svg>