<svg id="Layer_1" data-name="Layer 1" xmlns="http://www.w3.org/2000/svg" viewBox="0 0 841.89 595.28"><defs><style>.cls-1{fill:#3f3b3c;}</style></defs><path class="cls-1" d="M720.31,348.63a.52.52,0,0,0,.26-.16C720.39,348.5,720.32,348.56,720.31,348.63Z"/><path class="cls-1" d="M658.24,314.6l.79.27C658.54,314.64,658.34,314.58,658.24,314.6Z"/><path class="cls-1" d="M757.63,368.75h-.12l2.63,1.42Z"/><path class="cls-1" d="M525.07,243.52l.84.43A7.55,7.55,0,0,0,525.07,243.52Z"/><path class="cls-1" d="M603.92,285.77a4.86,4.86,0,0,1-1.15-.39C603.28,285.66,603.7,285.85,603.92,285.77Z"/><path class="cls-1" d="M774.93,384.07l-.9-.89C774,383.33,774.28,383.68,774.93,384.07Z"/><path class="cls-1" d="M813.83,402.48s0-.07-.06-.13S813.75,402.41,813.83,402.48Z"/><path class="cls-1" d="M799.61,393.39c-.34-.14-.74-.27-1.15-.41C798.92,393.21,799.5,393.51,799.61,393.39Z"/><path class="cls-1" d="M797.91,392.8l.55.18C798.17,392.85,797.93,392.74,797.91,392.8Z"/><path class="cls-1" d="M26.43,16.86a15.09,15.09,0,0,0-3.21-1.15Z"/><path class="cls-1" d="M403.74,180.55l.31,0C403.8,180.46,403.74,180.49,403.74,180.55Z"/><path class="cls-1" d="M23.51,19.05l-.73-.48A3.65,3.65,0,0,0,23.51,19.05Z"/><path class="cls-1" d="M754.23,374.5c-1.27-.24-3.33-1.81-3.48-1.48C751.94,373.58,753.47,374.68,754.23,374.5Z"/><path class="cls-1" d="M371.6,180l-.74-.35A6.82,6.82,0,0,0,371.6,180Z"/><path class="cls-1" d="M23.51,19.05l.85.56a3.49,3.49,0,0,0-.18-.31A3,3,0,0,1,23.51,19.05Z"/><path class="cls-1" d="M275.66,117.8l0,0,.29.06Z"/><path class="cls-1" d="M269,114.12l1.53.55A4.62,4.62,0,0,0,269,114.12Z"/><path class="cls-1" d="M23.22,15.71l-1.84-.66A11.36,11.36,0,0,0,23.22,15.71Z"/><path class="cls-1" d="M193.57,82.73c.24.09.48.16.71.23A3.75,3.75,0,0,0,193.57,82.73Z"/><path class="cls-1" d="M608.92,288.6c.15.12.36.25.55.38C609.57,288.93,609.56,288.86,608.92,288.6Z"/><path class="cls-1" d="M554.42,271.58h0Z"/><path class="cls-1" d="M557.29,272.54a7.91,7.91,0,0,0-2.87-1A8.87,8.87,0,0,0,557.29,272.54Z"/><path class="cls-1" d="M548.78,268.44l.29.21A1.42,1.42,0,0,0,548.78,268.44Z"/><path class="cls-1" d="M602.08,296.87s0,0,0,0h-.05Z"/><path class="cls-1" d="M591.43,291.43a4.32,4.32,0,0,0-.65-.53A3.24,3.24,0,0,0,591.43,291.43Z"/><path class="cls-1" d="M521.85,255.69h0l-.06,0Z"/><path class="cls-1" d="M420.46,206.32c10.15,5,23.52,11.06,33.38,16.41,2.52.44,5.7,2.05,9,3.54l-.13,1.08,2.8,1.08c.93.84-2.13-.88-.4.45l1.29,0c0,.44,6.7,3.74,1.91,2.09l10.29,5.33c2.26,1.21,1.73-.06,4.12,1.46.38.53-1-.28-1,.15,7.21,4.58,9.64,2.76,16.47,6.82l-.66-.19c1.32.38,3.59,1.59,3.68,1.48-.43-1.39-1.52-.16-3.39-1.82.59-.67,2.9,1,3.06.32,1.5,1.13,2.7,1.19,4.16,1.89,2.2,1.75,5.89,3.23,7.43,4.79,1.32.38,3.06.32,5.65,1.62,1.54,1.56-.73.35,1.67,1.88l.63-.24c2,1.14,1.64,1.1,1.46,1.27,2.2,1.16,2.15.34,4.77,2.06l-1.77-.37a56.73,56.73,0,0,1,5.76,2.91c-.19.23-1.33-.38-2.13-.89,1.21,1.46,2.8,1.09,3.6,1.59-.14-.32-2.07-1.43-.87-1.37,1.37.81,3.32,1,4.06,2l-1.77-.37c3.13,1.18,1.87.26,5.16,2.18-.2-.06-.16.1-.29.15,2.44.54,5,2.51,8.12,4.19l-.67-.19c1.36.51,2.27.47,2.94.86-1.67-1.19-1.11-1.06-1-1.58,2,2,4.09,1,7.76,3.49-.2.22-1.3,0-2.23-.78-1.72.07-2.22.62-4.78-.25,1.57.59,3.36,1.38,2.83,1.51l.83-.47c.9.45,1.58.86,2.26,1.21.61-.25-1.43-1.67.79-.89,2.46,1,.87,1.37,1.4,1.24,3.36,1.39,1.72-.06,4.7,1.77a4.18,4.18,0,0,1-1.24-.5c2.07,1.44,5.52,2.7,5.73,3.89a1.55,1.55,0,0,1-1.42-.27l.1-.11c-2.76-.65,2.12.89,1,1.25.07-.54,3.14,1.18,4.5,2l-.18-.75c5.49.88-.78.9,4,3.1,3.12,1.17-1-.72.95-.15,1.94,1.11,2.44,2,5.46,3.24.71.62,2.21,1.76,2,2.41,1.89.68,5.23,3,6.52,3-2.76-2-3.32-.95-6.45-3.53l1.28-.06c2.42,1.3,5.7,2.63,7.28,3.71-.29-.29-.36-.51-.09-.52,3.59,1.59,4.89,1.54,8.18,3.47.18.74-1.75-.37-3.22-1.07,2,1.54,2.26,1.21,5.56,3.13-.05.55-2.26-1.21-2.88-1l3.82,1.8s0,.05,0,.09c.94-.48,2.83,1.55,5.24,2.51,5.42,2.82,6.78,2.23,10.1,3.18.71.62.84.94.41,1-1.16-1-1.06-.64-1.63-.68,1.87.87,3.62,2.82,2.44,2.6,3,1.29-.84-.95,1.06-.26l4,2.12c-.27-.64-1.64-1.45.58-.68,1.8.8,2.6,1.31,4.86,2.52-.43,0,.42,1-1.28,0a8.45,8.45,0,0,0,3.59,1.59c-2.31-1.64,4.26,1.78,2.71.22l2.31,1.64c-.57-.3-.76-.08-1.56-.59.4,1,2.12.89,3,1.28.82.57,3.07,1.8,3.14,2.13a7.09,7.09,0,0,1,2.93,1.86c1.23.49.3-.34.73-.35l4,2.11c0,.44-.09,1.51-.76,1.33,1.67.47,1-.69,3.3.52-1.63-.05,2.76,2.05.47,1.82,1.07,1.14,4.8,3.05,6.93,3.94,1.53.16-2.07-1.43-1.67-1.88,5.85,2.8,6.94,1.57,11,4l-1-.71a16.94,16.94,0,0,0,4.22,1.35c-1.06.26,2.11,3.26,6.51,5.37.53-.13-2.11-1.87-1.14-2l2.92,1.4c.18.16-.19.1-.6,0,2.7,1.11,4.37,3.31,5.5,2.95l2.13,2.29-.83-.93c.52-.13,3.46,1.27,4.13,1.46a14,14,0,0,1,5.46,3.25c-.37-.53-1.34-1.79,1-.69-.56,1,4.67,2.91,4.32,3.41.95.47,2.44,1.65,2.77,1.28l-.49.56c.69-.78,4.08,1,6.78,2.23-1.22.91,2.93,1.39,3.51,3.1.92-.57,4.82,2.08,5.65,1.62,2,1,1.43,1.67,1.81,2.2l1.09.18c.82.91,4.57,2.93,6.68,4.36l2.48.36.6.73c.43,0,2.23.78,1.29,0l1.11.63c.5-.75,1.7.6,4.14,1.44.46.4.22.52-.32.37,1.12.59.42.75.9,1.33-.69-.61,4.81.68,1.95-1.26,0-.43,1.86.25,2.9,1l.3,1.07,1.72-.07c1.8.8,2.3,1.64,3.67,2.45-1.46-.7-3.92-.28-.19,1.63a27,27,0,0,0-4.26-1.39c.75.42,1.1.69-.25.38,3,1.28,1.2.06,4.12,1.46-.49.56.21,1.18,2.61,2.7l-1.64-1.44a.86.86,0,0,1,.45,0c-.68-.44-.83-.64-.85-1,.56.3,3.75.94,4,1.57-2.37-2.5,5.46,1.85,3.92.29.42,0,2.45,1,2.5,1.41-2.66-.76,1.43,1.67.81,1.92,1,.28-1.65-1.46-.31-1.08a12,12,0,0,1,3,2.26l-.66-.19,2.07,1.44c.53-.13-1.87-1.66.26-.77.47.42,2.6,1.31,2.4,1.53-1.2-.06-.79.89-2.59.1,1.47.7,6.1,3,4.55,1.44l1.71.92c-.94-.84-3.71-2.89-.21-1.19l-.1.12,2.66.75.87.88c.05-.18.51-.13,1.39.34.14.31.94.82.74,1,2.6,1.31,2.55.88,3,.86,1.46.7,1.94,1.12,1.07,1.15,1.93,1.11,5.42,2.81,6.6,3.85,2.8,1.09-.48-.41,1.3-.05,1.7,2.31,8.52,5,12.91,7.06-.67-1.58,1.23.5,2.49,0-1.09-.17,3.7,2.88-.22,1.2l2.36,1.09c1.3,1.36-4-1.57-2,.4,2.6,1.31,4.85,1.12,7.71,3.05-1.38.17,2.46,1,1.31,1.36a9.44,9.44,0,0,1-2.46-1l.46.42c5.57,3.13,2.07,0,5.28,1.09,3.5,1.7,2.44,2,2.48,2.39a12.78,12.78,0,0,0,3.26,1.5c-2.33-.67-3.67-2.46-2.47-2.39,1.11,1.57,5.09,2.72,6.19,2.89-4.5-3.39-3.39-1.81-7.56-5.11-.77-.08-1,.69-3.66-1.05,1.93.56.08-.45-.35-.82.33.68-2-.83-3-1.1-.6-.73,2.15-.08-.58-1.71l-1,.69c-1-.72.84-.46-1.63-1.45,1.53.16,0-1,3.28.52-3.36-2.78-6-2.57-9.17-3.75.33.1.43,0,.76.08a12,12,0,0,1-2.79-1.08c-1.83-1.22,1.76.36,1.39-.16L798,392.91c-.05-.06-.05-.09,0-.11-.9-.29-1.73-.62-1.9-1,1.1.17,1.63,0,2.39.12l-3.65-1.05c.53-.12-2.44-1.95,0-1l-5-2.4-.08-.86c-1.23-.49-1.33-.38,0,.42-1.59-1-8-2.7-6.46-3.52-4.11-1.46-5.39-2.39-10.2-4.47,3.88,1.25-3.71-2.88.22-1.2-2.07-1.43-2.9-1-4.7-1.76-1.49-1.13-.43-1.38,1.46-.7l-2.23-.79.1-.11-2-.57c-1.73-1.34-.06-.86-2-2l-.72.35-1.17-1c.37.52-.87,0-2.33-.67l.1-.11-1.8-.8c1.91.55-1.53-.95-.53-.95-1.47-.8-1.51-.81-4.26-2.1l.27.64c-3.7-1.49.15-.66-2.68-2.17l-.06.54c-3.7-2.88-7.18-3.18-9.95-5.23,1.79.79,1.62,0,1.52.15-2.7-1.19-6.89-3.51-9.88-4.37-.64-1.16-.77-1.48-3.4-3.22-2-1-2.37-1.09-3.23-1.06-1.82-1.26-5.68-2.79-5.53-3.31-.65.14-1.72-1-3-1.23l-.12-.31-.07.54c-2.94-2.81-6.15-2.47-9.19-5.16l.66.19-1.56-.58c-.13-.32.53-.13.73-.35L701,338.1l1.17,1c-1.46-.7-2.66-.76-4.16-1.89,3.09.74-2.26-1.21-2.43-2l1.56.59c-2-1-2-1-2.1-.46-2.68-1.19-1.34-1.79-4-2.55l1.7.91c.37.52-1.06.26-2.19-.34-.24-.21-.94-.84,0-.44-2.14-.89-5.09-2.72-6.09-3-1-.72-.51-.85.16-.66-4.59-1.87-1.94-1.11-6.53-3l.2-.22-1.66-.48L674.72,324l.6.74a29.85,29.85,0,0,1-4.06-2l.87,0c-4.17-1.89-4.37-3.07-8.5-4.54-.23-.2.43,0,.77.09-3.89-1.26-2.35-2.08-6.33-3.22.29,0,0-.37.17-.41l-1.76-.6.39-.45-1.73.06-.73-1.05-.77-.08c-1.24-1.89-4.1-2.43-6.11-4.41l.08.86c-6.74-1.79-13.43-7.91-21-11.07l.39-.44-3.32-1c-1.4-1.24,1.2.07.83-.46-3.37-1.39-1.74.06-5.56-1.73-1.73-1.34.87,0,1.86.25a90.5,90.5,0,0,1-11.3-5.54c-.1,0-.3,0-.18.15-2.47-1-5.43-2.82-8-4.12.19-.21.84.09,1.51.37a12.26,12.26,0,0,0-3-1.5l1.2.06c-1.93-1.11-6-2.69-6.13-3.44.14.32-.16.66-1.86-.25-.54-1.28-4.83-2.08-7.35-3.93.42,0,2.45,1,1.89.68a11.89,11.89,0,0,0-4-1.57l.54-.13-6.63-2.88c-.54-1.27-6.09-3-5.36-3.35-2.27-1.21,1.74,1.34-1.2-.07-.6-.72-2.69-1.19-2.3-1.64l.33.1-2-1,1.53.16c-1.8-.79-3.33-.95-3.62-.61-1.5-1.13-4-2.12-4.47-3l.68.19c-4.74-2.19-7-5.35-11-6.38-.23-.21-.14-.32.43,0l-2.84-1.51.88,0-5-1.86.19-.23c-3.07-1.72-8-4.12-12.08-6.12l.66.19c-4.59-1.87-4.1-2.44-7.46-3.82a.89.89,0,0,1,.4.07L522.18,242l.76.09c-2.42-.56-5.73-3.89-4.66-2.74-1.33-.38-3.57-1.17-4.09-1-3.16-1.6-.6-.72-2.44-2-2.26-1.21-2.89-1-5.86-2.8l.2-.23c-1.46-.7-2.46-1-4.49-2l.66.19c-3.55-1.16-3.69-2.88-6.85-3.09-1.27-.92-4-2.11-3.57-2.56-4.26-1.78-7.51-3.27-11.67-5.17-.22-1.18-.9-.39-3.11-2.15l-.05.55c-5.77-2.91-11.78-7.44-18.2-10.53l.06-.55-1.52-.16c-6.7-3.74-15.42-8.48-20.85-11.29a41.22,41.22,0,0,1-7.63-3.16l.33.09c-5.06-2.28-10.36-4.78-15.61-7.8.44,0,0-.43.64-.24-1.54-.15-3.17-1.59-4.31-2.2l1.17,1a9.34,9.34,0,0,1-4.34-2.63l-2.67-.75c-.13-.13-.35-.33-.34-.41l-.55,0-1-1.26c-.67-.18-3.95-1.67-5.24-1.61-.13-.31-2.31-1.63-.51-.84l-8.76-4.69,1.28.91c-.06.54-2.87-.52-4.14-1.43,2,.55.48-.57-.13-1.29-1.33-.37.85.93.08.86a24.2,24.2,0,0,1-5.65-2.54l1,.27c-2.14-.87-2.69-2.14-4.74-3.13-2-.56-3.18-1.57-3.2-.6-2.71-1.17-.74-1-1.56-1.55-1.43-.25-5-2.33-5.27-3-2,.43-6.9-4-7.92-3.27l-1.89-1.63c-.2.22-.92.59-2.73-.18-1.52-1.1-.9-1.35-1.28-1.87l-1.59.41c-9-5.77-22-11.27-32.16-17.18-4.82-2-10.94-4.47-16.41-7.17l.67.16-5.36-2.84,3.77,2.32a32.16,32.16,0,0,1-3.42-1.26c-2.92-1.61-6.32-3.5-10-5.32s-7.54-3.59-11.38-5.05c-5.33-1.08-2.74-2.47-7.76-3.73.45.08.67,0,1.07,0-5.17-1.86-8-2.88-13.27-4.45,1.08-.87-3.26-1.43-2.56-1.81l-.62.27c-1-.76-3.58-2-3.06-2.17l-2.47-.4,0-.55c-2.93-1.31-9.41-3.68-10.55-5.29-7.63-2.39-19.08-7.51-28.25-11.42a32.55,32.55,0,0,1-6.29-2l-2-1.47c-2.23-.67-4.8-.86-6.66-2,0-.06.14-.07.3,0-2.24-.75-4.2-1.87-6.45-2.15-2.38-1-4.6-2.2-3.66-2.44-.6.86-5-2.09-5-2.09l-5.34-2.14-14.34-5.62c-12-4.66-28.37-10.8-45.58-17.3S77.94,37.49,62.47,31.23s-28.4-11.81-36-14.37c-1.18-.07-3.94-1.19-3.22-.13-2.11-.92-2.61-2.19-3.24-2,2.58,1.77-1.48.67.91,2.67l-1.79-.83c-.52.12,2.54.91,1.81,1.25l.94-.55a7.82,7.82,0,0,1,2.34,2c1.5.38,2.9-.24,5.8,1.87l-.9-.39c2.6,1.28,1.31,1.34,1.77,1.75l-.56-.3,2,1.53c-1.51-1.12-4.59-1.84-3.13-1.16,3,1.81-.7-.61,1.67.47,1.46.69.83.93.64,1.15L34,25.51c-.29.34-1.7-.89-.86,0l3.47,1.25c.12,1.3,3.81,1.26,4.86,2.92-2.48-.91,0,.44-.48.57L46.87,33c.49.4-1.68-.41-.77,0,1,.78,1.93.59,2.52.87.39.51,4.39,2,3.92,2.59,3.79,2.27,2.05-.05,5.62,2,.31.62-3-1.2-1.54-.06l4,1.56a3.23,3.23,0,0,1-2.46-.41c2.56,1.29,4.78,2.54,6.83,3.76l5.8,3.44A63.41,63.41,0,0,0,83.15,52.6c1.17,1-1.12-.07-2.23-.15,7.31,2.22,9.51,5,15.57,7.36l.26-.36c7.93,4.53,18.37,7.62,27.7,11.7l-1-.71a39.62,39.62,0,0,1,5.22,1.25c.17.3-1.45.45,1.38,1.31-.52-.36-1.63-.94-1.21-1C136.6,76.1,154,82.22,167.14,87.8c9.1,3.27,18.41,7.09,27.67,10.9s18.43,7.77,27.2,11.38c-2.68-1.09-1.13-1.6.78-.53,4.78,4,9.65,3.74,14.74,7.32,10.39,3.84,18.74,9.33,28.69,12.27l0,.55c1.3.85,1.83.7,3.32,1.33l-.1.11c3.39,1.77,7.8,3.22,9.68,4.35l.37-.47c2.08.9.88.9,3.13,1.57l-.18.23,2.68.65c-.66.81,5.75,2.79,7.2,4a115.75,115.75,0,0,1,11.88,5.16c.52.82,5.44,3.17,8.46,4.91,6.16,2.81,14.93,6.9,22.59,10.86l.15-.66,2,1c-.09.11.14.31-.19.23,1.23,1.44,4.76,2.09,6.17,3.31-.75-1-1.37-.78-2.51-1.37-1.52-1.1.34-.88,2.43.51l-.1.11,1.67.45c-.05.54,1.23,1.44,1.18,2,6.69,3.18,11.59,4.68,18.32,8.31-1,.15,5,2.35,3.16,2.54,4.27,1.74-.32-1.06,1.87-.74,1.14.6,2.47,1,2.51,1.39-.65,0,.66,1-.32.62l2.78,1.32c.22.2-.44,0-.77-.07,5.84,2.31,9.6,5.58,14.85,7.62.54-.12-1.94-1.1-1.41-1.23,5.36,1.92,4.15,2.84,9.08,4.78l-1.2-.06a11.25,11.25,0,0,1,4.83,2.06c.17.75-2.33-.66-3.65-1,1.7.89,6.09,3,5,1.84a13.46,13.46,0,0,1,3.68,2.44c.1-.11-1.74-1.33-.41-1,2.63,1.73,6.94,3.93,10.33,5.73-.1.11,0,.43-.29.34C417.51,203.51,416.63,204.52,420.46,206.32Z"/><path class="cls-1" d="M603.42,297.67l-1.34-.8c-.06.12-.19.22-.89,0Z"/><path class="cls-1" d="M538.39,263.58a2.91,2.91,0,0,0-.56-.11C538.17,263.62,538.31,263.62,538.39,263.58Z"/><path class="cls-1" d="M522.08,256.29c1.19.48.26-.18-.23-.6C521.77,255.78,521.73,255.92,522.08,256.29Z"/><path class="cls-1" d="M641.06,315.42c-.27-.08-.45-.08-.46.05C641,315.54,641.07,315.51,641.06,315.42Z"/><path class="cls-1" d="M742.94,368.64c-.12-.09-.23-.16-.37-.28A1.71,1.71,0,0,0,742.94,368.64Z"/><path class="cls-1" d="M737.71,364.91a10.34,10.34,0,0,0-1.2-.53A5,5,0,0,0,737.71,364.91Z"/><path class="cls-1" d="M616.22,302.8a4.18,4.18,0,0,0-1.16-.39A3.26,3.26,0,0,0,616.22,302.8Z"/><path class="cls-1" d="M735.28,363.89l-1.39-.79s-.06,0-.08.09Z"/><path class="cls-1" d="M744.7,369.64c-.55-.31-1.3-.7-1.76-1A5.62,5.62,0,0,0,744.7,369.64Z"/><path class="cls-1" d="M678.87,334.16l-.16-.07C677.49,333.74,678.23,334,678.87,334.16Z"/><path class="cls-1" d="M728.59,361.55l-.18-.12-.48-.07Z"/><path class="cls-1" d="M750.75,373a3.69,3.69,0,0,0-.76-.27l.78.48A.23.23,0,0,1,750.75,373Z"/><path class="cls-1" d="M699.83,346c.5,0,.72,0,.78-.12C700.14,345.66,699.79,345.59,699.83,346Z"/><path class="cls-1" d="M715.83,345.68a.72.72,0,0,0,.13.24A.49.49,0,0,0,715.83,345.68Z"/><path class="cls-1" d="M737.21,330.69,737,331C737.19,330.84,737.23,330.76,737.21,330.69Z"/><path class="cls-1" d="M704.34,356.38l0-.07-.75.81Z"/><path class="cls-1" d="M770.48,331.21l-.2-.3A1,1,0,0,0,770.48,331.21Z"/><path class="cls-1" d="M756.76,319.3a.84.84,0,0,1,.3-.38C756.86,319,756.73,319.11,756.76,319.3Z"/><path class="cls-1" d="M694.6,359.28l.59-.13C695.05,359.05,694.82,359.08,694.6,359.28Z"/><path class="cls-1" d="M686.5,373.72h.1S686.54,373.7,686.5,373.72Z"/><path class="cls-1" d="M691.2,369.15c0-.14.07-.31.11-.48C691.21,368.84,691.08,369.05,691.2,369.15Z"/><path class="cls-1" d="M691.35,368.44l0,.23C691.37,368.57,691.41,368.48,691.35,368.44Z"/><path class="cls-1" d="M708.77,382.2a2.59,2.59,0,0,0-1.34.37Z"/><path class="cls-1" d="M797.52,375h-.19C797.42,375,797.48,375,797.52,375Z"/><path class="cls-1" d="M707.84,385.43l-.32-.11A.72.72,0,0,0,707.84,385.43Z"/><path class="cls-1" d="M699.44,351.85c0-.62,1-1,.76-1.27C699.9,351,699.19,351.33,699.44,351.85Z"/><path class="cls-1" d="M815.23,376.74l.18.25A1,1,0,0,0,815.23,376.74Z"/><path class="cls-1" d="M707.84,385.43l.37.13a1.76,1.76,0,0,0-.09-.2A.58.58,0,0,1,707.84,385.43Z"/><path class="cls-1" d="M808.33,397.27h0l0-.07Z"/><path class="cls-1" d="M807.07,396.34l.63,0A.82.82,0,0,0,807.07,396.34Z"/><path class="cls-1" d="M707.43,382.57l-.76.21A2.21,2.21,0,0,0,707.43,382.57Z"/><path class="cls-1" d="M776.74,390.19H777A.58.58,0,0,0,776.74,390.19Z"/><path class="cls-1" d="M754.8,320.13c-.07,0-.17,0-.25,0S754.61,320.31,754.8,320.13Z"/><path class="cls-1" d="M772.27,312.5h0Z"/><path class="cls-1" d="M771,311.32a2.62,2.62,0,0,0,1.28,1.18A2.9,2.9,0,0,0,771,311.32Z"/><path class="cls-1" d="M773.53,314.88l0-.14A.29.29,0,0,0,773.53,314.88Z"/><path class="cls-1" d="M750.4,310.58l0,0v0Z"/><path class="cls-1" d="M754.4,308.3a.88.88,0,0,0,.36,0A.74.74,0,0,0,754.4,308.3Z"/><path class="cls-1" d="M780.35,323.83h0Z"/><path class="cls-1" d="M805.16,358.38c-2.44-3.5-6-7.78-8.06-11.48-1.14-.37-1.87-1.49-2.73-2.55l.8-.66-.88-.78c0-.55.62.63.52-.26l-.76,0c.26-.27-1.32-2.57.3-1.36L792,337.56c-.48-.83-1,0-1.37-1.06.14-.35.38.21.64-.05-1-3.12-3.63-2.09-4.82-4.87l.25.14c-.5-.29-1-1.13-1.11-1.06-.67.87.75.16.72,1.25-.78.4-1-.71-1.52-.31-.11-.76-.74-.85-1.11-1.34-.09-1.17-1.21-2.23-1-3.25-.5-.29-1.53-.32-2.14-1.23.17-1,.65-.19.3-1.22l-.52.12c-.39-.79-.2-.74,0-.84-.48-.81-1-.3-1.35-1.46l.77.29a7.66,7.66,0,0,1-1.34-2c.26-.13.5.29.61.64.29-.95-.86-.78-1-1.13-.14.21.22,1-.42.88-.23-.55-1.25-.72-1-1.4l.76.3c-1-.85-.89-.23-1.48-1.55.07,0,.15-.06.26-.08-1-.43-1.16-1.75-1.83-2.91l.25.14c-.43-.37-1-.38-1.09-.65.16.8-.08.7-.45,1,.08-.65-.33-.85-.81-1.1a3.24,3.24,0,0,1-.74-.46,1.59,1.59,0,0,1-.32-.39,3.35,3.35,0,0,1-.34-.71.5.5,0,0,1,.52.11.86.86,0,0,1,.26.3.6.6,0,0,1,.08.35c1,0,1.67-.29,2.55.35-.5-.42-1-1-.61-1l-.77.25a3.75,3.75,0,0,1-.27-.44l-.35-.61c-.54.1-.09,1.42-1,.52s.23-1.16-.17-1.12c-1.3-1.5-1.05-.08-1.85-1.87.14.1.42.3.46.5-.52-1.43-1.82-2.64-1.54-4,.22,0,.4-.3.65.26l-.09.13c1.25.69-.82-1-.1-1.43-.21.63-1.25-1.26-1.72-2.19l-.08,1a3.71,3.71,0,0,1-.63-.16.55.55,0,0,1-.17-.1l0,0-.07,0c-.14,0,0-.22.05-.54.21-.64.5-1.54-1-.66-1.89,1.41.64-.14-.55.93-1.14.47-1.57.11-3.36,1.31-.5,0-1.57.19-1.77-.44-1.09.86-3.68,1.56-4.08,2.48a4,4,0,0,0,2-1.06,4,4,0,0,1,2.28-.94l-.52,1c-.75.36-1.59.87-2.36,1.32-.39.22-.76.43-1.11.61a2.42,2.42,0,0,1-.71.29c.19,0,.32.16.3.32-1.2.94-1.27,1.71-2.64,2.24-.45-.42.34-.74.87-1.09-1.06.05-.88.45-2.26,1-.32-.41.88-.45.79-1l-1.35.92a.41.41,0,0,0-.05-.09c.22.86-1.12.53-1.86,1.24-2,1.19-1.76,2.37-2.52,3.61-.42,0-.62-.15-.6-.41.69,0,.45-.17.51-.47-.64.48-1.93.17-1.72-.35-1,.85.62.15.09.77l-1.51.83c.41.27,1,.05.38.78a10.35,10.35,0,0,1-1.76,1.12c0-.25-.62-.39,0-.77-.49.12-1.13.5-1.14,1,1.12-.24-1.29,1.27-.25,1.41l-1.11.24c.21-.13.07-.38.42-.51-.61-.39-.64.63-.92.89-.38.09-1.24.57-1.45.4-.19.33-1,.68-1.27.49-.35.39.21.38.2.64l-1.44.92c-.29-.25-1-1-.84-1.27-.35.65.42,1-.42,1.55.07-.9-1.38.28-1.19-.87-.76-.11-2.1.81-2.71,1.48-.12.78,1-.3,1.26.22-1.92,1.61-1.09,3-2.72,3.86l.48-.15c-.72.94-.66.8-.9,1.59-.17-.75-2.22-.82-3.6.48.1.38,1.25-.1,1.35.54l-.9.85c-.11,0-.08-.17,0-.34-.71.89-2.2.55-1.93,1.41l-1.54-.12.63.07c.1.37-.81,1.23-.92,1.5a2.4,2.4,0,0,1-2.11,1.26c.36.09,1.2.25.52,1-.74-.9-1.88,1-2.25.55-.3.27-1.08.46-.8.86l-.42-.59c.59.83-.59,1.72-1.29,2.63-.72-1.19-.84.92-2,.33.47.84-1.24,1.63-.84,2.35-.61.62-1.14-.07-1.51-.14l-.06.53c-.64,0-1.84,1.09-2.75,1.56l-.07,1.23-.5,0c0,.25-.4.87.14.76l-.38.31c.61.66-.31.65-.73,1.61-.26.06-.38-.13-.31-.37-.35.34-.54-.13-.94-.14.4-.09,0,2.4,1.15,1.72.33.19,0,.93-.44,1.17l-.78-.34.23,1c-.42.62-1,.51-1.5.89.39-.49-.19-2.07-1.28-.87a5.12,5.12,0,0,0,.63-1.75c-.25.23-.42.3-.31-.32-.69,1.1.07.65-.71,1.64-.48-.54-.89-.44-1.83.2l1-.25a.55.55,0,0,1,0,.25.54.54,0,0,1,.67,0c-.18.18-.33,1.67-.79,1.53,1.66-.19-.79,2.22.25,2.07.07.25-.46.93-.79.76.26-1.14-1.13.06-1.41-.4-.09.43.94-.27.81.31a2.26,2.26,0,0,1-1.4.67l.06-.28-.87.52c.17.35,1.07-.31.64.48-.26.08-.69.87-.9.67-.11-.64-.82-.82-.42-1.48a10.72,10.72,0,0,0-.81,1.22c-.21.44-.24.8.27.69l-.48.58c.53-.18,1.76-.87.91.37l-.1-.1-.21,1.16-.57.13c.15.1.18.33-.07.63-.23-.06-.52.18-.73,0-.66.9-.31,1.05-.24,1.29-.34.53-.61.62-.76.13-.63.61-1.42,1.88-2.06,2.14-.41,1.13.26-.1.26.73-.8,0-1.45.74-2,1.64-.28.45-.55.94-.79,1.43s-.45,1-.67,1.41c1.19.17-.18.5.48,1.33-.07-.53-1.67,1-1.05-.51l-.44.9c-.89.26.51-1.64-.75-1.21-.59,1,0,2.23-1,3.14-.44-.79-.28,1-.86.29-.1-.38.15-.67.31-1l-.26.12c-1.44,2.05.43,1.1.25,2.5-.66,1.35-1.13.72-1.49.62a2,2,0,0,0-.54,1.29c0-1,1.27-1.24,1.49-.62-1.11.13-1.17,1.9-1.06,2.42,1.88-1.4.77-1.27,2.65-2.51-.11-.37-.83-.74.06-1.61,0,.85.4.18.62.06-.5,0,.24-.83.28-1.22.5-.09.53,1.15,1.34.23l-.8-.76c.39-.31.56.59.89-.39.18.75.83.33.24,1.55,1.65-.86.91-2.34,1.27-3.62,0,.14.1.24.09.38-.09-.38.18-.78.33-1.13.66-.57.05.82.42.8.24-.37.46-.76.71-1.13a.1.1,0,0,1,.08,0c.08-.37.2-.7.49-.64a8.93,8.93,0,0,0,.34,1.22l.19-1.57c.21.33,1.18-.58.81.37l1.08-1.77.69.29c.18-.48.07-.57-.34-.14a6.66,6.66,0,0,0,.71-1.69c.25-.62.58-1,1-.44.52-1.64,1.07-1.95,2-3.73-.4,1.61,1.73-.82,1,.63.82-.54.32-1.19.71-1.82.69-.33,1,.36.77,1.09l.3-.87.11.11.17-.84c.82-.36.67.34,1.28-.22l-.37-.56.65-.18c-.36,0-.14-.49.21-1l.1.1.39-.63c-.18.8.53-.42.66.14a10.93,10.93,0,0,0,1.12-1.37l-.46-.15c.72-1.34.52.4,1.36-.45l-.42-.29c1.79-.67,1.63-2.46,2.9-3-.42.61.13.89,0,.77.61-.92,2-2.05,2.36-3.29a2,2,0,0,0,2.08-.25c.57-.63.6-.77.51-1.27.79-.34,1.63-1.68,2-1.32-.15-.44.59-.43.68-1l.22.1-.4-.33c1.84-.12,1.35-2.16,3.14-2.35l-.1.27.34-.55c.22.1.12.37.28.61l2.23-1.77-.67.07c.42-.43.41-1.07,1.14-1.28-.38,1.33.74-.59,1.25-.25l-.33.55c.6-.58.6-.58.22-.93.74-.82,1.2.29,1.64-.76l-.58.43c-.35-.1-.21-.75.17-1,.14,0,.55,0,.3.23.55-.68,1.72-1.27,1.89-1.66.46-.16.56.22.45.48,1.16-1.48.7-.44,1.88-1.91l.15.25.29-.65,1.09,0-.48-.11c.45-.4.63-.78,1.3-1.06l0,.51c1.23-1.19,2-.58,2.94-2,.13,0,0,.26,0,.39.8-1.43,1.35,0,2.11-1.55,0,.17.24.23.26.36l.41-.61.28.5,0-1,.68.26.06-.38c1.22.51,1.6-.77,2.88-.63l-.55-.51c.62-1.34,2-1.91,3.39-2.46a11.64,11.64,0,0,0,4.08-2.1l.25.52.72-1.22c.81.05-.09.63.25.77,1-.95,0-1,1.29-1.94.88-.07,0,.5-.24.87,1.11-1,2.78-2.38,3.86-2.58,0-.08,0-.2-.08-.2a16.55,16.55,0,0,1,2.9-1.64c.11.25-.1.42-.31.59.35-.15.9-.25,1.06-.64l-.12.63c.75-.3,2-1.49,2.34-1-.18-.15-.28-.6-.05-.69.24.38.33.23.47,0s.36-.56.57-.4c0,.25-.27.43-.2.4.19.17.29-.35.48-.75l-.06.42c.27-.32.59-.67,1-1,0,.27,0,.37.07.38a.43.43,0,0,0,.16.22c.13.09.28.15.1.48.17.33,0-.69.32-.42-.12.5.33.19,0,.74l-.07,0,.18.21a3.7,3.7,0,0,0-.42.38c.17,0,.63-.28.93-.62-.07.49.32.63,0,1l-.15,0a.39.39,0,0,1,.12.19.49.49,0,0,1,0,.12v.07l0,.16a11.84,11.84,0,0,1,.25,1.24,2.28,2.28,0,0,0,1.17,1.91c0,.14-.13.21-.26,0l.61,1-.51,0,1.62,1.35-.26.13a44.35,44.35,0,0,0,2.79,4.26l-.25-.14c1.36,1.34.72,1.67,1.71,2.66a.34.34,0,0,1-.18-.06l.65,1-.38-.08c1,.44.68,2.63.84,1.87.5.3,1.25.87,1.63.81.73,1.11-.14.47.09,1.3.48.84,1,.72,1.47,2l-.26.13c.36.49.74.7,1.23,1.4l-.25-.14c1.25.86.19,1.92,1.84,2.18.11.62.85,1.46.33,1.72,1.23,1.27,2.09,2.32,3.2,3.66-.66.74.25.28.34,1.45l.39-.33c1.34,2,1.75,5.06,3.34,7.23l-.39.33.76.16c1.32,2.58,3.13,5.85,4.34,7.81a6.3,6.3,0,0,1,2.23,2.25l-.13-.06a24.39,24.39,0,0,1,3.66,5.45c-.26,0-.27.26-.52.12.76.16.73,1.12,1,1.54l0-.69a1.56,1.56,0,0,1,.7,1.81l1,.57c0,.09,0,.22-.08.27h.32l-.28.82c.25.14,1.11,1.2,1.88,1.22-.14.2.22,1.1-.28.54l1.81,3.28-.11-.62c.4-.34,1.27.45,1.38,1.06-.76-.43-.65.33-.8.81.5.28.15-.62.53-.54.63.36,1.49,1.42,1.47,1.82l-.37-.21c.62.63.08,1.44.57,2.14.75.44.73,1.12,1.39.52.74.85-.28.68-.16,1,.63.22,1.22,1.68,1,2.08,1.41-.16,1.18,2.78,2.22,2.4l0,1.09a1.16,1.16,0,0,1,1.4.25c.1.76-.41.88-.55,1.22l1.16-.17q.11.38.24.75l.13.38.08.18,0,.09v0a2.69,2.69,0,0,0,0,.38,2.31,2.31,0,0,0,.12.56c.11.32.21.77-.47.63a3.11,3.11,0,0,1,.57.81,1.11,1.11,0,0,1,.09.44s-.15,0-.28-.07l-.12-.17c-.22-.16-.41-.31-.58-.45a9.47,9.47,0,0,0,.71.69c0,.14.18.39.06.34l-.64-.51a2.6,2.6,0,0,0-.53-.41,1,1,0,0,0-1.07-.11c-.29.56-.41.25-.4-.08V397a.93.93,0,0,0-.25-.23,1.45,1.45,0,0,0-1.06-.07c.19-.08.29-.23.46-.32a33.06,33.06,0,0,0-5.44.08c.51-1.13-1.32-.29-1-.87l-.29.45c-.38-.4-1.41-.75-1.18-1.06l-1,.4,0-.52c-1.18-.31-3.81-.49-4.21-1.64-3.11.11-7.69-1.15-11.35-2.09a5,5,0,0,1-2.54,0l-.78-.78c-.9,0-2,.58-2.68,0a.18.18,0,0,1,.12-.13c-.9-.05-1.67-.53-2.59-.14-.95-.22-1.82-.73-1.42-1.22-.28,1-2-.53-2-.53s-12.2-3-26.11-5.05-29.51-3.17-35.85-1.05c-.46.45-1.62.65-1.25,1.29-.89.09-1.19-.83-1.41-.35,1.14.45-.5,1.24.59,2l-.75.05c-.19.33,1-.3.79.33l.31-.91a1.7,1.7,0,0,1,1.07.77c.6-.3,1.09-1.52,2.38-.82h-.38c1.1.08.6.67.82.85l-.24,0,.87.56c-.67-.39-1.9.24-1.29.25,1.27.4-.32-.26.67-.27.62,0,.39.5.33.78l1.09.09c-.08.42-.71-.11-.32.39l1.42-.31c.13,1.12,1.55-.35,2.06.75-1,.14,0,.38-.15.72l2.42.22c.21.18-.68.26-.31.25.42.35.78-.18,1-.14.18.32,1.81.2,1.65.91,1.57.69.8-.83,2.27-.22.15.46-1.22-.05-.6.49l1.6,0c-.17.2-.4.68-1,.51,4.19,1.11,6.17,3.72,10.13,3.68.47.59-.44.29-.88.58,2.91-.31,3.78,1.7,6.17,2l.11-.43c3.13,1.81,7.23,1.66,10.89,2.8l-.4-.37a6,6,0,0,1,2.07-.32c.06.23-.6.84.52.84-.2-.19-.63-.42-.46-.61,3,1.64,9.85,2.53,15,4.06,7.18,1,14.69,3.39,21.67,4.66-1.06-.2-.38-1.15.36-.73,1.79,2.24,3.85.53,5.79,2.25a25.58,25.58,0,0,1,5.76,1.45A19.5,19.5,0,0,0,802,411a11.17,11.17,0,0,0,1.43.17h.74a2.77,2.77,0,0,1,.41,0l.65,0,0,.53c1,.5,1.33.22,2.39.44l0,.14a32,32,0,0,0,3.93.94,17.12,17.12,0,0,1,3.1.78l-.12-.63a3.09,3.09,0,0,1,1.18.47,1.34,1.34,0,0,0,.4.17l.3.05c.1,0,.29.06.38,0l.11.34.95-.77c.43,1.11,2.94-.27,4,.08.61-.18,1.48-.44,2.45-.65l.75-.15c.15-.27.28-.6.42-.89.3-.6.57-1.14.88-1.65.15,0,.34-.19.56-.46a4.71,4.71,0,0,0,.65-1.11,23.16,23.16,0,0,0,1.05-2.85,18.71,18.71,0,0,0-.53-6.67,27,27,0,0,0-1.35-4c-.61-1.38-1.28-2.77-2-4.11l-.58.29-.83-1.32c.14,0,.1-.24.29-.07a4,4,0,0,0-1.1-2.19l-.1-.14-.07-.06-.12-.14a3.11,3.11,0,0,1-.23-.28.92.92,0,0,1-.21-.58c-.28.68.23.55.48,1,0,.16,0,.39,0,.47s-.2.06-.36,0a1.2,1.2,0,0,1-.62-.87l.13-.06-.63-.36c.4-.34.29-1,.68-1.29-1.58-2.31-3.34-3.46-4.66-6,.64-.05-1.22-1.68-.07-1.72-1.23-1.27-.53.67-1.54.37-.24-.42-.75-.71-.48-1,.32.06.3-.66.59-.37l-.68-.94c0-.14.26,0,.38.08-1.73-1.7-1.66-3.89-3.27-5.38-.39.06.36.77,0,.83-1.74-1.42-.44-1.94-1.93-3.35l.63.09c-.62-.37-1.13-.38-1.35-1.48.4-.47.88.5,1.38.79-.37-.63-1.46-2.1-1.62-1.35-.62-.63-.34-1.18-.46-1.66-.13.06.1.9-.4.61a21.73,21.73,0,0,0-2-4c.13-.07.26-.27.39-.2C805,360.23,806.14,359.64,805.16,358.38Z"/><path class="cls-1" d="M749.84,310.79l.56-.21a.45.45,0,0,1,.06-.52Z"/><path class="cls-1" d="M776.2,318.3a1.45,1.45,0,0,0,.25.09A.22.22,0,0,0,776.2,318.3Z"/><path class="cls-1" d="M780.62,323.45c-.36-.34-.26.1-.27.38A.45.45,0,0,0,780.62,323.45Z"/><path class="cls-1" d="M737,320.4a.24.24,0,0,0,0-.29C736.92,320.27,736.94,320.35,737,320.4Z"/><path class="cls-1" d="M702.78,348.24a1.71,1.71,0,0,1,.18-.07A.32.32,0,0,0,702.78,348.24Z"/><path class="cls-1" d="M705.12,347.08a1.47,1.47,0,0,0,.29-.4A.78.78,0,0,0,705.12,347.08Z"/><path class="cls-1" d="M746,314.58a.79.79,0,0,0,.3-.39A.59.59,0,0,0,746,314.58Z"/><path class="cls-1" d="M705.68,346.23l.48-.39-.07-.09Z"/><path class="cls-1" d="M702.19,348.76a6.87,6.87,0,0,1,.59-.52A.92.92,0,0,0,702.19,348.76Z"/><path class="cls-1" d="M724.29,330.39l.05-.05C724.56,329.84,724.39,330.11,724.29,330.39Z"/><path class="cls-1" d="M706.9,343.62l.07-.05,0-.24Z"/><path class="cls-1" d="M700.2,350.58a.61.61,0,0,0,.13-.3l-.29.21A.45.45,0,0,1,700.2,350.58Z"/><path class="cls-1" d="M716.57,335.52a1,1,0,0,0,.12.52C716.84,335.9,716.88,335.74,716.57,335.52Z"/></svg>