<svg id="Layer_1" data-name="Layer 1" xmlns="http://www.w3.org/2000/svg" viewBox="0 0 841.89 595.28"><defs><style>.cls-1{fill:#3f3b3c;}</style></defs><path class="cls-1" d="M280.28,473.32a.45.45,0,0,0,.09.29C280.38,473.44,280.34,473.36,280.28,473.32Z"/><path class="cls-1" d="M326.36,426.05l-.44.65C326.26,426.32,326.36,426.15,326.36,426.05Z"/><path class="cls-1" d="M253.55,502.5a.43.43,0,0,0,0-.11l-1.87,2.07Z"/><path class="cls-1" d="M427.39,328.16l-.64.61A6.66,6.66,0,0,0,427.39,328.16Z"/><path class="cls-1" d="M366.78,385.39a4,4,0,0,1,.65-.92C367,384.84,366.75,385.16,366.78,385.39Z"/><path class="cls-1" d="M235.5,514.57l1-.6C236.4,513.88,236,514.07,235.5,514.57Z"/><path class="cls-1" d="M210.84,546.39a.44.44,0,0,0,.14,0C211,546.29,210.93,546.33,210.84,546.39Z"/><path class="cls-1" d="M222.1,535.33c.19-.29.4-.63.6-1C222.4,534.73,222,535.2,222.1,535.33Z"/><path class="cls-1" d="M223,533.88l-.27.47C222.88,534.12,223,533.92,223,533.88Z"/><path class="cls-1" d="M831.06,16.18a13.18,13.18,0,0,0,2.42-2.13Z"/><path class="cls-1" d="M522.52,243.54l-.09.28C522.57,243.63,522.57,243.56,522.52,243.54Z"/><path class="cls-1" d="M830.53,12.59l.74-.37A4.64,4.64,0,0,0,830.53,12.59Z"/><path class="cls-1" d="M248.76,497.86c.48-1.12,2.39-2.62,2.1-2.85C250.1,496,248.74,497.11,248.76,497.86Z"/><path class="cls-1" d="M534.06,215.33l.59-.5A7.11,7.11,0,0,0,534.06,215.33Z"/><path class="cls-1" d="M830.53,12.59l-.84.43a1.87,1.87,0,0,0,.34,0A2.67,2.67,0,0,1,830.53,12.59Z"/><path class="cls-1" d="M625.81,160.44l0,0-.18.21Z"/><path class="cls-1" d="M631.8,156.7l-1.13,1A4.11,4.11,0,0,0,631.8,156.7Z"/><path class="cls-1" d="M833.48,14.05l1.38-1.22A11,11,0,0,0,833.48,14.05Z"/><path class="cls-1" d="M692.51,111.32l-.53.44A3,3,0,0,0,692.51,111.32Z"/><path class="cls-1" d="M362.85,389c-.15.1-.33.26-.49.38C362.37,389.52,362.45,389.54,362.85,389Z"/><path class="cls-1" d="M393.22,345.05h0A0,0,0,0,1,393.22,345.05Z"/><path class="cls-1" d="M391.53,347.33a6.9,6.9,0,0,0,1.69-2.28A7.73,7.73,0,0,0,391.53,347.33Z"/><path class="cls-1" d="M397.69,341l-.27.19A1.43,1.43,0,0,0,397.69,341Z"/><path class="cls-1" d="M356.9,380.15l0,0s0,0,0,0Z"/><path class="cls-1" d="M364.74,372.15a3.33,3.33,0,0,0,.66-.43A3.59,3.59,0,0,0,364.74,372.15Z"/><path class="cls-1" d="M417.1,321a0,0,0,0,0,0,0l0,0Z"/><path class="cls-1" d="M493.62,248.11c-2,1.78-4.11,3.65-6.24,5.7L480.84,260c-4.42,4.18-8.86,8.3-12.86,11.72-1.2,2.09-3.67,4.33-6.06,6.68l-.95-.53L459.1,280c-1.05.53,1.48-1.57-.28-.52l-.36,1.18c-.41-.13-5.53,4.59-2.52.93-2.69,2.41-5.44,4.77-8.09,7.24-1.78,1.61-.45,1.59-2.57,3.2-.6.15.56-.8.16-.92-6.36,4.86-5.42,7.72-11.18,12.43l.37-.53c-.74,1.06-2.53,2.67-2.46,2.8,1.4.1.6-1.32,2.68-2.42.44.78-1.76,2.27-1.2,2.65-1.49.95-1.9,2-3,3.08-2.26,1.35-4.72,4.16-6.61,5-.74,1.06-1.2,2.65-3.17,4.52-1.89.83-.1-.79-2.22.83l0,.66c-1.65,1.42-1.49,1.09-1.6.86-1.72,1.57-1,1.82-3.31,3.57l.86-1.47c-1.46,1.61-2.16,2.14-4.34,4.21-.15-.26.73-1.08,1.42-1.63-1.68.59-1.79,2.17-2.48,2.73.34,0,1.9-1.39,1.51-.33-1.13,1-1.81,2.7-3,3l.84-1.48c-2,2.44-.76,1.61-3.46,3.95.11-.16,0-.19-.06-.32-1.18,2-3.71,3.66-6.14,6l.36-.54c-.85,1.06-1.07,1.9-1.62,2.38,1.57-1.12,1.3-.65,1.76-.42-2.38,1.15-2.09,3.36-5.39,5.86-.15-.26.32-1.19,1.34-1.76.42-1.59,0-2.23,1.57-4.25-1,1.22-2.22,2.58-2.19,2.05l.2.91c-.66.67-1.23,1.15-1.74,1.65.05.64,1.94-.74.59,1-1.59,1.89-1.5.32-1.53.85-2.22,2.58-.42,1.58-2.95,3.66a4,4,0,0,1,.81-1c-1.91,1.4-4,4.1-5.2,3.89.11-.39,0-.64.65-1.2l.07.13c1.37-2.28-1.41,1.62-1.43.45.48.24-2,2.44-3.09,3.41l.74.09c-2.32,4.67-.61-1-4,2.54-1.95,2.43,1-.7-.12.91-1.58,1.38-2.51,1.55-4.48,3.91-.77.44-2.21,1.45-2.78,1.09-1.12,1.51-4.19,3.81-4.48,5,2.62-1.87,1.75-2.74,5-4.77l-.29,1.19c-1.84,1.8-3.93,4.37-5.35,5.46.35-.16.57-.16.51.1-2.41,2.77-2.71,4-5.36,6.36-.74-.08.8-1.49,1.84-2.6-1.95,1.3-1.72,1.68-4.37,4.08-.5-.23,1.71-1.69,1.65-2.33L357,380.25s-.05-.05-.08-.08c.21,1-2.17,2.09-3.69,4-4,4.06-3.84,5.49-5.59,8.22-.76.44-1.09.47-1,.06,1.26-.73.87-.76,1.06-1.27-1.3,1.44-3.58,2.42-3.07,1.41-2,2.35,1.1-.47,0,1.05l-3,2.94c.66,0,1.77-1,.48.75-1.2,1.39-1.92,1.93-3.58,3.66.08-.4-1,.08.26-1.2a7.44,7.44,0,0,0-2.36,2.82c2.1-1.62-2.69,3.38-.86,2.43l-2.09,1.63c.42-.43.26-.68.93-1.26-1,.08-1.35,1.68-1.94,2.39s-2.42,2.28-2.74,2.24a6.36,6.36,0,0,1-2.45,2.14c-.76,1,.24.37.15.78l-2.93,3c-.42-.09-1.4-.54-1.07-1.1-.85,1.39.4,1.16-1.28,2.88.43-1.49-2.59,1.91-1.82-.11-1.33.63-4,3.49-5.37,5.18-.52,1.36,1.84-1.47,2.16-1-4,4.53-3.13,5.9-6.4,8.93l.92-.73a15.06,15.06,0,0,0-2.28,3.47c0-1-3.59.95-6.6,4.39,0,.52,2.24-1.41,2.15-.47-.67.75-1.32,1.53-2,2.3-.19.12-.06-.21.14-.56-1.65,2.18-4.09,3.1-4,4.25l-2.63,1.32,1.06-.5c0,.52-2,2.84-2.29,3.4a12.37,12.37,0,0,1-4.28,4.14c.58-.2,2-.74.42,1.14-.84-.81-3.77,3.49-4.17,3-.65.74-2.1,1.79-1.83,2.2l-.42-.61c.59.86-1.87,3.48-3.59,5.64-.6-1.38-2,2.31-3.72,2.37.34,1-3,3.86-2.77,4.75-1.39,1.6-1.9.87-2.48,1.07l-.41,1c-1,.5-3.8,3.38-5.57,5l-.83,2.2-.82.37c-.08.4-1.19,1.87-.22,1.21l-.82.87c.61.67-.91,1.42-2.2,3.47-.47.32-.54.07-.28-.4-.79.89-.8.2-1.46.49.73-.48-1.61,4.29.81,2.15.42.07-.62,1.66-1.51,2.43H258l-.28,1.62c-1.12,1.46-2,1.71-3.07,2.76,1-1.17,1.06-3.56-1.51-.6a24,24,0,0,0,2.18-3.59c-.56.59-.88.84-.31-.34-1.83,2.48-.3,1.1-2.22,3.45-.43-.6-1.16-.12-3.09,1.72l1.7-1.15a1,1,0,0,1-.1.42c.55-.52.77-.6,1.09-.54-.4.45-1.64,3.23-2.3,3.33,2.85-1.56-2.85,4.57-1.06,3.55-.07.4-1.43,2-1.84,1.95,1.25-2.27-1.88.9-2,.26-.47.84,1.71-1.15,1.08,0a10.29,10.29,0,0,1-2.75,2.19l.31-.56L242,506.09c0,.53,2-1.3.68.44-.49.33-1.76,2.07-1.94,1.84.3-1.1-.69-1,.43-2.43-1,1.18-4.09,4.87-2.29,3.84l-1.21,1.35c1-.65,3.49-2.69,1.17.11l-.09-.12-1.25,2.26-1,.59c.16.09,0,.5-.6,1.2-.32,0-1,.65-1.14.41-1.72,2.11-1.3,2.18-1.37,2.59-.93,1.2-1.42,1.54-1.28.72-1.41,1.53-3.68,4.38-4.88,5.22-1.55,2.35.48-.34-.19,1.23-2.51,1-6.29,6.75-9.09,10.33,1.64-.24-.7,1-.47,2.32.37-1-3.42,2.76-1.1-.49l-1.48,1.94c-1.53.88,2.23-3.37,0-2-1.72,2.11-1.94,4.25-4.31,6.45.09-1.32-1.39,2.06-1.54.9a8.68,8.68,0,0,1,1.39-2.06l-.48.34c-4,4.43-.4,1.91-2,4.65-2.26,2.85-2.32,1.81-2.74,1.74a10.92,10.92,0,0,0-2,2.68c1.05-2,3-2.84,2.74-1.74-1.72.66-3.53,4.1-3.89,5.08,4.06-3.39,2.34-2.73,6.26-5.83.21-.7-.48-1.12,1.66-3.15-.88,1.66.42.18.85-.13-.71.14,1.16-1.68,1.59-2.49.81-.38-.31,2,1.73-.13l-.47-1.12c.87-.78.29.89,1.68-1.17-.42,1.38.93.25-1.08,2.93,3.27-2.47,3.55-5,5.24-7.64-.16.28-.07.4-.21.69a10.76,10.76,0,0,1,1.53-2.35c1.5-1.41-.67,1.56-.1,1.34l2.11-2.55c.07,0,.09,0,.11,0,.45-.76.9-1.46,1.31-1.52a20,20,0,0,0-.55,2.2l1.65-3.15c0,.52,2.32-1.81.93.26l3.19-4,.83.14c.69-1,.61-1.15-.41-.08,1.26-1.24,4-6.81,4.54-5.16,2.14-3.49,3.23-4.47,6.19-8.37-2,3.27,3.48-2.69,1.09.51,1.78-1.55,1.5-2.43,2.62-3.89,1.37-1.09,1.41,0,.38,1.53l1.19-1.86.08.12.94-1.7c1.62-1.26.84.16,2.28-1.34l-.19-.76,1.22-.82c-.57.21.14-.8,1.09-2l.09.12,1.12-1.46c-.9,1.63,1.21-1.17,1-.24,1.05-1.16,1.07-1.19,2.85-3.4l-.66.08c2.15-3,.59.32,2.59-1.91l-.5-.19c3.48-2.68,4.46-5.83,7-7.86-1.11,1.45-.36,1.49-.45,1.37,1.67-2.19,4.72-5.47,6.13-8,1.24-.29,1.55-.34,3.74-2.3,1.39-1.6,1.55-1.87,1.7-2.67,1.6-1.33,3.88-4.46,4.35-4.18,0-.63,1.31-1.3,1.8-2.38l.33,0-.5-.21c3.3-1.93,3.68-5,6.89-7l-.33.56.9-1.28c.33,0,0,.53.17.78l4.92-5.25-1.24.79c1-1.15,1.31-2.24,2.7-3.3-1.38,2.63,1.64-1.75,2.38-1.69l-.89,1.27c1.38-1.59,1.38-1.59.89-1.81,1.72-2.14,2-.72,3.28-3l-1.23,1.31c-.57.19,0-1,.81-1.92.25-.16,1-.63.42.09,1.31-1.72,3.68-3.93,4.17-4.77.9-.75.91-.23.58.33,2.79-3.69,1.44-1.5,4.3-5.14l.16.25.84-1.38,2-1.22-.83.33a26.55,26.55,0,0,1,2.85-3.12l-.18.81c2.77-3.25,3.92-3.08,6.28-6.43.25-.15-.09.4-.26.69,2.11-3.19,2.51-1.53,4.53-4.84-.06.27.35.09.34.28l1-1.43.33.49.35-1.6,1.16-.36.26-.68c2.07-.56,3.26-3,5.59-4.26l-.83-.2c1.65-2.82,4.3-5.3,7.14-7.82,1.42-1.27,2.89-2.54,4.3-3.88a43.9,43.9,0,0,0,4-4.16l.32.5,1.74-2.72c1.52-.89-.36,1.07.22.9,2.16-2.62.38-1.6,3-4.51,1.7-1.15-.19.8-.71,1.62a78.25,78.25,0,0,1,8.07-8.53c0-.09,0-.28-.09-.21,1.55-1.93,4-4,5.9-6,.14.23-.3.74-.74,1.26a10.81,10.81,0,0,0,2.18-2.27l-.37,1.08c1.54-1.4,4-4.57,4.78-4.48-.34,0-.57-.36.72-1.62,1.32-.07,3.18-3.73,5.54-5.44-.09.4-1.55,1.93-1.12,1.51a10.62,10.62,0,0,0,2.51-3.17l0,.53c1.45-1.72,3-3.36,4.46-5,1.34-.06,4.47-4.5,4.59-3.72,1.75-1.64-1.72,1.12.39-1.06.84-.29,1.85-2,2.16-1.53l-.19.27,1.49-1.5-.56,1.33c1.23-1.35,1.79-2.69,1.56-3.06,1.46-1,3-2.87,4-3l-.36.54c3.34-3.54,6.86-4.46,8.94-7.81.26-.14.33,0-.1.4l2.18-2.06-.22.8,3.12-3.92.15.26c2.45-2.18,6-5.89,9-8.83l-.37.53c3.07-3.46,3.45-2.82,5.7-5.34a.88.88,0,0,1-.18.33l2.22-2.07-.3.66c1.22-2,5.25-3.76,3.88-3.21.74-1.06,2.12-2.79,2.15-3.3,2.4-2.27.85-.28,2.52-1.49,1.77-1.6,1.74-2.25,4.29-4.26l.15.25c1.07-1.06,1.62-1.85,3.14-3.32l-.37.53c2.12-2.79,3.73-2.29,4.85-5.06,1.22-.81,3.11-2.8,3.4-2.28,2.91-3.18,5.18-5.63,8.23-8.6,1.15.25.64-.66,2.93-2l-.48-.25c4.46-4.05,10.46-7.7,15.28-12.26l.48.26.62-1.3c5.5-4.57,12.54-10.56,16.8-14.34a31.47,31.47,0,0,1,5.33-5.53l-.19.25a150.05,150.05,0,0,1,12.22-10.7c-.13.39.4.14,0,.66.65-1.3,2.49-2.17,3.42-2.94l-1.33.63a8.29,8.29,0,0,1,3.82-2.79l1.57-2.06c.16-.07.41-.17.49-.13l.16-.5,1.46-.36c.39-.51,2.83-2.81,3.21-4,.33,0,2.24-1.39.93-.11l7.16-5.85-1.25.76c-.47-.28,1.44-2.33,2.68-3.08-1.17,1.54.35.65,1.2.42.78-1-1.12.36-.79-.28a19.24,19.24,0,0,1,4.25-3.89l-.6.76c1.54-1.51,2.88-1.45,4.48-2.82,1.21-1.52,2.54-2.12,1.68-2.54,2-1.88,1.2-.21,1.94-.71.73-1.14,3.87-3.36,4.53-3.33.35-1.94,6-4.32,5.77-5.51l2.13-1c-.13-.27-.2-1.06,1.15-2.31,1.53-.84,1.53-.19,2.12-.29l.22-1.57c4.2-2.69,8.71-6.26,13.3-9.92s9.39-7.23,14-10.22c3.67-3.17,8.18-7.33,12.73-10.71l-.41.5,4.61-3.25-3.52,2.14a28.37,28.37,0,0,1,2.46-2.34c2.57-1.72,5.56-3.75,8.61-6,1.53-1.11,3.06-2.3,4.6-3.49s3.05-2.4,4.49-3.65c3.18-3.95,3.28-1.1,6.5-4.65-.25.34-.26.57-.48.88,3.81-3.38,5.89-5.21,9.52-8.85.27,1.34,2.63-2,2.66-1.22l0-.65c1.08-.44,3.28-1.95,3.18-1.44l1.43-1.84.46.29c2.4-1.75,7.26-5.93,9.13-6,1.36-1.26,3-2.64,4.74-4.06s3.74-2.85,5.76-4.31c4-2.93,8.34-5.89,12.15-8.51a28.68,28.68,0,0,1,4.67-4l2.19-.82c1.63-1.41,3-3.36,4.88-4.21,0,.06,0,.15-.1.26,1.7-1.38,3.57-2.33,4.9-4,2-1.38,4-2.47,3.76-1.58-.39-1,4.2-2.84,4.2-2.84L721.7,92l17.19-11.63,9.92-6.77,10.57-7C766.55,61.87,773.89,57,781,52.09l10.54-7.24c3.44-2.38,6.86-4.61,10.1-6.83,13-8.84,23.77-16.68,29.38-21.84.59-1,2.78-2.73,1.57-2.66,1.72-1.31,3-1.09,3.11-1.74-2.65,1.28.09-1.58-2.66-.58l1.49-1.08c.13-.51-1.9,1.67-1.86.88l0,1.07A6.79,6.79,0,0,1,830,13c-1,1.06-1.08,2.61-4.2,3.92l.75-.54c-2.28,1.48-1.73.38-2.29.55l.52-.31-2.19.82c1.63-.66,3.66-2.83,2.42-2-2.89,1.51.83-.26-1.17,1.14-1.25.84-1.16.19-1.25-.09L820.34,18c-.15-.42,1.53-.94.36-.73l-2.65,2.22c-1.12-.59-2.86,2.43-4.73,2.39,1.94-1.53-.39-.2-.25-.71L808,24.46c-.57.18,1.16-1.13.41-.59-1.12.35-1.43,1.22-1.95,1.54-.61,0-3.8,2.41-4.05,1.71-3.72,1.77-1,1.7-4.41,3.38-.66-.1,2.51-1.7.83-1.18l-3.26,2.24a2.88,2.88,0,0,1,1.57-1.72c-4.66,2.63-8.58,4.15-12.22,5.89a59.16,59.16,0,0,0-11.06,6.44c-1.44.32.63-.84,1.26-1.67-5.53,4.48-9,4.52-14,7.9l.15.43a92.36,92.36,0,0,0-11.84,6.79c-4,2.61-8.1,5.32-12.15,7.82l1.11-.39a32.62,32.62,0,0,1-3.73,3.37c-.32,0,.41-1.4-1.77.31.56-.2,1.61-.72,1.45-.35C727,70.09,713,80.11,701.6,87.29l-11.27,8.06-11.56,8.12c-7.73,5.4-15.43,10.77-22.6,16.09,2.19-1.62,1.88-.08.08.92-5.62,1.83-7.61,6.07-12.94,8.5-8,6.71-16.33,11-23.22,18l-.46-.29c-1.3.68-1.39,1.2-2.57,2.15l-.06-.14c-3,2-6.14,5-7.89,6.11l.25.54c-1.65,1.35-1.14.33-2.66,1.94l-.13-.27-1.66,2c-.43-.95-4.78,3.64-6.4,4.33a111.28,111.28,0,0,1-9.31,7.83c-.94.08-5,3.24-7.7,5.05-4.92,4-12,9.72-18.34,14.76l.52.42-1.61,1.37c-.06-.13-.33,0-.13-.27-1.73.46-3.63,3.27-5.24,4,1.2-.22,1.21-.87,2.15-1.62,1.54-.85.66.69-1.36,1.92l0-.15-1,1.28c-.46-.28-1.74.45-2.2.18-5.31,4.5-8.42,8.17-14.13,12.53.21-.91-3.9,3.38-3.42,1.7-3.1,3,1.06.17,0,2-.95.75-1.75,1.76-2.15,1.61.28-.54-1.15.16-.45-.53l-2.18,1.88c-.26.12.14-.39.35-.64a59.33,59.33,0,0,1-6.21,5.14,43,43,0,0,0-5.81,4.91c-.07.53,1.66-1.28,1.6-.75-3.56,4-4,2.54-7.41,6.14l.46-1a10,10,0,0,1-3.5,3.47c-.73-.15,1.38-1.81,2.17-2.84-1.39,1.15-4.76,4.23-3.36,3.73a12,12,0,0,1-3.44,2.29c.06.14,1.79-1,1,0-2.45,1.65-5.9,4.61-8.66,6.9-.07-.13-.41-.13-.22-.39C497.15,246.6,496.53,245.42,493.62,248.11Z"/><path class="cls-1" d="M355.81,381.11l1.09-1c-.1-.1-.15-.25.22-.82Z"/><path class="cls-1" d="M405.09,333.21a2.49,2.49,0,0,0,.26-.48C405.12,333,405.08,333.12,405.09,333.21Z"/><path class="cls-1" d="M416.47,321c-.79.9.1.29.63,0C417,320.85,416.92,320.76,416.47,321Z"/><path class="cls-1" d="M329.71,410c.13-.22.18-.38.07-.44C329.62,409.9,329.62,410,329.71,410Z"/><path class="cls-1" d="M256.6,488.9l.35-.26A1.23,1.23,0,0,0,256.6,488.9Z"/><path class="cls-1" d="M261.21,485a11.3,11.3,0,0,0,.73-1A4.12,4.12,0,0,0,261.21,485Z"/><path class="cls-1" d="M347.71,391.16a3.86,3.86,0,0,0,.66-.93A3,3,0,0,0,347.71,391.16Z"/><path class="cls-1" d="M262.66,483l1-1.09a.53.53,0,0,0-.06-.1Z"/><path class="cls-1" d="M255.3,490.28c.4-.43.93-1,1.3-1.38A5,5,0,0,0,255.3,490.28Z"/><path class="cls-1" d="M303.06,439.15a.91.91,0,0,1,.1-.13C303.76,438,303.35,438.6,303.06,439.15Z"/><path class="cls-1" d="M266.24,477.43l.14-.13.17-.44Z"/><path class="cls-1" d="M250.86,495a3,3,0,0,0,.42-.63l-.61.59C250.78,495,250.83,495,250.86,495Z"/><path class="cls-1" d="M287.22,455.17c-.12.46-.12.68-.05.76C287.5,455.56,287.64,455.26,287.22,455.17Z"/><path class="cls-1" d="M243.56,486.25a.63.63,0,0,0-.2.18A.45.45,0,0,0,243.56,486.25Z"/><path class="cls-1" d="M269.62,503.54l-.37-.08C269.46,503.57,269.56,503.57,269.62,503.54Z"/><path class="cls-1" d="M228.49,474.77a.12.12,0,0,0,.07,0c-.22-.19-.52-.44-1-.88Q228,474.34,228.49,474.77Z"/><path class="cls-1" d="M302.62,531.56l.15,0C302.7,531.53,302.63,531.52,302.62,531.56Z"/><path class="cls-1" d="M291.62,518.29a1.11,1.11,0,0,1,.52.16C292,518.29,291.78,518.19,291.62,518.29Z"/><path class="cls-1" d="M224.86,464.07l.09.64C225.06,464.58,225.05,464.33,224.86,464.07Z"/><path class="cls-1" d="M212.17,450.88a.36.36,0,0,0,0,.09S212.17,450.93,212.17,450.88Z"/><path class="cls-1" d="M215,457.75a3.67,3.67,0,0,0,.46.3C215.35,457.89,215.17,457.67,215,457.75Z"/><path class="cls-1" d="M215.73,458.19l-.23-.14C215.6,458.16,215.68,458.24,215.73,458.19Z"/><path class="cls-1" d="M221.24,454.49a3.16,3.16,0,0,0-.17-1.57Z"/><path class="cls-1" d="M248.53,547l.07-.19C248.51,546.88,248.5,546.93,248.53,547Z"/><path class="cls-1" d="M218.16,453.09l.16-.35A.84.84,0,0,0,218.16,453.09Z"/><path class="cls-1" d="M232.79,469.67c.64,0,1.22,1.05,1.44.76C233.75,470.13,233.3,469.42,232.79,469.67Z"/><path class="cls-1" d="M241.32,564.52l-.33.14A1.6,1.6,0,0,0,241.32,564.52Z"/><path class="cls-1" d="M218.16,453.09l-.18.42.21-.09A.74.74,0,0,1,218.16,453.09Z"/><path class="cls-1" d="M205.61,562.88h0l.08-.06Z"/><path class="cls-1" d="M206.32,561.93s.07,0,.12,0S206.42,561.9,206.32,561.93Z"/><path class="cls-1" d="M221.07,452.92,221,452A2.71,2.71,0,0,0,221.07,452.92Z"/><path class="cls-1" d="M209.37,532.36a1.82,1.82,0,0,0,0,.33A.9.9,0,0,0,209.37,532.36Z"/><path class="cls-1" d="M289.76,516.7l-.18-.23C289.5,516.53,289.48,516.59,289.76,516.7Z"/><path class="cls-1" d="M317,527.71h0Z"/><path class="cls-1" d="M315.11,526.34a5.64,5.64,0,0,0,1.84,1.37A5.34,5.34,0,0,0,315.11,526.34Z"/><path class="cls-1" d="M319.32,531l-.08-.18A.48.48,0,0,0,319.32,531Z"/><path class="cls-1" d="M296.65,508.73s0,0,0,0l0,0Z"/><path class="cls-1" d="M301.07,511.93a1,1,0,0,0,.19.35A.94.94,0,0,0,301.07,511.93Z"/><path class="cls-1" d="M315.33,541.23h0Z"/><path class="cls-1" d="M264.45,557.77c4.6-1.72,10.46-4.28,15.2-5.43.8-1.05,2.29-1.47,3.74-2.06l.43.94,1.16-.66c.59.15-.91.45.09.57l.3-.74c.2.32,3.26-.67,1.37.63,1.61-.46,3.23-.87,4.85-1.3,1.08-.26.41-1,1.66-1.06.32.22-.38.31-.19.64,3.75-.22,3.64-3,7.1-3.37l-.26.2c.51-.4,1.6-.64,1.58-.78-.68-.9-.47.69-1.63.35-.12-.86,1.16-.77.93-1.39.87.11,1.18-.48,1.91-.71,1.91.12,4.28-.82,6-.52.75-.45,1.13-1.42,2.87-1.85,1.87.27.21.62,2.26.41l-.17-.48c1.55-.31,1.48-.15,1.65.06,1.68-.43.6-.89,3-1.19l-.56.67a23.76,23.76,0,0,1,4.19-1.2c.37.2-.53.42-1.27.54,2.19.17,1.56-.76,2.27-.87-.51-.08-2.08.23-2.08-.27,1.15-.22,1.05-1,2.69-.8l-.34.58a3.45,3.45,0,0,0,1-.7,1.46,1.46,0,0,1,.49-.19c.25,0,0-.19-.08-.34l-.4-.6a2.31,2.31,0,0,0,.52.23,8.87,8.87,0,0,1-2.12-2.31c-.52-.77-1-1.65-1.69-2.57l.47.37c-.84-.79-1.76-1.22-2-1.6.43,1,0,.68-.59.72,0-.59-.68-1.12-1.5-1.68a6.23,6.23,0,0,1-2.26-2.19,1.42,1.42,0,0,1,1.26,1c1.61.62,2.59.68,4.24,2.12-1-.9-1.92-1.91-1.31-1.72L318,529c-.43-.51-.7-.92-1-1.3-.74-.11-.17,1.11-1.45.06s.31-.84-.25-.94c-1.9-1.61-1.52-.41-2.71-2.09.2.13.62.38.67.55a17.06,17.06,0,0,0-1.57-2c-.53-.62-.93-1.19-.75-1.67.34,0,.6-.12,1,.4l-.13.06c1.89.93-1.26-1-.19-1.13-.14.23-.67-.14-1.16-.57a8.52,8.52,0,0,1-1-1l-.23.59c-2.95-.37.9-.79-1-2.22-1.41-.71.32.49-.65.19-.71-.75-.66-1.4-2-2.2-.16-.46-.63-1.23-.27-1.78-.88-.37-2-2-2.78-1.81.87,1.41,1.64.45,2.53,2.26l-.81.17a26.8,26.8,0,0,1-2.95-2.3c.07.21,0,.39-.14.43-1.57-.89-2.36-.68-3.62-1.87.16-.61.91.08,1.53.48-.62-1-.9-.76-2.19-1.9.22-.46.93.69,1.38.42-.54-.35-1.1-.66-1.65-1l.06-.08c-.72.53-1.15-.91-2.25-1.38-2.28-1.56-3.28-.83-4.9-1.11q-.33-.63.06-.75c.35.69.42.37.74.32-.81-.45-1.24-1.81-.62-1.82-1.37-.59.2.66-.7.4l-1.66-1.14c0,.5.51,1-.55.68a15.61,15.61,0,0,1-2.06-1.3c.26-.09.05-.75.76-.28-.38-.43-1.1-.9-1.61-.71.85,1-1.94-.76-1.5.31l-.86-1c.24.16.42-.07.73.22.05-.75-1-.37-1.37-.54-.31-.33-1.25-1-1.2-1.24-.43,0-1.18-.66-1.17-1.05-.56-.19-.26.35-.51.45l-1.68-1.06c.09-.37.47-1.33.8-1.3-.83-.09-.79.8-1.75.19.92-.28-1-1.23.23-1.48-.3-.79-1.92-1.7-2.89-2.05-.83.17.79.83.44,1.3-2.58-1.25-3.53,0-5.2-1.25l.39.42a4.08,4.08,0,0,0-2-.32c.67-.44-.32-2.41-2.25-3.34-.34.22.69,1.19.11,1.51l-1.29-.62c-.06-.1.14-.12.34-.11-1.23-.42-1.59-2-2.32-1.45l-.59-1.56.21.65c-.33.22-1.61-.41-1.94-.44a2.89,2.89,0,0,1-2.2-1.72c.06.38.26,1.28-.77.8.6-1-1.85-1.59-1.51-2.09-.41-.22-.91-1-1.21-.57l.44-.58c-.61.81-2-.11-3.21-.62,1-1-1.26-.64-1.08-2-.69.66-2.11-.9-2.73-.35-.86-.48-.3-1.16-.35-1.55l-.57,0c-.18-.64-1.67-1.7-2.42-2.55l-1.29.11-.1-.52c-.25.08-1-.3-.76.25l-.42-.35c-.55.72-.78-.23-1.91-.55-.13-.26.06-.4.32-.36-.45-.32,0-.56,0-1,.18.42-2.53.15-1.57,1.35-.13.36-1,.06-1.34-.39l.21-.85-1,.3c-.75-.41-.75-1-1.22-1.52.58.39,2.16-.3.73-1.38a5.36,5.36,0,0,0,1.94.56c-.28-.24-.38-.41.29-.35-1.27-.63-.69.14-1.83-.63.49-.53.33-1-.45-1.88l.37,1a.38.38,0,0,1-.25.05.56.56,0,0,1,.12.69c-.21-.18-1.82-.28-1.73-.77.41,1.75-2.46-.82-2.18.25-.26.06-1-.54-.88-.88,1.24.33-.14-1.2.33-1.46-.46-.12.35,1-.27.83a2.68,2.68,0,0,1-.81-1.49l.31.08-.6-.93c-.37.16.39,1.13-.48.64-.1-.28-.94-.81-.73-1,.67-.06.86-.78,1.55-.32-.53-.42-2.19-1.82-2-.73l-.59-.57c.17.57.87,2-.42.91l.11-.1-1.23-.38c0-.2-.08-.4-.11-.61-.11.14-.36.13-.65-.18.07-.23-.15-.58.07-.76-.89-.85-1.09-.52-1.35-.49-.53-.45-.6-.74-.07-.81a9.12,9.12,0,0,1-1.91-2.62c-1.09-.72.06.29-.8.07a3.72,3.72,0,0,0-1.25-2.54c-.75-.87-1.79-1.67-2.42-2.48-.56,1.11-.42-.38-1.45-.1.53.16-.44-2.08.85-.8l-.72-.82c.07-.95,1.41,1.2,1.44-.19a4,4,0,0,0-1.43-1,2.31,2.31,0,0,1-1.16-1.39c.91,0-.8-.79.12-.94.39.1.53.48.79.78v-.29c-1.19-2.34-1.19-.16-2.38-1.07-.89-1.37-.08-1.42.19-1.68a2.22,2.22,0,0,0-.84-1.22c.88.63.42,1.83-.23,1.67.45-1.05-1.06-2.15-1.59-2.4.26,2.5.71,1.44.87,3.89.39.14,1.06-.31,1.48,1-.78-.5-.36.28-.34.55.26-.46.65.69,1,.93-.12.52-1.32-.12-.76,1.15l1-.37c.16.53-.81.26.07,1.05-.81-.2-.66.67-1.63-.57.23,2.1,2.06,2.08,3.18,3-.14-.08-.27,0-.41-.09.42.08.7.56,1,.84.39.89-.86-.29-.93.08.3.41.65.79,1,1.19,0,.05,0,.07,0,.08.37.23.69.47.57.75a11.12,11.12,0,0,0-1.37-.13l1.61.8c-.39.09.38,1.45-.55.71.53.61,1.11,1.18,1.7,1.75l-.41.64c.49.35.61.26.21-.32.44.75,3.41,1.87,2.09,2.53,1.8.92,2.07,1.63,4,2.93-1.77-.72.93,2-.68.95.61,1,1.32.57,2,1.06.4.79-.34,1.08-1.18.67l1,.46-.11.1c.32.11.64.19,1,.29.48.91-.32.68.38,1.4l.58-.35.28.72c0-.39.53-.11,1.11.32l-.1.1c.25.15.5.32.75.46-.92-.23.55.61-.06.72A12.85,12.85,0,0,0,230.3,476l.08-.5c1.63.79-.34.57.77,1.48l.24-.46c1.13,1.93,3.09,1.68,4,3-.77-.42-.94.19-.84.08,1.17.62,2.87,1.93,4.32,2.2,0,.89,0,1.13,1,2.18.87.52,1,.54,1.55.36.66.79,2.44,1.41,2.19,1.89.42-.24.7.54,1.35.52l0,.25.2-.48c.87,1.9,2.82,1,3.8,2.75l-.33,0,.73.21c0,.25-.34.21-.52.44l2.88,1.84-.38-.67c.64.32,1.31.14,1.86.83-1.56,0,1,.6.85,1.22l-.73-.2c.88.47.88.46,1.07,0,1.21.5.28,1.29,1.59,1.41l-.73-.45c-.06-.38.67-.43,1.16-.13.08.13.31.53-.1.37,1,.34,2.17,1.34,2.66,1.38.4.41.06.64-.26.61,2.1.69.8.57,2.91,1.27l-.18.24.82.07.62,1.06-.15-.51a5.85,5.85,0,0,1,1.77.91l-.5.2c1.86.8,1.66,1.79,3.6,2.22.07.13-.25.1-.41.08,1.86.31.77,1.33,2.71,1.51-.16.07-.09.32-.21.4l.83.16-.34.47,1-.4.12.76.41-.08c.18,1.39,1.66,1.28,2.23,2.6l.2-.73c3.32.23,5.35,4.2,8.67,5.53l-.37.45,1.6.22c.41.81-.67.16-.62.54,1.48.58,1-.37,2.61.5.55.84-.51.18-1,.11,1.56.7,3.82,1.83,4.6,2.8.06,0,.18-.08.15-.15a18.84,18.84,0,0,1,3.14,2.23c-.19.19-.46,0-.73-.1.33.3.7.81,1.17.82l-.67.12c.68.65,2.42,1.37,2.22,2,.05-.25.35-.56,1,0-.21,1,1.95,1.1,2.65,2.29-.24.06-1-.5-.81-.33.36.59,1.05.66,1.66.82l-.36.16,2.6,1.61c-.26,1,2.14,1.85,1.56,2.18.19.2.16,0,.19-.08s0-.2,0-.21.09,0,.13,0a.48.48,0,0,1,.15.07c-.16.36.52.25,0,.58h-.1l.28.22a5.79,5.79,0,0,0-.63.17,2.92,2.92,0,0,0,1.38-.19c-.09.36.5.6,0,.83l-.22,0c.4.24.11.56-.16.72s-.5.21.4.5a.85.85,0,0,1-.37-.08l.13.23-.75-.19a12.85,12.85,0,0,1,1.44.67l-.53-.16a.31.31,0,0,0,0,.08l-.16,0a1.6,1.6,0,0,0-.26.08l-.49.24-.1-.11c0,.21-.18.19-.36.15s-.31-.13-.51.09a.19.19,0,0,1-.05-.12l-.53.14-.1-.27c.05.31-.41.21-.72.06s-.54-.33-.29-.12c0,.29-.27.69-.2,1-.63.18-.31-.31-.74-.46a.59.59,0,0,0-.27.12c-.19.08-.35.18-.53.27a3.68,3.68,0,0,1-1.54.4l0-.29c-.69.23-1.07.53-2,.82l.26-.21c-1.45,1-2.2-.33-3.14,1.21-.73-.07-1.95.45-2-.13-1.89.89-3.38,1.46-5.28,2.2-.57-.83-.41.16-1.74,0l.22.47c-2.74.84-6.27.48-9.26,1.58l-.22-.46-.46.71c-1.67.37-3.58.82-5.4,1.27s-3.53,1-4.83,1.36a9,9,0,0,1-3.29,1.76l.12-.12a34.35,34.35,0,0,1-7.31,2.62c.09-.26-.21-.32,0-.55-.43.75-1.49.54-2,.71l.76.15a2.07,2.07,0,0,1-2.24.39l-1,.91c-.09,0-.23-.06-.28-.13l-.11.32-.83-.43c-.24.23-1.7.9-2,1.68-.19-.17-1.31.05-.53-.36l-4.22,1.3h.73c.25.45-.89,1.2-1.61,1.21.7-.69-.18-.7-.67-.93-.47.46.65.25.44.62a5,5,0,0,1-2.48,1.22l.35-.35c-.89.53-1.64-.13-2.57.26-.71.7-1.47.58-1,1.33-1.16.63-.68-.37-1.11-.31a2.85,2.85,0,0,1-2.61.67c-.21,1.46-3.46.86-3.32,2l-1.23-.18a1.19,1.19,0,0,1-.65,1.39c-.88,0-.89-.53-1.23-.71l-.12,1.2a38.56,38.56,0,0,0-7.61,2.29c-1.3.51-2.62,1-3.93,1.51-.66.23-1.31.45-2,.65l-1,.28c-.29.07-.76.21-.76.15-.22.22-.51.54-.87.85a2.88,2.88,0,0,1-1.12.65l.09-.19a.44.44,0,0,1-.18-.23,1.35,1.35,0,0,0,0,.53c-.13.2-.32.51-.43.54a4,4,0,0,1-.28-.52s0,0,0,0l0-.13a.89.89,0,0,0,0-.19c0-.1-.08-.13-.22-.12-.66.42-.35,0,0-.28.17-.16.36-.31.44-.4s.06-.11-.16-.13c.11,0,.3-.11.43-.15a4,4,0,0,1-.51-.5c-.18-.2-.39-.42-.71-.84.61,0,.62-.09.55-.22s-.2-.27.11-.2l-.24-.06-.24-.13c.36-.49.61-1.72.94-1.5l-.5-1.11.52,0c.19-1.38.11-4.4,1.22-5-.36-3.52.52-8.9,1.29-13.17a6.23,6.23,0,0,1-.12-2.9l.75-1c0-1-.67-2.18-.15-3.06a.2.2,0,0,1,.14.13c0-1,.47-1.94,0-3,.19-1.1.67-2.13,1.18-1.71-1-.26.49-2.33.49-2.33s2.63-14.11,5.45-30,5.81-33.44,4.71-40.9c-.38-.57-.4-1.92-1.09-1.56,0-1,1-1.29.56-1.59-.63,1.27-1.17-.71-2.07.47l.07-.87c-.31-.26.13,1.23-.45.88l.86.45a2.06,2.06,0,0,1-.93,1.15c.21.72,1.35,1.41.46,2.82l0-.44c-.24,1.26-.76.64-1,.86l.08-.27-.7.95c.49-.73,0-2.21-.06-1.51-.59,1.43.31-.34.17.8-.11.71-.55.4-.83.31l-.25,1.25c-.41-.13.21-.82-.34-.41l.1,1.67c-1.13.06.15,1.82-1,2.32,0-1.18-.38,0-.69-.23l-.54,2.79c-.21.23-.17-.8-.21-.37-.41.46.07.91,0,1.19-.35.18-.42,2.08-1.12,1.85-.87,1.79.74,1,0,2.66-.48.14.18-1.42-.42-.73l-.23,1.85a1,1,0,0,1-.39-1.16c-1.61,4.8-4.4,7-4.72,11.67-.64.54-.26-.53-.51-1.05.06,3.42-2,4.41-2.49,7.23l.42.13c-2,3.66-2.12,8.52-3.42,12.85l.39-.47a8.1,8.1,0,0,1,.24,2.43c-.23.07-.82-.68-.87.63.2-.24.46-.75.64-.56-1.77,3.62-2.81,11.72-4.28,17.92-1,8.54-3,17.67-3.77,26.09.12-1.28,1.11-.61.75.32-2.12,2.42-.24,4.6-1.77,7.15a23.31,23.31,0,0,1-.28,3.59l-.14.87-.09.62-.11.75c-.14,1-.27,2-.41,3-.27,2-.52,4-.66,6-.07,1-.11,1.94-.11,2.86s0,2,.13,2.82l-.57.59c-.38,1.5,0,1.54-.09,2.82l-.16.12c-.25,1.7-.33,3.39-.4,4.88a25,25,0,0,1-.34,3.89l.65-.8c0,.2-.1.51.11.34a2.78,2.78,0,0,1,.3-.09.69.69,0,0,1,.27,0c.14,0,.34,0,1.36-.66L191,586l2.52-1.72c-.56.8.63.29,2.06-.4a16.51,16.51,0,0,1,3.62-1.55l4.41-2.36a46.3,46.3,0,0,1,4.82-2.23,6.65,6.65,0,0,0,2.75-.7l2.15-.82a15,15,0,0,1,1.8-.62,102.67,102.67,0,0,1,10-4.31l-.31-.58.89-.41c0,.14.19.16.08.28,1,.41,2-1.06,2.91-.93-.68-.37-.67.17-1.2.37-.86,0-.38-.87.75-1l0,.14.56-.6c.26.45,1,.43,1.25.87,3-1.27,4.67-2.93,7.87-3.86-.12.65,2.19-1,1.91.19,1.74-1-.59-.64,0-1.61.53-.18,1-.64,1.21-.33-.17.31.63.4.24.65l1.22-.54c.15,0-.08.26-.2.37,2.36-1.48,4.76-1,6.85-2.39.05-.4-.94.23-.9-.17,2.07-1.51,2.26-.13,4.25-1.35l-.28.62c.58-.56.75-1.07,2-1.08.39.49-.82.78-1.29,1.23.8-.25,2.75-1.07,2-1.36.88-.51,1.39-.13,2-.16,0-.14-1-.06-.54-.51a34.31,34.31,0,0,0,5-1.26c0,.14.2.31.09.42C262.49,557.21,262.76,558.49,264.45,557.77Z"/><path class="cls-1" d="M296.13,508.25l.52.48c.08-.1.19-.2.54-.13Z"/><path class="cls-1" d="M324.68,537.08a5.21,5.21,0,0,0,.49.37A1.58,1.58,0,0,0,324.68,537.08Z"/><path class="cls-1" d="M316.09,541.48c.73-.33-.2-.24-.76-.25C315.43,541.33,315.59,541.44,316.09,541.48Z"/><path class="cls-1" d="M279.64,499.43a.23.23,0,0,0,.28-.13C279.73,499.31,279.66,499.36,279.64,499.43Z"/><path class="cls-1" d="M237.09,473c0,.06.07.11.1.18A.33.33,0,0,0,237.09,473Z"/><path class="cls-1" d="M238.76,475.3a2.18,2.18,0,0,0,.51.25A1,1,0,0,0,238.76,475.3Z"/><path class="cls-1" d="M290.28,505.85a1.06,1.06,0,0,0,.55.15A.76.76,0,0,0,290.28,505.85Z"/><path class="cls-1" d="M239.81,475.77l.54.44.07-.09Z"/><path class="cls-1" d="M236.43,472.39a6.3,6.3,0,0,1,.66.57A1.11,1.11,0,0,0,236.43,472.39Z"/><path class="cls-1" d="M263.17,490.72l.07,0C263.84,490.8,263.49,490.72,263.17,490.72Z"/><path class="cls-1" d="M242.86,476.65l.06.07.26,0Z"/><path class="cls-1" d="M234.23,470.43a.7.7,0,0,0,.33.12l-.26-.29A.46.46,0,0,1,234.23,470.43Z"/><path class="cls-1" d="M254.53,484.64c-.28.09-.42.17-.48.27C254.26,485,254.43,485,254.53,484.64Z"/></svg>