<svg id="Layer_1" data-name="Layer 1" xmlns="http://www.w3.org/2000/svg" viewBox="0 0 841.89 595.28"><defs><style>.cls-1{fill:#3f3b3c;}</style></defs><polygon class="cls-1" points="87.91 311.64 88.29 312.31 90.31 312.31 87.91 311.64"/><path class="cls-1" d="M98.88,315.5c-.19-.34.11-.52-.08-.86l-7.27-.88C93.24,316.73,97.77,313.52,98.88,315.5Z"/><path class="cls-1" d="M100.42,316.76A4.05,4.05,0,0,0,104.7,318C103.37,318.41,100.71,315.18,100.42,316.76Z"/><path class="cls-1" d="M297.19,433.23a7,7,0,0,0-.74-.34A1.34,1.34,0,0,0,297.19,433.23Z"/><path class="cls-1" d="M350.85,459.7l1.1-.63c-10.57-4-20.33-12.16-30.88-17.44l.88.07C296.52,426,271.9,413.53,246,399.08c.46.14.76-.07,1.24.07-1.43-.4-3.16-.6-4.48-1.51-.24-.42.64-.21,1.15,0-4.44-4.78-16.39-8.41-19-11.63-1.61-.74-2.67-.47-2.13.53C202.6,375,181.1,362.62,160.07,351.76c-.85-.79-.77-1.33-.18-1.71-18.87-7.78-36.44-19.64-53.95-30.63-1.08.27,1.39,1.79-.77,1.45,5.2,4.24,11.43,4.58,15.88,8.89L120,330c3.52,2.66,1.74-1.18,5.15,2,1.22,1.46-.88.6-.19,1.08,8.16,4.5,16.16,10.06,24.64,13,1,2.52,8.57,5.18,10.73,8.29,2.4.67,4.39,2.06,5.73,1.59,27.57,17.44,57,33.13,85.64,50.34,15.05,5.28,29.19,18.11,45.68,26.7.05.16,0,.25-.18.27a133.15,133.15,0,0,1,19.35,10.65l5.94,2c12.23,8.37,24.83,16.34,37.6,24.14q9.59,5.85,19.27,11.59l21.16,12.58,10.82-6.51,9.08-5.41q9.09-5.38,18.27-10.62c43.34-25.21,82.14-45.94,121.79-74.73.11.3.54.24-.48,1,11.74-7.82,23.32-13.47,34.35-20.89l.12.29c26.85-19.25,58.88-35.1,84.6-53.9l13.32-7.94,16-9.6-21.17-11.77-20-11c-13.47-7.37-27.1-14.74-40.44-21.86l.39-.5c-29.2-14.83-55.18-33.18-84.16-48.25-28.61-17.65-62-30.59-90.65-48.8-5.94-4.58-13.2-8.49-20.78-12.19-3.79-1.85-7.67-3.65-11.5-5.45l-5.7-2.7-5.1-2.49-1.91,1.08-2,1.1q-2.18,1.15-4.32,2.18a73.31,73.31,0,0,1-8.43,3.47c-38.07,14.45-71.4,35.38-105.9,56.66-33.85,15.76-64.81,36.92-98.45,50.54-14.12,9.92-33.21,14.21-49.78,23.61l1,.38c-7.15,1.07-12,10-17.38,8.85l.57-.48c-4,.1-5.51,7.62-8.44,6.76L114,296c-3.77,2.25-.92-.65-4.08.61-1.08.69.31,1.64-2.28,2.43-2.18-2.93-9.15,5.66-11.29,2.21,2.12-1.11-4.06.35.32-2.89-1.55.34-8,3.92-6.59,5.14.29,1.9-1.51,4.64,3.1,3.82l.18-1.59c1.94.48,1.32.06,2.25.69,5.26-2.54,6.84-1.19,10.92-2.42-.06,0-.11,0-.08-.12,1.79-2.73,5.73-3.73,7.84-4.57l1.15.23c1.94.74,4.48-5.75,4.14-2.58,10.2-6.07,22.26-12.34,34-18.5,1.18-1.76,9-4.62,5.56-5,4,.42,13-3.64,16.17-5.42,0,.25-.05.53-.6.73,7.63-.74,6.23-6.26,13.76-6.23-.23-2.68,11.08-4.89,13.06-9.23,1,.11,1.46.43,1.4,1,10.65-5.5,22.79-10.84,31.83-15.44,6.67-5.94,19-8.84,24.25-15,5.77-2.3,15.2-5.81,22.28-10.87l-.57.71c8.53-4.66,19.22-10.42,24.25-15.19,3.89,1.23,7.34-1.23,11.49-2.36,5.14-4.19,16.93-9.91,25.15-15.57,2,.47,7-4.29,8.32-2.81A288.94,288.94,0,0,1,379.11,160c5.25-2.82,10.62-5.56,16.05-8.21q4.08-2,8.18-3.89l4.1-1.89.51-.23.15-.07.08,0,.34-.11.62-.17c.24.19.45.38.65.56l.14.13.07.06.25.17,1.15.75,4.53,3q4.5,3,8.8,6l-.44-.09c3.88.95,8.89,1.07,13,1.79.25.33.06.59-.66.18,4.9,2.33,8.39,6.46,13.28,8.79-.19.26-.19.26-1.11.09,4.85,1.73,8.4,6.47,14.35,8.09l.05.61,3.67,1.23c-.4.52-1,1.28-2.67.11,40.24,23.23,83.71,43.76,125.1,67.48l-1.82-.33,8.6,3.57c-.2.26-.66.18-1.12.09,9.75,6.7,21.3,11.09,31.19,16.94-.2.25-2-.06-.79,1,8.27,2.63,10.81,8.64,16.29,7.56.26.34.1,1.18-.8,1,10.61,5.25,21.21,10.85,31.71,16.66q7.89,4.36,15.68,8.85l3.9,2.25,1.8,1.06,1,.58,3.56,2.22.47.15a8.18,8.18,0,0,1-2.15,2.35c-.55.46-1.17.95-1.84,1.45l-.53.38-.8.54-1.6,1.07c-4.29,2.83-8.76,5.54-13.25,8.24-9,5.41-18.08,10.81-26.15,17.17l-.25-.61c-21.67,15.74-47.17,28.26-70.62,42.94-10,5.7-16.21,10.37-26.07,16.36l-.67-.54c-15,12.68-36.4,18.7-52,32.08l.63-1.67c-1.8,3.09-10.81,5.81-8.27,7.7l-3.52,1.09C482,445,469.44,446,456.29,456.85l.59-1.17c-3.56,2.78-7.82,5.84-11,7,.4-.35.08-.4.9-1.11-13.45,4.89-25.27,15.58-38,23.14l.77-2a57.15,57.15,0,0,1-9,6.31l-7.42-4.57c-2.65-1.62-5.28-3.16-7.73-4.39l.8-.22-4.53-1.71.52-1.11C371.65,470.7,361.2,465.7,350.85,459.7Z"/><path class="cls-1" d="M243.92,397.6s.07,0,.09.1C244.38,397.79,244.22,397.71,243.92,397.6Z"/><path class="cls-1" d="M108,303.57c-.54.19-1,.34-1.45.47C106.76,304.21,107.53,303.74,108,303.57Z"/></svg>