<svg>
  <symbol id="countLabel" xmlns="http://www.w3.org/2000/svg" viewBox="0 0 345.27 56.51" preserveAspectRatio="none">
    <path fill="pink" stroke="#000" stroke-miterlimit="10" d="M5.51 3.68c10.87 0 21.78.34 32.64.05 4.83-.13 9.56-1.01 14.4-1.09 4.36-.07 8.7.32 13.05-.18C73.31 1.57 81 1.99 88.68.9 94.06.14 99.8.67 105.22.68c4.66 0 9.52-.46 14.14.22 2.7.4 4.94.83 7.68.8 6.99-.09 13.98-.02 20.97-.02 14.77 0 29.36.72 44.09.96 4.19.07 8.23.88 12.39 1.09 5.06.25 10.22-.05 15.28-.05H328.89c4.85 0 10.8-.95 15.52.15-1.79 8.51-.89 17.99-.89 26.86 0 4.3-.79 9.52.22 13.77.53 2.22 2.1 7.95-.09 9.29-.72.44-3.37-.07-4.28-.07-3.14-.01-6.27 0-9.41 0-5.06 0-9.92-.1-14.96-.54-5.99-.52-11.8.61-17.8.56-5.9-.05-11.89-.27-17.79-.07-6.15.2-12.19 1.11-18.36 1.07-7.39-.05-14.51.03-21.85.75-16.65 1.64-33.48-.94-50.14-.75-5.79.06-11.47-1.07-17.31-1.07-5.88 0-11.66.94-17.52 1.08-13.9.35-27.86-.04-41.76-.04-12.19 0-24.2-.99-36.37-1-12.84-.01-25.54-1-38.37-1-3.57 0-7.15.03-10.72.02-2.78 0-5.28-.88-8.02-1.07-4.63-.32-9.36.23-13.99.07-2.53-.08-2.06.11-2.49-1.99-.42-2.02-.95-3.87-1.03-6-.1-2.67.33-5.4-.06-8.05-.53-3.64-.91-6.52-.91-10.28V9.67c0-1.66.04-3.33 0-5-.06-2.93-.01-3.06 3-3 1.92.04 3.88-.14 5.8-.03 1.89.11 2.7.95 4.61 1.03 2.52.11 5.06-.05 7.58-.01 2.04.03 4.15-1.39 6.01-1"/>
  </symbol>
</svg>
