<svg id="Layer_1" data-name="Layer 1" xmlns="http://www.w3.org/2000/svg" viewBox="0 0 841.89 595.28">
  <defs>
    <style>.cls-1{fill:#3f3b3c;}</style>
  </defs>
  <path class="cls-1" d="M612.92,418.23l-9,8.12,12.26,8,12.12,8.27,6.08,4.16,6,4.28,12,8.59-6.14-13.48-3.09-6.78-3.21-6.7-6.48-13.46-6.75-13.35L617.64,414l-3.52-4q-30.06-33.24-62.73-64A1143.61,1143.61,0,0,0,411.77,233.92,1135.11,1135.11,0,0,0,89,81.38l-1.77,6.09a1128.77,1128.77,0,0,1,321,151.69A1137.86,1137.86,0,0,1,547,350.66q32.46,30.54,62.37,63.63Z"/>
</svg>
