<svg id="Layer_1" data-name="Layer 1" xmlns="http://www.w3.org/2000/svg" viewBox="0 0 841.89 595.28"><defs><style>.cls-1{fill:#3f3b3c;}</style></defs><path class="cls-1" d="M596,470.92l-8.5,8.71,12.89,7.19,12.79,7.34L638.83,509,624,483.3l-7.46-12.86L609,457.68l-8.5,8.71-3.77-3.67-15.48-15-15.68-14.84c-5.24-4.94-10.43-9.91-15.7-14.81l-15.89-14.62Q470.35,345,403.48,290.28A3021.53,3021.53,0,0,0,124.31,87.22l-3.43,5.33A3017.17,3017.17,0,0,1,399.47,295.18q66.67,54.58,130.18,112.9l15.85,14.58c5.25,4.9,10.44,9.86,15.67,14.79l15.64,14.8,15.45,15Z"/></svg>